<svg width="616" height="134" viewBox="0 0 616 134" fill="none" xmlns="http://www.w3.org/2000/svg">
<g clip-path="url(#clip0_443_228)">
<path d="M668.764 133.787L558.2 0.194256" stroke="#2658C4" stroke-miterlimit="10"/>
<path d="M558.2 133.787L668.764 0.194266" stroke="#2658C4" stroke-miterlimit="10"/>
<path d="M599.018 133.787L488.454 0.194256" stroke="#2658C4" stroke-miterlimit="10"/>
<path d="M488.454 133.787L599.018 0.194266" stroke="#2658C4" stroke-miterlimit="10"/>
<path d="M529.273 133.787L418.709 0.194256" stroke="#2658C4" stroke-miterlimit="10"/>
<path d="M418.709 133.787L529.273 0.194266" stroke="#2658C4" stroke-miterlimit="10"/>
<path d="M459.527 133.787L348.963 0.194256" stroke="#2658C4" stroke-miterlimit="10"/>
<path d="M348.963 133.787L459.527 0.194266" stroke="#2658C4" stroke-miterlimit="10"/>
<path d="M389.781 133.787L279.217 0.194256" stroke="#2658C4" stroke-miterlimit="10"/>
<path d="M279.217 133.787L389.781 0.194266" stroke="#2658C4" stroke-miterlimit="10"/>
<path d="M320.037 133.787L209.473 0.194256" stroke="#2658C4" stroke-miterlimit="10"/>
<path d="M209.473 133.787L320.037 0.194266" stroke="#2658C4" stroke-miterlimit="10"/>
<path d="M250.291 133.787L139.727 0.194256" stroke="#2658C4" stroke-miterlimit="10"/>
<path d="M139.727 133.787L250.291 0.194266" stroke="#2658C4" stroke-miterlimit="10"/>
<path d="M180.547 133.787L69.9768 0.194256" stroke="#2658C4" stroke-miterlimit="10"/>
<path d="M69.9768 133.787L180.547 0.194266" stroke="#2658C4" stroke-miterlimit="10"/>
<path d="M110.801 133.787L0.230604 0.194256" stroke="#2658C4" stroke-miterlimit="10"/>
<path d="M0.230592 133.787L110.801 0.194266" stroke="#2658C4" stroke-miterlimit="10"/>
</g>
<defs>
<clipPath id="clip0_443_228">
<rect width="669" height="133.981" fill="white" transform="translate(669 133.981) rotate(-180)"/>
</clipPath>
</defs>
</svg>
