<svg width="343" height="333" viewBox="0 0 343 333" fill="none" xmlns="http://www.w3.org/2000/svg">
<path d="M238.509 215.863C238.256 216.033 238.017 216.217 237.778 216.4C237.778 216.4 237.736 216.457 237.722 216.471C237.694 216.499 237.68 216.513 237.666 216.528V216.556C237.821 216.429 237.961 216.33 238.116 216.217C238.27 216.103 238.411 216.004 238.565 215.905C239.198 215.439 239.886 215.015 240.547 214.633C239.858 214.986 239.184 215.425 238.523 215.877M238.523 215.877C238.27 216.047 238.031 216.231 237.793 216.414C237.793 216.414 237.75 216.471 237.736 216.485C237.708 216.513 237.694 216.528 237.68 216.542V216.57C237.835 216.443 237.975 216.344 238.13 216.231C238.284 216.118 238.425 216.019 238.58 215.92C239.212 215.453 239.901 215.029 240.561 214.647C239.872 215 239.198 215.439 238.537 215.891M223.163 232.181C208.098 246.703 191.066 258.312 172.291 266.852C156.298 259.57 141.584 250.096 128.29 238.516L127.545 239.972C127.067 240.891 126.562 241.81 126.042 242.715C125.592 243.549 125.072 244.412 124.538 245.246C138.507 257.279 153.993 267.079 170.829 274.559L172.291 275.223L173.752 274.559C194.2 265.467 212.679 252.938 228.883 237.172L223.163 232.181ZM238.537 215.891C238.284 216.061 238.046 216.245 237.807 216.429C237.807 216.429 237.764 216.485 237.75 216.499C237.722 216.528 237.708 216.542 237.694 216.556V216.584C237.849 216.457 237.989 216.358 238.144 216.245C238.298 216.132 238.439 216.033 238.594 215.934C239.226 215.467 239.915 215.043 240.575 214.661C239.886 215.015 239.212 215.453 238.551 215.905M238.551 215.905C238.298 216.075 238.06 216.259 237.821 216.443C237.821 216.443 237.778 216.499 237.764 216.513C237.736 216.542 237.722 216.556 237.708 216.57V216.598C237.863 216.471 238.003 216.372 238.158 216.259C238.313 216.146 238.453 216.047 238.608 215.948C239.24 215.481 239.929 215.057 240.589 214.675C239.901 215.029 239.226 215.467 238.565 215.92" fill="#F2EBD9"/>
<path d="M253.532 38.2495C253.293 38.2071 253.026 38.1505 252.787 38.094C253.026 38.193 253.279 38.2495 253.532 38.2919C253.588 38.2919 253.645 38.2919 253.687 38.3202C253.63 38.3202 253.574 38.2778 253.532 38.2637M247.152 14.183L246.997 12.1044H215.996C215.996 12.1044 215.996 12.1468 216.038 12.1468C216.094 12.2175 216.151 12.3024 216.207 12.3731C216.249 12.4296 216.291 12.4579 216.319 12.5145C216.418 12.5993 216.502 12.6983 216.572 12.7973C216.628 12.8397 216.657 12.868 216.671 12.9245C216.741 12.9811 216.769 13.0518 216.825 13.0942L217.078 13.4194C217.289 13.6881 217.5 13.9851 217.711 14.2961C218.202 14.989 218.666 15.7667 219.116 16.5868H243.47C243.765 18.9624 245.241 25.8769 246.758 31.4481L250.44 28.8605C248.445 21.5924 247.152 14.2396 247.152 14.1689M235.727 211.834C234.701 212.527 233.661 213.375 232.635 214.337C233.619 213.432 234.701 212.569 235.825 211.82C236.514 211.353 237.329 210.83 238.116 210.363C237.259 210.83 236.486 211.325 235.727 211.834ZM97.2887 12.0761L97.1622 14.1547C97.1341 14.2537 96.1785 25.2689 90.8102 38.3202C85.9056 50.2686 75.9981 66.3743 56.7031 75.4664L55.3118 76.1027L55.4242 77.6581C55.4242 77.9974 57.6868 111.905 73.0751 151.413C74.0869 154.001 75.1409 156.602 76.237 159.148C77.2207 157.875 78.2888 156.645 79.4271 155.471C78.6401 153.619 77.8672 151.738 77.1364 149.829C63.814 115.596 60.4693 85.322 59.8791 78.8741C79.6379 69.0609 89.7984 52.3048 94.8575 39.9605C99.1578 29.4544 100.605 20.3198 101.069 16.5444H179.458C179.458 16.5444 179.5 16.4879 179.514 16.4454C179.767 15.894 180.132 15.2577 180.526 14.5789C180.666 14.3386 180.877 14.0133 181.172 13.6174C181.425 13.2215 181.706 12.8821 181.945 12.571C181.945 12.5286 182.1 12.3731 182.156 12.3165C182.24 12.2317 182.311 12.1327 182.395 12.0479H97.3168L97.2887 12.0761Z" fill="#F2EBD9"/>
<path d="M249.513 189.619L246.646 190.524C242.585 196.845 237.891 203.83 233.31 209.444C216.361 230.202 195.83 246.18 172.277 256.898C157.549 250.196 144.002 241.443 131.775 230.767C131.775 230.781 131.775 230.81 131.761 230.838L131.382 231.686C130.89 232.803 130.426 233.906 129.92 234.995C142.456 245.812 156.34 254.664 171.419 261.409L172.277 261.805L173.134 261.409C192.485 252.727 209.841 240.637 224.962 225.295C227.042 223.216 229.08 221.053 231.047 218.819C232.972 216.712 234.827 214.534 236.654 212.3C237.202 211.622 237.75 210.957 238.27 210.264H238.284C243.428 203.76 248.614 195.827 253.068 188.488C251.846 188.87 250.679 189.238 249.499 189.619M235.811 211.805C234.687 212.555 233.619 213.417 232.621 214.322C233.647 213.361 234.687 212.527 235.713 211.82C236.472 211.31 237.245 210.801 238.102 210.349C237.301 210.801 236.486 211.339 235.811 211.805Z" fill="#F2EBD9"/>
<path d="M254.066 26.7814C251.213 18.5801 249.949 11.6232 249.415 7.66395H95.1245C94.45 12.4999 92.7074 21.7899 88.3509 32.3668C82.7718 45.8847 71.6135 64.1396 50.0841 75.0841C50.9694 83.9783 54.8762 115.468 68.8732 151.059C70.419 155.004 72.0492 158.879 73.7637 162.654C73.5248 163.022 73.2718 163.375 73.047 163.757C72.9205 163.941 72.4005 164.747 72.3584 164.775C71.6135 165.977 70.7844 167.193 69.871 168.268C69.4915 168.678 69.1121 169.074 68.7467 169.371C68.7186 169.385 68.6764 169.413 68.6483 169.455C66.2733 164.393 64.0529 159.204 61.959 153.859C44.9687 110.632 42.4672 73.359 42.4532 73.0055L42.2845 70.3472L44.6455 69.2584C65.4723 59.5582 76.1668 42.279 81.4789 29.4822C87.2407 15.5541 88.0839 3.70472 88.112 3.59159L88.3228 0H256.23L256.441 3.59159C256.568 5.30255 257.551 15.0027 261.964 26.6824L254.08 26.7956L254.066 26.7814Z" fill="#F2EBD9"/>
<path d="M329.869 32.0982L324.683 43.9901L323.672 46.3232L322.308 49.5189L315.324 43.9901L319.385 40.4126L322.66 37.4998L329.293 31.6458C329.546 31.4195 330.024 31.7447 329.869 32.0982Z" fill="#F2EBD9"/>
<path d="M334.099 129.043C333.959 129.085 333.874 129.142 333.776 129.198C333.874 129.17 333.959 129.099 334.099 129.071C334.282 129.014 334.464 128.93 334.661 128.816C334.464 128.915 334.282 128.972 334.099 129.043ZM20.5443 221.265H20.5864C20.8113 220.982 21.0642 220.713 21.3031 220.445C21.0502 220.713 20.8113 220.982 20.5443 221.265ZM22.2588 244.511C22.2588 244.511 22.2025 244.553 22.1604 244.553C22.315 244.553 22.4555 244.553 22.6241 244.553C22.4836 244.553 22.3852 244.553 22.2728 244.511M38.434 238.247L38.1108 238.572C38.2232 238.473 38.3216 238.374 38.434 238.289C38.4902 238.219 38.5464 238.162 38.6026 238.12C38.5464 238.162 38.4761 238.205 38.434 238.261M53.4428 206.333C53.3444 206.63 53.2601 206.898 53.1898 207.195C53.3023 206.842 53.4006 206.531 53.5131 206.22C53.4709 206.22 53.4568 206.29 53.4568 206.333M55.2276 201.384C55.1854 201.483 55.1573 201.567 55.1292 201.666C55.2838 201.228 55.4665 200.804 55.6491 200.394C55.4946 200.719 55.354 201.058 55.2276 201.384ZM69.4915 174.673V174.701C69.9272 174.503 70.3488 174.263 70.7282 174.008C70.3628 174.263 69.9272 174.475 69.4915 174.673ZM62.6336 213.671C62.6055 213.459 62.5774 213.233 62.5352 213.021C62.5914 213.488 62.6336 213.982 62.6898 214.435C62.8163 215.368 62.9287 216.301 63.0692 217.221C62.9146 216.033 62.7601 214.845 62.6195 213.671M43.6196 260.178C43.4229 260.461 43.2683 260.758 43.1137 261.041C43.2683 260.772 43.465 260.475 43.6618 260.178C43.718 260.051 43.8164 259.924 43.9147 259.797C43.8164 259.896 43.718 260.023 43.6196 260.178ZM13.8831 332.972V333C14.3328 333 14.7544 332.943 15.19 332.873C14.7403 332.929 14.3328 332.972 13.8831 332.972ZM110.021 151.299L109.993 151.271C110.021 151.37 110.035 151.483 110.063 151.582C110.063 151.497 110.035 151.398 110.007 151.299M119.198 166.005C119.001 165.793 118.818 165.595 118.621 165.397C118.79 165.595 118.959 165.793 119.17 166.005C119.24 166.09 119.324 166.175 119.408 166.26C119.338 166.175 119.268 166.09 119.198 166.005ZM135.12 172.057C134.867 172.198 134.6 172.312 134.361 172.467C134.642 172.354 134.909 172.213 135.148 172.099C135.331 172 135.527 171.859 135.766 171.746C135.527 171.859 135.303 171.958 135.12 172.057ZM148.555 115.327C148.555 115.327 148.513 115.284 148.499 115.327C148.527 115.327 148.555 115.355 148.555 115.369C149.005 115.553 149.426 115.737 149.862 115.949C149.412 115.737 148.99 115.525 148.555 115.327ZM150.171 178.293L150.129 178.321L157.31 184.175L150.171 178.307V178.293ZM162.243 166.076C162.046 166.118 161.891 166.146 161.723 166.175C161.877 166.146 162.074 166.146 162.243 166.118C162.397 166.076 162.51 166.076 162.65 166.062C162.51 166.062 162.397 166.09 162.243 166.09M159.446 184.373L164.941 189.619V189.577L159.446 184.359V184.373ZM165.658 191.189L171.7 194.087V194.045L165.658 191.174V191.189ZM182.662 32.2111C182.592 31.7727 182.493 31.3344 182.437 30.896C182.507 31.3344 182.578 31.7727 182.662 32.2111ZM183.519 35.7178C183.28 34.9543 183.055 34.1483 182.915 33.3423C182.816 32.9746 182.746 32.5929 182.662 32.1969C182.873 33.3988 183.126 34.5866 183.477 35.7037H183.519V35.7178ZM185.22 98.3445C185.22 98.3445 185.107 98.2738 185.065 98.2172C185.107 98.2596 185.163 98.3162 185.22 98.3586C185.22 98.3586 185.22 98.3586 185.22 98.3303M185.543 98.5707C185.444 98.5142 185.346 98.4435 185.262 98.3586C185.346 98.4576 185.444 98.5142 185.543 98.5849C185.571 98.6132 185.599 98.6273 185.613 98.6273C185.585 98.6273 185.571 98.5849 185.543 98.5707ZM186.4 134.444C185.627 135.151 184.939 135.816 184.264 136.452C184.924 135.858 185.627 135.18 186.4 134.473L196.785 128.831L186.4 134.43V134.444ZM197.151 48.4015C196.912 47.7369 196.659 47.0299 196.406 46.3512C196.659 47.0158 196.87 47.7228 197.109 48.4015C197.263 48.9106 197.46 49.4338 197.614 49.9711C197.46 49.4338 197.277 48.9106 197.151 48.4015ZM210.037 46.5775C210.248 46.5209 210.403 46.4785 210.403 46.4785V46.4502C210.403 46.4502 210.248 46.4785 210.037 46.5775ZM212.342 15.4126H212.314C212.469 15.6106 212.637 15.7802 212.806 15.9782C212.665 15.7802 212.497 15.6106 212.342 15.4126ZM214.478 31.7727C214.352 31.7445 214.282 31.7445 214.282 31.7445V31.7727C214.282 31.7727 214.38 31.7727 214.577 31.8152C214.619 31.8152 214.661 31.8152 214.717 31.8152C214.633 31.8152 214.549 31.7869 214.478 31.7727ZM214.661 80.839C214.661 80.839 214.155 80.5562 213.41 80.231C214.155 80.5845 214.619 80.8673 214.661 80.8673C216.123 80.839 216.825 80.8107 217.289 80.6552C216.825 80.7824 216.123 80.8107 214.661 80.839ZM215.813 61.7357C215.813 61.7357 215.785 61.7781 215.757 61.7922C216.263 61.6367 216.769 61.5094 217.275 61.3256C216.797 61.4246 216.319 61.5801 215.813 61.7215M220.437 32.1687C220.086 32.2111 219.678 32.2111 219.228 32.2111C219.664 32.2535 220.071 32.2535 220.423 32.2111C220.634 32.1687 220.83 32.1545 221.027 32.0838C220.83 32.1404 220.634 32.1687 220.437 32.1687ZM235.671 52.8981C235.432 52.9547 235.207 53.0112 234.954 53.0536C234.701 53.1102 234.448 53.1668 234.195 53.195C234.588 53.1385 234.954 53.0536 235.347 52.9829C235.6 52.9264 235.839 52.8557 236.078 52.785C235.952 52.8274 235.825 52.8557 235.685 52.884M246.773 34.7422C246.604 34.5866 246.477 34.4735 246.309 34.2897C246.154 34.1059 246.028 34.0352 245.845 33.8655C246.267 34.728 246.773 35.435 247.236 36.142C247.082 35.6754 246.885 35.2088 246.773 34.7422ZM253.49 38.2348C253.237 38.1924 252.984 38.1358 252.745 38.0792C252.984 38.1782 253.237 38.2348 253.49 38.2772C253.546 38.2772 253.602 38.2772 253.645 38.3055C253.588 38.3055 253.532 38.2489 253.49 38.2489M255.022 36.5097H254.98L255.12 36.6652C255.12 36.6652 255.05 36.5662 255.008 36.5097M272.11 122.835C272.068 123.302 272.04 123.783 272.068 124.249C272.068 123.783 272.11 123.302 272.125 122.835C272.153 122.552 272.153 122.255 272.167 121.973C272.167 122.255 272.11 122.552 272.11 122.835ZM272.476 106.602C271.9 106.419 271.309 106.235 270.705 106.037C271.295 106.235 271.886 106.433 272.476 106.616C272.574 106.616 272.659 106.659 272.757 106.687C272.659 106.645 272.574 106.616 272.476 106.588M286.543 75.4799C286.487 75.6354 286.417 75.7627 286.346 75.9465C286.417 75.7768 286.515 75.6496 286.585 75.4799C286.627 75.395 286.641 75.3102 286.684 75.2254C286.641 75.2961 286.599 75.3809 286.543 75.4799ZM287.33 74.0235C287.428 73.9103 287.499 73.7972 287.597 73.6841V73.6134C287.499 73.7548 287.428 73.8821 287.33 74.0235ZM277.465 200.917C277.184 201.313 276.874 201.709 276.565 202.076C276.889 201.709 277.212 201.313 277.507 200.917C277.69 200.648 277.872 200.366 278.055 200.111C277.872 200.366 277.676 200.648 277.479 200.917M274.907 203.844C274.809 203.943 274.738 204.042 274.64 204.169C274.752 204.042 274.851 203.943 274.949 203.844C275.413 203.392 275.877 202.925 276.284 202.43C275.849 202.925 275.399 203.392 274.921 203.844M238.495 215.863C238.242 216.033 238.003 216.217 237.764 216.4C237.764 216.4 237.708 216.457 237.694 216.457C237.54 216.584 237.385 216.712 237.23 216.839C237.371 216.726 237.511 216.627 237.638 216.556V216.528C237.638 216.528 237.68 216.499 237.694 216.485C237.821 216.4 237.947 216.316 238.074 216.231C238.214 216.118 238.369 216.019 238.523 215.92C239.156 215.453 239.844 215.029 240.505 214.647C239.816 215.001 239.142 215.439 238.481 215.891M236.992 217.065L237.076 216.98C236.949 217.079 236.823 217.178 236.71 217.277C236.809 217.221 236.893 217.136 236.992 217.065ZM297.659 46.931C297.659 46.931 297.603 46.832 297.561 46.7754C297.561 46.832 297.603 46.8885 297.617 46.931C297.659 46.9734 297.687 47.0299 297.715 47.0865C297.715 47.0299 297.659 46.9875 297.659 46.931ZM283.929 30.288V30.3304C284.07 30.387 284.196 30.4577 284.323 30.486C284.196 30.4294 284.056 30.3446 283.929 30.288ZM279.671 35.5764C279.727 35.7603 279.826 35.9299 279.882 36.1138H279.924C279.84 35.9441 279.755 35.7603 279.671 35.5764ZM260.882 31.6596C260.545 31.6596 260.221 31.702 259.884 31.7162C260.404 32.2252 260.91 32.6353 261.458 32.9888L260.896 31.6455L260.882 31.6596Z" fill="#F2EBD9"/>
<path d="M237.722 216.472C237.722 216.472 237.68 216.514 237.666 216.514V216.542C237.821 216.415 237.962 216.316 238.117 216.203C237.99 216.288 237.863 216.373 237.737 216.458" fill="#F2EBD9"/>
<path d="M342.545 112.428C342.489 111.622 342.25 110.788 342.082 109.869C341.126 105.556 339.411 101.3 337.922 97.0437C337.261 94.9086 336.657 92.7593 336.081 90.5817C335.519 88.4041 334.999 86.2407 334.521 84.0207C333.256 78.5909 332.005 73.2176 330.207 67.9009C329.279 65.0022 327.93 62.1318 326.483 59.3744C326.398 59.1765 326.272 58.9644 326.131 58.724C325.78 58.0877 325.4 57.4514 325.021 56.8433C324.642 56.1929 324.234 55.5849 323.784 54.9627C323.63 54.7223 323.461 54.5102 323.292 54.2981C323.166 54.1143 323.039 53.9446 322.885 53.7467C322.281 52.9124 321.648 52.1064 320.946 51.3711C320.58 50.9611 320.187 50.551 319.807 50.1268C319.568 49.9005 319.344 49.646 319.076 49.4481C318.739 49.137 318.43 48.8118 318.079 48.5431C317.573 48.0906 317.039 47.6664 316.505 47.2705C316.055 46.917 315.605 46.5918 315.142 46.3089C314.284 45.7433 313.371 45.1919 312.401 44.7253C313.048 42.6042 313.666 40.4691 314.27 38.3481C314.369 38.0087 314.467 37.6835 314.565 37.3441C314.973 35.9301 315.395 34.5302 315.802 33.1021C316.35 31.2214 316.912 29.3832 317.46 27.4884C317.517 27.1208 317.081 26.7531 316.73 27.0501C315.142 28.5207 313.61 30.0195 312.022 31.5184C311.516 31.985 310.954 32.5365 310.462 33.1162C309.928 33.6677 309.394 34.2757 308.86 34.8979C308.312 35.5059 307.764 36.1422 307.23 36.8209C306.429 37.7966 305.614 38.8712 304.784 39.8752C303.983 40.9498 303.182 41.9962 302.409 43.0426C302.185 43.3537 301.946 43.6647 301.707 43.9758C300.92 45.0505 300.133 46.111 299.388 47.1008C298.91 47.5816 298.222 47.5816 297.828 47.1432C297.8 47.1008 297.772 47.0584 297.73 47.0301C297.702 46.9735 297.673 46.9311 297.631 46.8887C297.631 46.8321 297.575 46.7897 297.575 46.7332C297.575 46.6766 297.519 46.5918 297.519 46.5211C297.463 46.3797 297.421 46.2524 297.378 46.1393C297.168 45.305 297.041 44.3435 296.774 43.5516C296.605 42.986 296.366 42.3921 296.114 41.8124C296.085 41.7134 296.057 41.6286 296.001 41.5296C295.706 40.865 295.369 40.2287 294.975 39.5782C294.708 39.0409 294.371 38.4895 294.02 37.9804C292.966 36.4391 291.701 35.0817 290.239 33.8798C289.719 33.4838 289.199 33.1162 288.665 32.7061C288.202 32.3951 287.696 32.084 287.19 31.8153C286.937 31.6598 286.656 31.5184 286.389 31.377C285.714 31.1083 285.012 30.7831 284.337 30.4296C284.211 30.3872 284.084 30.3306 283.943 30.274C284.576 31.8577 285.124 33.498 285.658 35.1524C286.206 36.8068 286.726 38.447 287.288 40.0732C286.726 38.9561 286.122 37.9521 285.405 37.0047C285.208 36.7502 284.997 36.4816 284.787 36.227C284.407 35.7745 284.028 35.3503 283.62 34.9403C283.578 34.8837 283.536 34.8554 283.508 34.8272C283.128 34.4737 282.749 34.1202 282.355 33.7667C281.836 33.3142 281.287 32.9041 280.697 32.5223C280.233 32.183 279.756 31.9002 279.292 31.6174C279.292 31.6174 279.292 31.6174 279.25 31.6174C278.969 31.4335 278.674 31.278 278.336 31.1083C278.097 30.9669 277.858 30.8538 277.591 30.7124C276.537 30.2033 275.441 29.7509 274.289 29.3408C274.078 29.2842 273.741 29.1287 273.544 29.0721C276.116 30.5427 278.154 32.5789 279.432 35.0251C279.517 35.1807 279.587 35.3786 279.671 35.5483C279.742 35.7321 279.826 35.916 279.924 36.0856V36.1139C279.924 36.1139 279.882 36.1139 279.882 36.0856C279.461 35.8453 279.025 35.619 278.617 35.4069C277.676 34.9261 276.748 34.4737 275.807 34.106C275.497 33.9646 275.188 33.8515 274.851 33.7384C274.162 33.4556 273.446 33.201 272.715 32.9889C272.378 32.8758 272.04 32.7768 271.675 32.692C270.818 32.4516 269.947 32.2537 269.061 32.1123C268.724 32.0557 268.415 31.9991 268.106 31.9567C267.909 31.9143 267.698 31.886 267.487 31.8719C267.037 31.8153 266.602 31.7588 266.166 31.7163C265.716 31.6739 265.253 31.6598 264.761 31.6174C264.494 31.6174 264.199 31.6174 263.932 31.6174C262.934 31.5749 261.908 31.6173 260.868 31.6598L261.43 33.0031C261.43 33.0031 261.585 33.1445 261.683 33.1586C261.725 33.201 261.739 33.2293 261.796 33.2435C261.838 33.2859 261.866 33.2859 261.936 33.3C262.133 33.4556 262.358 33.597 262.569 33.7384C262.807 33.8656 263.018 33.9505 263.229 34.0495C263.721 34.2757 264.171 34.4737 264.634 34.5868C264.93 34.6999 265.197 34.8272 265.464 34.9403C265.745 35.0534 266.026 35.1524 266.279 35.2514C266.391 35.2938 266.518 35.3362 266.644 35.3645C267.038 35.5059 267.445 35.6049 267.909 35.6473C268.035 35.6473 268.162 35.6756 268.302 35.6756C268.429 35.7038 268.569 35.7038 268.724 35.7038C267.867 36.0715 267.052 36.3402 266.194 36.524C265.969 36.5805 265.731 36.6371 265.534 36.6654C265.267 36.7078 264.972 36.7502 264.691 36.7926C264.367 36.8209 264.016 36.8492 263.707 36.8492C263.58 36.8916 263.482 36.8916 263.356 36.8916C262.569 36.8916 261.782 36.8492 261.009 36.7219C260.728 36.6795 260.432 36.623 260.137 36.5664C259.983 36.5381 259.786 36.4957 259.631 36.4391C259.421 36.3826 259.21 36.3119 258.999 36.2553C258.114 36.0008 257.242 35.6331 256.427 35.1807C256.245 35.0675 256.02 34.9544 255.837 34.8413C255.753 34.7989 255.668 34.7423 255.584 34.6999C255.247 34.5019 254.938 34.2898 254.657 34.0777C254.263 33.7949 253.898 33.498 253.546 33.1728C253.209 32.9041 252.9 32.6072 252.619 32.2961C252.239 31.9143 251.874 31.5042 251.551 31.08C251.649 31.4335 251.874 31.6456 251.944 32.0416C252.001 32.2112 252.085 32.3809 252.183 32.5647C252.338 32.89 252.478 33.2293 252.661 33.5404C252.816 33.8515 253.026 34.1626 253.209 34.4737C253.687 35.1382 254.193 35.7463 254.769 36.2977C254.797 36.3543 254.825 36.3967 254.896 36.4533C254.938 36.4957 254.966 36.5098 254.994 36.5664H255.036C255.036 36.5664 255.12 36.6654 255.148 36.7078L255.303 36.8633L255.57 37.1603C256.174 37.6976 256.877 38.2067 257.608 38.5884H256.779C256.118 38.5884 255.387 38.6733 254.629 38.5177H254.53C254.376 38.5177 254.165 38.4895 254.024 38.4612C253.926 38.4612 253.827 38.4188 253.715 38.4046C253.715 38.4046 253.701 38.3952 253.673 38.3763C253.673 38.3763 253.575 38.3763 253.518 38.3481C253.279 38.3056 253.012 38.2491 252.773 38.1501C252.535 38.0935 252.31 37.9946 252.029 37.9097C251.424 37.7683 250.778 37.4996 250.117 37.1744C249.654 36.9623 249.232 36.7219 248.782 36.4533L248.684 36.3543C248.529 36.2695 248.375 36.1563 248.22 36.0432C248.052 35.9018 247.869 35.7746 247.686 35.619C247.377 35.3786 247.082 35.11 246.773 34.813C246.899 35.2796 247.082 35.7463 247.237 36.2129C247.335 36.3119 247.391 36.4533 247.49 36.5664C247.925 37.132 248.389 37.6835 248.909 38.2067C249.148 38.447 249.373 38.6733 249.626 38.9137C250.033 39.2813 250.455 39.6772 250.89 40.0307C251.087 40.0873 251.214 40.2287 251.368 40.3135C251.452 40.3984 251.579 40.4691 251.748 40.5398C252.211 40.9216 252.745 41.3033 253.279 41.5013C253.336 41.6003 253.42 41.6003 253.42 41.671C253.884 41.8831 254.305 42.0386 254.755 42.2649C255.022 42.3356 255.233 42.5335 255.528 42.6042H255.57C255.57 42.6042 255.556 42.6137 255.528 42.6325C255.008 42.7881 254.502 43.0002 254.024 43.1557C253.813 43.2123 253.617 43.283 253.406 43.3537C253.181 43.4102 252.97 43.4809 252.759 43.5375C252.296 43.693 251.832 43.8486 251.34 44.0041C251.214 44.0465 251.087 44.0889 250.961 44.1314C250.792 44.1879 250.609 44.2586 250.455 44.3011C249.949 44.4566 249.485 44.6404 248.993 44.796C248.347 45.0081 247.728 45.206 247.096 45.404C246.927 45.4605 246.717 45.5595 246.52 45.6161C246.492 45.6161 246.464 45.6444 246.393 45.6444C246.183 45.7433 245.93 45.8423 245.691 45.8989C243.92 46.4786 242.107 47.0725 240.336 47.624C239.929 47.7654 239.535 47.8785 239.128 48.0199C236.022 49.0521 232.902 50.0844 229.797 51.1025C228.476 51.5267 227.155 51.9791 225.834 52.3892C226.944 52.8134 228.11 53.1104 229.305 53.2659C229.6 53.3083 229.909 53.3507 230.204 53.3649C230.415 53.3932 230.612 53.4073 230.808 53.4214C231.947 53.4639 233.085 53.4214 234.195 53.2659C234.448 53.2235 234.701 53.1811 234.954 53.1245C235.207 53.0679 235.432 53.0255 235.671 52.969C235.811 52.9407 235.938 52.9124 236.064 52.87C236.191 52.8276 236.303 52.7993 236.43 52.771C236.697 52.7003 236.936 52.6296 237.189 52.5447C238.397 52.1347 239.564 51.5408 240.646 50.8338C240.561 51.1166 240.463 51.3853 240.365 51.6256C240.14 52.163 239.887 52.6579 239.592 53.0821C239.437 53.2942 239.296 53.5204 239.128 53.6901C238.987 53.8881 238.819 54.0577 238.65 54.2416C238.495 54.383 238.355 54.5102 238.2 54.6233C238.088 54.7223 237.961 54.8072 237.849 54.8779C237.54 55.1183 237.189 55.3304 236.837 55.5425C236.43 55.7546 236.008 55.9384 235.558 56.1081C235.333 56.1929 235.095 56.2636 234.856 56.3484C234.631 56.405 234.406 56.4757 234.181 56.5181C233.183 56.7585 232.101 56.9141 231.019 57.013C230.513 57.0555 229.993 57.0837 229.487 57.1261C228.785 57.1544 228.082 57.1827 227.407 57.2251C225.777 57.3241 224.203 57.5645 222.672 58.0453C220.17 58.8088 217.837 60.0956 215.814 61.7924C216.32 61.651 216.783 61.4955 217.275 61.3965C220.774 60.5198 223.852 60.4491 227.323 62.1459C222.939 65.8789 216.769 67.4484 211.162 66.2465C213.663 70.5593 218.807 73.2742 223.866 72.8924C223.824 72.9348 223.655 72.9772 223.318 73.0762C222.91 73.1752 222.348 73.3307 221.73 73.4721C220.353 73.7832 218.751 74.1367 218.582 74.2357C218.16 74.8437 218.104 75.3811 218.175 75.8901C218.175 75.9467 218.203 75.9891 218.217 76.0456C218.217 76.1163 218.259 76.2012 218.273 76.3002C218.427 76.8658 218.737 77.389 218.835 77.9687C218.877 78.0253 218.891 78.096 218.891 78.1808C218.99 78.704 218.891 79.2555 218.413 79.8493C217.992 80.3301 217.809 80.5988 217.317 80.7119C216.854 80.8533 216.151 80.8957 214.689 80.924C214.647 80.924 214.183 80.6553 213.439 80.2877C213.228 80.1887 212.933 80.0756 212.666 79.9342C212.525 79.8776 212.371 79.8069 212.216 79.7362C211.949 79.609 211.612 79.4817 211.303 79.3969C210.895 79.2555 210.473 79.1423 210.038 79.0575C209.602 78.9585 209.166 78.9302 208.759 78.9302C208.717 78.9302 208.689 78.9302 208.632 78.9302C208.492 78.9302 208.379 78.9302 208.253 78.9727C208.084 78.9727 207.93 79.0292 207.775 79.0716C207.466 79.1423 207.185 79.2979 206.932 79.4958C206.271 80.0614 205.428 81.1927 204.683 81.3341C204.304 81.4896 193.328 80.8674 191.797 80.8674C190.996 80.8674 189.506 80.924 188.747 80.5564C187.454 79.9059 188.958 78.2515 189.394 77.4738C191.445 73.6418 193.511 69.7957 195.577 65.9637C195.928 65.285 196.322 64.6204 196.589 63.9558C197.615 61.5379 198.219 58.8088 198.317 56.1788V55.6414C198.317 55.3869 198.317 55.1041 198.275 54.8496C198.247 53.9588 198.121 53.0679 198.05 52.1488C198.008 51.8377 197.994 51.4984 197.91 51.1873C197.84 50.7772 197.741 50.353 197.643 49.9712C197.488 49.4339 197.277 48.9107 197.137 48.4017C196.898 47.723 196.673 47.016 196.434 46.3514C196.139 45.6868 195.872 45.0363 195.549 44.3717C195.479 44.2586 195.394 44.1031 195.282 43.9193C195.127 43.6789 194.916 43.3678 194.692 43.0426C194.537 42.8305 194.397 42.6184 194.242 42.4063C194.186 42.279 194.101 42.1659 194.031 42.0669C193.792 41.6568 193.567 41.2892 193.483 40.9781C193.455 40.8791 193.427 40.7802 193.427 40.6953V40.6388C193.68 40.7236 193.919 40.8367 194.172 40.9923C194.27 41.0488 194.368 41.1054 194.481 41.1902C194.678 41.3175 194.86 41.473 195.057 41.6427C195.198 41.77 195.31 41.8972 195.436 42.0245C195.507 42.1093 195.591 42.1942 195.661 42.2649C196.561 43.283 197.235 44.5556 197.755 45.5737C198.233 46.5635 199.146 48.1472 199.146 49.2925C199.526 49.3632 199.807 49.3632 200.13 49.3632H201.086C201.493 49.3632 201.999 49.5895 202.519 49.8581C202.941 50.0844 203.362 50.3106 203.756 50.4662C203.812 50.4662 203.896 50.5651 204.079 50.5651C204.88 50.7065 205.695 50.3389 206.257 49.6743C206.651 49.2218 207.101 48.8683 207.522 48.5572C207.972 48.232 208.365 47.8926 208.717 47.5533C208.773 47.4967 208.885 47.4402 208.984 47.3412C209.082 47.2846 209.209 47.1432 209.307 47.0442C209.56 46.8039 209.855 46.6342 210.052 46.5776C210.263 46.4786 210.417 46.4504 210.417 46.4504L210.656 45.0929C210.656 45.0929 211.527 45.0363 211.752 44.8808C211.893 44.6828 211.893 42.1376 211.893 42.1376C211.893 42.1376 212.356 42.2507 212.848 42.1942C212.947 42.1942 213.045 42.1659 213.143 42.1376C213.776 42.0669 214.352 41.6286 213.678 40.059C213.579 39.8186 213.523 39.55 213.453 39.2813C213.453 39.2389 213.41 39.154 213.41 39.0975C213.354 38.8854 213.312 38.645 213.284 38.4329C213.186 37.8107 213.172 37.2168 213.172 36.7078C213.143 36.2412 213.172 35.8735 213.2 35.6614C213.298 34.9261 214.169 34.0212 214.169 34.0212L214.268 31.787V31.7587C214.268 31.7587 214.338 31.7588 214.464 31.787C214.521 31.8153 214.605 31.8295 214.703 31.8436C214.788 31.8719 214.914 31.886 215.041 31.886C215.28 31.9284 215.645 31.9426 216.01 32.0133H216.207C216.46 32.0698 216.713 32.0698 217.008 32.1123C217.739 32.1688 218.484 32.2395 219.214 32.2395C219.678 32.2395 220.072 32.2395 220.423 32.1971C220.62 32.1971 220.817 32.1688 221.013 32.1123C221.379 32.0416 221.688 31.8577 222.011 31.6315C222.18 31.5042 222.306 31.377 222.419 31.2214C222.91 30.6134 223.374 29.5246 223.023 28.7469C222.91 28.5348 222.714 28.3368 222.517 28.1813C222.138 27.8419 221.702 27.6157 221.28 27.4177C221.14 27.3329 221.013 27.2763 220.859 27.2198C220.817 27.2198 220.802 27.1773 220.774 27.1632C217.373 25.6219 213.396 25.2119 209.715 25.1129C206.215 25.0563 202.168 25.5795 202.168 25.5795C202.168 25.5795 197.263 27.1491 201.423 24.9715C205.639 22.808 215.94 23.5716 215.94 23.5716V22.4263C215.94 22.3556 215.912 22.2849 215.912 22.1859C215.912 22.1293 215.884 22.0445 215.856 21.9455C215.814 21.79 215.785 21.6203 215.757 21.4789C215.659 21.1537 215.561 20.8426 215.42 20.5173C215.392 20.4184 215.364 20.3194 215.322 20.2204C215.251 20.0083 215.167 19.8103 215.055 19.5841C214.633 18.7215 214.155 17.9014 213.621 17.1237C213.481 16.9399 213.368 16.7843 213.242 16.6147C213.087 16.4026 212.933 16.2046 212.792 16.0066C212.624 15.8087 212.455 15.639 212.3 15.441C212.104 15.1865 211.921 14.9886 211.696 14.8047C211.499 14.5643 211.288 14.3664 211.05 14.1543C210.614 13.7301 210.164 13.3483 209.715 13.0089C209.49 12.8251 209.251 12.6554 209.04 12.4999C208.899 12.3868 208.745 12.2878 208.59 12.2171C208.548 12.1747 208.492 12.1464 208.45 12.1181C207.831 11.7363 207.185 11.4394 206.468 11.2131C204.388 10.6051 202.154 10.3223 199.99 10.2516C199.034 10.2092 198.121 10.2516 197.193 10.3082C196.743 10.3506 196.336 10.3789 195.928 10.4496C195.324 10.492 194.72 10.591 194.115 10.7182C193.666 10.8172 193.202 10.9586 192.752 11.0717C192.542 11.1424 192.317 11.2131 192.092 11.2838C191.881 11.3545 191.684 11.4252 191.502 11.5101C191.431 11.5101 191.375 11.5525 191.319 11.5808C190.925 11.7363 190.56 11.9201 190.181 12.104C189.97 12.2312 189.731 12.3443 189.52 12.4716C189.225 12.6272 188.958 12.811 188.691 13.0089C188.424 13.1645 188.157 13.3483 187.932 13.5463C187.581 13.7866 187.258 14.0977 186.934 14.3664C186.569 14.7623 186.175 15.1441 185.824 15.5683C185.796 15.6249 185.726 15.6814 185.698 15.7097C185.459 16.0349 185.234 16.3036 185.037 16.6147C185.037 16.6147 185.037 16.6147 185.037 16.6571C184.883 16.8126 184.798 16.9823 184.686 17.1237C184.363 17.6752 184.081 18.1984 183.829 18.7215C183.632 19.1033 183.477 19.5275 183.323 19.8952C183.098 20.5032 182.915 21.1537 182.76 21.8182C182.606 22.3556 182.508 22.9212 182.395 23.5009C182.297 24.0807 182.255 24.6604 182.212 25.2402C182.212 25.4805 182.184 25.7209 182.156 25.9896C182.156 26.3007 182.156 26.64 182.156 26.9511C182.156 27.7005 182.198 28.4641 182.255 29.2277C182.297 29.765 182.339 30.3306 182.437 30.8821C182.564 31.7163 182.718 32.5506 182.915 33.3424C183.056 34.1484 183.28 34.9403 183.519 35.718C183.829 35.5624 185.669 34.7565 187.426 34.1484C187.553 34.106 187.679 34.0636 187.792 34.0212C187.904 33.9929 188.002 33.9646 188.101 33.9505C189.253 33.6394 188.916 34.1484 188.916 34.1484C188.705 34.3181 188.508 34.5161 188.297 34.6858C187.749 35.1524 187.229 35.6049 186.695 36.0574C185.669 36.8916 184.433 37.4996 183.21 37.9521C182.128 38.3339 181.046 38.7157 179.978 39.1258C171.673 42.1235 163.311 45.1777 154.907 48.1472C150.171 49.8298 145.449 51.4842 140.671 53.1245C135.935 54.7506 131.213 56.3484 126.477 57.9321C124.243 58.6533 121.559 59.8835 120.491 62.1459C119.985 63.2205 119.929 64.4649 120.083 65.6668C120.533 68.5938 121.826 71.6622 123.231 74.2499C123.386 74.5892 123.582 74.9003 123.765 75.2538C124.145 75.8901 124.566 76.5264 124.974 77.1627C125.395 77.8132 125.831 78.4353 126.309 79.0151C127.011 79.92 127.812 80.7402 128.642 81.4472C124.159 79.9625 118.79 69.3715 118.523 66.3597C118.439 66.9677 118.313 67.5333 118.256 68.1413C118.2 68.4241 118.158 68.7211 118.13 69.0321C118.088 69.3149 118.088 69.6119 118.088 69.923V70.3048C118.13 70.6865 118.144 71.0683 118.186 71.4925C118.327 72.6379 118.65 73.7832 119.057 74.872C119.718 76.6395 120.617 78.2939 121.601 79.8635C122.585 81.433 123.962 82.8329 125.17 84.2469C125.48 84.5863 125.775 84.9822 126.07 85.3216C126.744 86.2124 127.307 87.1598 127.447 88.3051C127.545 88.5738 127.545 88.9415 127.545 89.2808C127.503 89.3798 127.503 89.5212 127.503 89.6202C127.503 89.705 127.503 89.8323 127.461 89.8888C127.433 90.0868 127.363 90.2141 127.349 90.3837C127.307 90.4544 127.293 90.5958 127.25 90.6948C127.194 90.8787 127.124 91.0625 127.026 91.2604C126.955 91.4867 126.885 91.7271 126.829 92.0523C126.421 94.5127 126.618 96.973 127.25 99.2779C127.531 100.239 127.911 101.201 128.361 102.12C128.824 103.053 129.33 103.958 129.935 104.807C130.258 105.245 130.567 105.655 130.918 106.065C131.213 106.419 131.523 106.73 131.86 107.097C132.127 107.408 132.492 107.734 132.801 108.017C133.813 108.907 134.937 109.713 136.104 110.42C137.27 111.085 138.549 111.622 139.814 112.075C140.109 112.174 140.418 112.273 140.713 112.329C140.868 112.372 141.037 112.414 141.191 112.442C141.795 112.584 142.4 112.697 143.018 112.796C143.327 112.852 143.636 112.881 143.946 112.937C144.002 112.937 144.044 112.937 144.1 112.937C146.391 113.248 148.696 113.446 150.846 114.337C151.408 114.578 151.9 114.79 152.377 114.959C152.616 115.058 152.841 115.157 153.066 115.242C153.755 115.511 154.359 115.765 154.949 116.006C155.244 116.133 155.539 116.246 155.835 116.359C156.158 116.515 156.495 116.628 156.86 116.798C156.917 116.84 157.015 116.868 157.085 116.896C157.24 116.953 157.437 117.052 157.619 117.137C157.746 117.193 157.872 117.25 158.027 117.307C158.153 117.363 158.294 117.42 158.448 117.49C158.744 117.618 159.025 117.759 159.376 117.915C159.84 118.127 160.388 118.381 160.992 118.664C161.189 118.763 161.4 118.834 161.61 118.947C162.875 119.541 164.393 120.276 166.29 121.195C167.204 121.648 168.145 122.157 169.143 122.722C170.127 123.274 171.138 123.896 172.178 124.56C172.628 124.829 173.092 125.126 173.57 125.423C174.497 126.031 175.425 126.653 176.366 127.289C178.446 128.675 180.512 130.132 182.423 131.418C182.985 131.8 183.547 132.182 184.067 132.521C184.587 132.875 185.107 133.214 185.599 133.539C185.599 133.539 190.434 129.736 196.786 128.802L186.4 134.444C185.627 135.137 184.939 135.83 184.264 136.424C183.955 136.735 183.618 137.074 183.309 137.343C182.985 137.64 182.704 137.909 182.423 138.206C181.847 138.771 181.313 139.28 180.835 139.775C180.835 139.775 180.793 139.832 180.779 139.832C180.554 140.044 180.343 140.256 180.147 140.496L179.486 141.161C176.591 144.244 175.242 146.025 173.766 147.878C173.345 148.429 172.909 148.938 172.417 149.518C171.658 150.38 170.745 151.342 169.621 152.445C169.241 152.827 168.862 153.208 168.468 153.576C166.923 155.103 165.391 156.687 163.943 158.313C163.606 158.695 163.269 159.091 162.931 159.487C162.622 159.854 162.313 160.236 162.004 160.618C161.948 160.688 161.877 160.787 161.793 160.872C161.737 160.971 161.639 161.07 161.582 161.155C161.357 161.438 161.175 161.707 160.95 162.004L158.491 165.199L167.077 164.931C165.363 165.496 164.533 165.722 163.775 165.85C163.423 165.906 163.072 165.949 162.664 166.005C162.524 166.033 162.411 166.033 162.257 166.062C162.102 166.104 161.891 166.104 161.737 166.118C161.386 166.189 161.034 166.288 160.683 166.373C160.177 166.5 159.671 166.698 159.193 166.924C158.856 167.08 158.533 167.278 158.195 167.476C157.886 167.645 157.605 167.843 157.324 168.056C157.324 168.056 157.282 168.098 157.268 168.098L157.226 168.154C157.071 168.268 156.903 168.395 156.762 168.536C156.2 169.031 155.652 169.611 155.202 170.219L152.799 174.065L150.199 178.236L157.338 184.105L159.334 181.941H159.376L165.854 187.823L167.991 185.632L170.141 183.412L168.553 186.183L165.7 191.118L171.743 193.988L174.722 190.284C174.722 190.284 174.849 190.326 175.031 190.369C175.158 190.369 175.27 190.411 175.439 190.439C175.523 190.468 175.607 190.482 175.692 190.482C175.987 190.538 176.352 190.595 176.746 190.68C176.886 190.68 177.055 190.722 177.209 190.736C177.364 190.779 177.533 190.793 177.687 190.807C177.828 190.835 177.954 190.864 178.081 190.864C178.292 190.864 178.53 190.92 178.741 190.92C179.008 190.963 179.303 190.977 179.584 191.005C179.655 191.005 179.739 191.005 179.823 191.005C180.006 191.005 180.203 191.005 180.385 191.005C181.032 191.047 181.65 191.033 182.226 190.963C182.634 190.92 183.027 190.835 183.379 190.736C183.547 190.694 183.716 190.623 183.857 190.552C184.152 190.411 184.419 190.227 184.601 190.015C184.7 189.902 184.756 189.775 184.826 189.647C185.431 188.332 184.967 187.088 184.166 186.028C184.067 185.929 183.969 185.816 183.871 185.688C183.772 185.603 183.688 185.462 183.604 185.363C182.606 184.345 181.411 183.511 180.133 182.945C179.894 182.846 179.669 182.705 179.584 182.493C179.486 182.266 179.627 181.984 179.781 181.786C179.936 181.588 180.133 181.418 180.343 181.376C180.751 181.22 181.229 181.376 181.608 181.63C182.156 181.984 182.62 182.436 183.126 182.804C183.73 183.327 184.363 183.878 184.911 184.444C185.459 185.052 185.922 185.688 186.274 186.424C186.752 187.399 186.934 188.545 186.695 189.676C186.442 190.793 185.866 191.542 185.135 191.966C184.77 192.207 184.363 192.405 183.941 192.476C183.533 192.617 183.098 192.716 182.676 192.772C181.664 192.914 180.638 192.985 179.584 192.928C179.416 192.928 179.219 192.886 179.05 192.871C179.008 192.871 178.98 192.871 178.952 192.871C178.713 192.843 178.488 192.829 178.292 192.787C177.996 192.73 177.701 192.688 177.434 192.617C177.336 192.574 177.252 192.574 177.181 192.532C176.928 192.476 176.704 192.405 176.479 192.306C176.437 192.278 176.394 192.278 176.366 192.263C176.24 192.207 176.141 192.164 176.029 192.108C175.832 192.023 175.664 191.938 175.467 191.839L172.361 195.94L163.465 191.769L165.025 189.478L159.531 184.232L158.224 185.547C158.097 185.674 157.872 186.013 157.661 186.013C157.31 186.013 156.172 184.967 155.891 184.713C154.5 183.525 153.066 182.351 151.661 181.206C150.972 180.64 150.27 180.06 149.567 179.509C149.356 179.353 149.117 179.156 148.963 178.958C148.696 178.618 148.555 178.265 148.836 177.756C149.595 176.285 150.494 174.814 151.352 173.372H151.38C151.436 173.259 151.506 173.16 151.562 173.047C152.56 171.52 153.53 170.021 154.5 168.48C156.34 165.581 157.957 162.626 160.149 159.967C161.821 157.931 163.62 155.98 165.461 154.085C167.007 152.501 168.468 150.79 169.944 149.108C171.153 147.694 172.333 146.266 173.542 144.866C174.736 143.452 175.959 142.066 177.224 140.68C178.081 139.789 178.938 138.884 179.809 137.994C180.723 137.089 181.65 136.198 182.606 135.321C183.309 134.713 183.14 134.303 182.564 133.695C182.156 133.285 181.721 132.903 181.271 132.521C181.004 132.309 180.723 132.097 180.456 131.899C180.175 131.701 179.894 131.503 179.613 131.334C175.172 128.435 170.59 125.692 165.897 123.231C165.011 122.765 164.126 122.326 163.255 121.902C162.636 121.591 161.99 121.294 161.357 120.983C159.84 120.262 158.308 119.555 156.776 118.89C155.301 118.197 153.797 117.547 152.321 116.868C151.59 116.543 150.874 116.232 150.143 115.907C150.073 115.864 150.002 115.836 149.946 115.822C149.511 115.61 149.075 115.426 148.639 115.242C148.639 115.214 148.597 115.2 148.583 115.2C148.583 115.2 148.541 115.2 148.527 115.171C148.485 115.143 148.457 115.171 148.457 115.171C148.26 115.115 148.091 115.143 147.923 115.171C147.824 115.242 147.726 115.27 147.627 115.327C147.009 115.808 145.632 116.6 144.17 117.406C143.215 117.957 142.217 118.48 141.388 118.89C141.219 118.989 141.065 119.074 140.924 119.145C140.221 119.512 139.701 119.753 139.547 119.809C138.718 120.007 119.071 119.569 117.09 119.569C115.108 119.569 111.426 120.644 110.668 124.094C110.007 127.417 121.137 135.547 122.318 136.509C122.416 136.565 122.472 136.565 122.472 136.565C122.472 136.565 127.475 140.468 130.047 141.599C132.647 142.702 124.032 141.755 119.929 138.276H119.886C113.745 141.755 99.9169 148.019 99.411 148.231C98.5818 148.57 97.7527 148.825 96.9657 149.193C94.2675 150.338 91.6958 151.794 89.2786 153.435C87.6906 154.566 86.1588 155.81 84.7394 157.125C83.6573 158.115 82.6034 159.204 81.6337 160.321C80.6781 161.424 79.7787 162.583 78.9355 163.785C78.8231 163.927 78.6966 164.096 78.6123 164.252C78.1063 164.931 77.6285 165.652 77.1648 166.401C76.954 166.712 76.7572 167.037 76.5324 167.348C76.434 167.504 76.3497 167.645 76.2373 167.801C75.6611 168.734 75.0146 169.653 74.3541 170.516C74.1012 170.841 73.8342 171.18 73.5531 171.477C73.0612 172.015 72.5132 172.594 71.8948 173.061C71.5575 173.33 71.2484 173.57 70.8408 173.811C70.8408 173.811 70.7846 173.839 70.7846 173.853C70.4192 174.122 69.9836 174.348 69.5479 174.546L69.5058 174.588C68.2691 175.196 66.9341 175.55 65.5709 175.833C65.332 175.875 65.1071 175.932 64.8682 175.974C64.3764 176.073 63.8845 176.172 63.3926 176.229C62.8867 176.313 62.3949 176.384 61.8889 176.483C61.0317 176.61 60.1464 176.738 59.3172 176.921C59.0783 176.992 58.8535 177.063 58.5864 177.119C57.8838 177.275 57.2092 177.473 56.5768 177.685C56.1412 177.826 55.7196 177.954 55.3402 178.137C54.9748 178.279 54.5813 178.434 54.23 178.604C53.9348 178.745 53.6678 178.859 53.3727 179.014C53.0073 179.17 52.5998 179.382 52.2766 179.58C51.9112 179.778 51.5739 180.004 51.2226 180.188C50.6745 180.513 50.1545 180.852 49.6486 181.262C48.4963 182.083 47.4142 182.973 46.3602 183.977C45.8261 184.444 45.3202 184.953 44.8284 185.504C44.3646 186.013 43.8868 186.537 43.4512 187.046L43.3528 187.145C41.5259 189.209 39.8816 191.514 38.3217 193.904C38.0828 194.285 37.8299 194.639 37.605 195.035C37.0569 195.883 36.5229 196.746 36.017 197.623C35.6516 198.273 35.2581 198.881 34.9068 199.517C34.8506 199.63 34.7803 199.758 34.682 199.885C34.6398 200.026 34.5414 200.139 34.4852 200.267C34.3447 200.521 34.2182 200.79 34.0777 201.002C34.0215 201.158 33.9231 201.242 33.8247 201.398C33.4734 202.063 32.8691 203.151 32.4475 203.858C31.9275 204.806 31.3232 205.866 30.8173 206.828C30.0163 208.228 29.0466 209.67 28.1332 211.084C27.9786 211.324 27.824 211.621 27.6694 211.876C27.2057 212.668 26.77 213.502 26.2079 214.209C25.8706 214.69 25.5333 215.185 25.1679 215.651C25.0274 215.821 24.8869 216.019 24.7604 216.217C24.3529 216.74 23.9453 217.277 23.5378 217.8C23.074 218.366 22.6243 218.946 22.1325 219.511C21.8936 219.808 21.6687 220.077 21.4017 220.36C21.1628 220.629 20.9098 220.897 20.685 221.18H20.6428C19.9683 221.859 19.2656 222.537 18.5348 223.174C18.0851 223.598 17.5933 223.994 17.1295 224.376C17.1014 224.418 17.0733 224.446 17.0311 224.46C16.1036 225.224 15.148 225.931 14.1362 226.61C13.2087 227.175 12.2671 227.628 11.4099 228.179C10.8618 228.391 10.4261 228.618 9.90618 228.844C8.86624 229.282 7.8263 229.622 6.80042 229.947C5.46537 230.3 4.13031 230.555 2.86553 230.611C2.07855 230.682 1.20725 230.527 0.448376 230.795C-0.619667 231.219 0.490536 231.884 0.996451 232.167C1.09482 232.223 1.24941 232.322 1.38994 232.421C1.50237 232.52 1.65695 232.577 1.75532 232.619C2.26124 232.973 2.86553 233.284 3.42765 233.567C4.59407 234.118 5.8167 234.571 7.02527 234.924C7.96684 235.249 8.86624 235.462 9.82186 235.589C10.4824 235.744 11.1429 235.914 11.8315 235.971C12.759 236.013 13.7005 236.197 14.5718 236.253C17.1717 236.352 19.7575 236.013 22.2589 235.504C23.1864 235.292 24.0577 235.009 24.9009 234.67C26.5311 234.217 28.077 233.623 29.5666 232.817C30.733 232.153 31.8432 231.432 32.9675 230.654C33.9231 229.904 34.9068 229.084 35.6938 228.25C36.3543 227.501 37.0288 226.864 37.6331 226.087C37.6331 226.398 37.605 226.709 37.591 226.992C37.591 227.175 37.5629 227.331 37.5348 227.501C37.5348 227.741 37.4926 227.981 37.4504 228.208C37.4223 228.462 37.3942 228.731 37.324 228.971C37.2677 229.226 37.2256 229.48 37.1553 229.735C37.0991 230.032 37.0288 230.3 36.9445 230.597C36.8743 230.908 36.7759 231.205 36.6635 231.488C36.4667 232.082 36.2278 232.662 35.9749 233.213C35.8203 233.581 35.6516 233.92 35.4689 234.26C35.3425 234.514 35.216 234.755 35.0895 234.995C34.949 235.221 34.8084 235.447 34.6539 235.674C34.4993 235.942 34.3166 236.211 34.1198 236.48C33.9512 236.72 33.7826 236.96 33.5858 237.201C33.4312 237.413 33.2626 237.625 33.0939 237.837C32.6583 238.346 32.2227 238.841 31.7729 239.308C31.4216 239.633 31.0843 239.944 30.719 240.241C30.3536 240.552 30.0022 240.849 29.6369 241.103C29.2996 241.358 28.9483 241.612 28.5829 241.839C28.5267 241.839 28.5126 241.881 28.4704 241.895C28.0629 242.15 27.6554 242.39 27.2478 242.602C26.9246 242.786 26.5873 242.956 26.2641 243.111C25.8144 243.309 25.3787 243.479 24.915 243.663C24.5074 243.804 24.0577 243.931 23.6221 244.073C23.2146 244.2 22.7789 244.299 22.3433 244.356C22.4697 244.398 22.5681 244.398 22.7086 244.398C23.8188 244.497 24.915 244.497 25.983 244.441C26.0955 244.441 26.236 244.398 26.3484 244.398C26.6295 244.356 26.9527 244.342 27.2478 244.257C27.3462 244.228 27.4586 244.214 27.571 244.186C27.5991 244.186 27.6132 244.186 27.6273 244.186C28.6391 243.946 29.7914 243.734 30.8173 243.338C31.3232 243.125 31.7729 242.899 32.307 242.673C32.588 242.517 32.8691 242.362 33.1642 242.206C33.4312 242.051 33.7263 241.867 34.0215 241.697C34.0777 241.697 34.1198 241.655 34.176 241.612C34.3587 241.514 34.5555 241.4 34.7522 241.273C35.1598 240.962 35.5814 240.665 35.9186 240.354C36.3824 239.986 36.8462 239.689 37.2537 239.279C37.4926 239.096 37.7034 238.912 37.9001 238.714C38.0126 238.615 38.1109 238.53 38.2093 238.431L38.5325 238.106C38.5325 238.106 38.645 238.007 38.7012 237.964C38.7574 237.908 38.8277 237.865 38.8839 237.823C39.0103 237.724 39.1368 237.625 39.2633 237.455C39.7271 236.989 40.1908 236.48 40.6124 235.971C40.7248 235.857 40.8232 235.744 40.9216 235.603C41.3151 235.165 41.6805 234.684 42.0318 234.217C42.0739 234.189 42.088 234.161 42.088 234.146C42.1302 234.118 42.1302 234.104 42.1302 234.076C42.5939 233.468 43.0296 232.846 43.4512 232.209C43.4933 232.167 43.5074 232.153 43.5355 232.096C43.943 231.46 44.3506 230.838 44.7159 230.187C45.0532 229.65 45.3624 229.098 45.6435 228.533C45.8121 228.264 45.9526 227.996 46.0932 227.713C46.4023 227.147 46.6974 226.553 46.9645 225.959C47.0628 225.733 47.119 225.507 47.3017 225.224C47.3298 224.984 47.5125 224.743 47.5406 224.559C47.8779 223.81 48.2152 222.99 48.5806 222.226C48.7492 221.661 48.9881 220.982 49.2551 220.374C49.4238 219.639 49.7189 218.804 49.9297 218.069C49.9859 217.815 50.0702 217.56 50.1686 217.306C50.267 216.938 50.4215 216.5 50.548 216.033C50.8853 214.916 51.2085 213.841 51.5458 212.738C51.602 212.498 51.6723 212.258 51.7566 212.031C52.122 210.688 52.5295 209.345 52.9652 208.03C53.0635 207.676 53.1479 207.365 53.2743 207.054C53.3446 206.757 53.4289 206.488 53.5273 206.191C53.5273 206.149 53.5554 206.092 53.5835 206.078C53.7943 205.4 53.9911 204.721 54.244 204.099C54.2862 203.957 54.3424 203.844 54.3845 203.703C54.511 203.335 54.6375 202.982 54.764 202.628C54.9045 202.317 55.0169 202.006 55.1294 201.695C55.1575 201.638 55.1715 201.582 55.1996 201.539C55.2277 201.44 55.2558 201.355 55.298 201.257C55.4245 200.931 55.551 200.592 55.7196 200.267C55.9726 199.616 56.2677 199.008 56.5347 198.386C56.7876 197.778 57.0968 197.17 57.3919 196.562C57.5184 196.322 57.6449 196.081 57.7995 195.827C57.9681 195.473 58.1508 195.148 58.3335 194.809C58.6708 194.243 59.008 193.663 59.3734 193.112C59.7107 192.546 60.1042 191.995 60.4696 191.486C61.6219 189.888 62.9148 188.431 64.4185 187.074C64.9244 186.607 65.4585 186.141 66.0487 185.702C65.5849 186.409 65.1774 187.116 64.8261 187.852C62.2824 192.9 61.6782 198.584 61.8749 204.438C61.903 205.202 61.9311 205.923 62.0014 206.644V206.7C62.0435 207.28 62.0716 207.818 62.1419 208.369C62.1841 208.737 62.1981 209.133 62.2262 209.472C62.2262 209.642 62.2543 209.811 62.2543 209.924C62.3105 210.335 62.3527 210.745 62.4089 211.14C62.4089 211.282 62.4511 211.381 62.4511 211.508C62.4932 211.904 62.5354 212.3 62.5916 212.682C62.5916 212.752 62.6197 212.823 62.6197 212.88C62.6619 213.092 62.69 213.318 62.7181 213.53C62.8586 214.704 62.9991 215.892 63.1678 217.079C63.3224 218.225 63.4629 219.37 63.6034 220.515C63.6597 220.982 63.7299 221.477 63.7721 221.944C63.7721 221.944 63.7721 221.986 63.7721 222C63.7721 222.141 63.8142 222.297 63.8142 222.453C63.8705 223.315 63.9688 224.22 64.011 225.068C64.0391 225.677 64.0672 226.27 64.1094 226.907C64.1656 227.897 64.1656 228.9 64.1375 229.904C64.1375 230.767 64.0813 231.601 64.0391 232.464C63.9407 233.934 63.7861 235.391 63.5613 236.833C63.5191 236.932 63.5191 237.031 63.5051 237.13C63.477 237.187 63.477 237.271 63.4629 237.328C63.4629 237.37 63.4629 237.385 63.4629 237.413C63.3645 238.007 63.2381 238.601 63.1116 239.209C63.1116 239.209 63.1116 239.237 63.0694 239.265C63.0132 239.576 62.9289 239.873 62.8586 240.184C62.6619 240.92 62.4651 241.627 62.2122 242.334C62.1278 242.645 62.0998 243.041 61.903 243.309C61.6641 243.875 61.3409 244.483 61.0739 245.105C61.0036 245.218 60.9333 245.36 60.8912 245.487C60.6944 245.883 60.4977 246.349 60.2307 246.731C58.7972 249.347 56.7876 251.44 54.1878 253.094C52.656 254.056 50.9837 254.862 49.3535 255.682C48.8335 255.965 48.3136 256.233 47.8076 256.544C47.4844 256.742 47.1471 256.94 46.838 257.152C46.5288 257.365 46.2196 257.577 45.9245 257.817C45.5732 258.072 45.264 258.369 44.9408 258.68C44.8424 258.793 44.7581 258.892 44.6316 258.991C44.4349 259.189 44.196 259.387 44.0273 259.641C43.929 259.768 43.8306 259.896 43.7744 260.023C43.5776 260.306 43.3949 260.603 43.2263 260.885C42.9031 261.493 42.6642 262.13 42.4674 262.766C42.2707 263.431 42.1161 264.109 42.0037 264.774C41.9615 265.057 41.9053 265.325 41.8631 265.594C41.8069 265.877 41.7507 266.146 41.7226 266.414C41.6523 266.909 41.568 267.376 41.5399 267.857C40.4438 275.931 38.3498 283.877 35.5252 291.471C35.1317 292.588 34.7241 293.648 34.2744 294.737C33.3188 297.042 32.307 299.304 31.253 301.552C30.199 303.744 29.0747 305.964 27.7959 308.114C27.571 308.453 27.3321 308.891 27.0651 309.287C26.6716 309.556 26.3906 309.881 25.9549 310.022C23.8188 310.843 21.7249 307.718 19.4061 308.015C17.5652 308.382 16.9047 310.701 16.5814 312.638C16.1739 316.004 15.7242 319.383 15.2745 322.734C15.0496 324.431 14.8248 326.128 14.614 327.782C14.614 327.782 14.614 327.825 14.614 327.839C14.5297 328.56 14.3189 329.423 14.1502 330.299C14.1081 330.441 14.08 330.596 14.0659 330.738C14.0097 331.134 13.9676 331.501 13.9535 331.883C13.9535 332.067 13.9535 332.265 13.9957 332.449C13.9535 332.576 13.9957 332.661 14.0238 332.788V332.816C14.4735 332.816 14.881 332.774 15.3307 332.717C15.7664 332.661 16.2161 332.519 16.6658 332.42C17.1295 332.307 17.5933 332.166 18.043 332.01C18.324 331.926 18.6051 331.841 18.8581 331.742C19.2094 331.6 19.5607 331.487 19.9121 331.346C19.9402 331.346 19.9683 331.303 19.9964 331.303C20.3196 331.176 20.6288 331.049 20.9098 330.936C21.0785 330.879 21.1487 330.879 21.3033 330.794C21.3033 330.794 21.3455 330.766 21.3595 330.738C21.4017 330.709 21.4298 330.709 21.4579 330.709C28.0207 327.797 33.6842 322.268 37.7456 316.06C37.9001 315.777 38.139 315.551 38.2655 315.268C43.409 307.279 46.4585 298.159 49.761 289.222C50.0702 288.487 50.3653 287.653 50.6323 286.875C50.6745 286.776 50.7307 286.705 50.7729 286.564C50.8291 286.437 50.8712 286.309 50.9696 286.21C52.5717 281.898 54.511 277.557 57.5746 274.135C59.8512 271.618 62.69 269.765 65.5709 267.927C66.6108 267.362 67.6367 266.683 68.761 266.075C69.2107 265.863 69.5901 265.566 70.0257 265.311C70.8127 264.859 71.5857 264.435 72.3867 263.982C72.7942 263.756 73.1877 263.516 73.5531 263.318C73.9325 263.091 74.3541 262.851 74.7617 262.653C74.9584 262.497 75.1411 262.356 75.366 262.257C75.5908 262.13 75.8157 262.045 76.0265 261.918C76.8556 261.451 77.5161 261.013 78.3171 260.56C78.7528 260.277 79.2306 260.051 79.6522 259.726C79.9614 259.585 80.2003 259.457 80.4673 259.316C80.9872 259.019 81.4932 258.75 81.9991 258.411C84.5849 256.94 87.1425 255.456 89.7424 253.971C91.0072 253.222 92.3141 252.5 93.593 251.765C94.1551 251.454 94.7313 251.1 95.2934 250.775C94.8858 251.256 94.4783 251.765 94.0286 252.232C93.86 252.444 93.6632 252.67 93.3962 252.896C93.0449 253.264 92.6655 253.646 92.286 254.042C91.8785 254.452 91.4569 254.848 91.0212 255.258C90.8947 255.357 90.7964 255.456 90.6839 255.526C88.6181 257.407 86.3415 259.019 83.9665 260.433C83.8119 260.532 83.6011 260.659 83.4184 260.744C82.8142 261.112 82.2239 261.451 81.5775 261.776C81.3526 261.918 81.1278 262.003 80.917 262.13C80.397 262.356 79.8911 262.596 79.4273 262.823C78.5701 263.19 77.6566 263.629 76.7572 263.926C76.1951 264.18 75.647 264.293 75.0849 264.534V264.901C74.9865 266.075 74.7055 267.263 74.5368 268.45C74.326 270.275 74.1012 272.056 73.7639 273.852C73.3704 275.294 72.8364 276.765 72.4288 278.165C72.0354 279.508 71.684 280.865 71.1219 282.195C70.4473 283.976 69.5901 285.631 68.7188 287.37C68.2691 288.218 67.8897 289.222 67.3837 290.099C65.8801 292.616 64.2499 295.105 62.4792 297.424C62.1419 297.876 61.7203 298.23 61.383 298.668C60.9895 298.965 60.6382 299.347 60.2728 299.615C59.514 300.082 58.7832 300.393 57.8838 300.393C57.2233 300.308 56.619 300.181 56.0428 299.941C54.9888 299.502 53.9489 299.064 52.9371 299.347C52.5998 299.474 52.2906 299.672 52.0377 299.884L51.6723 300.28C51.5739 300.435 51.4755 300.591 51.3772 300.747C51.2928 300.845 51.2928 301.001 51.2366 301.058C50.9134 301.68 50.7729 302.245 50.6323 302.853C49.6767 306.827 49.1427 310.899 48.9038 315C48.7492 317.799 48.6649 320.543 48.8476 323.286C50.5761 322.805 52.2906 322.027 53.8927 321.292C65.613 315.834 75.0287 305.597 79.343 293.365C79.4836 293.153 79.5679 293.012 79.6381 292.8C80.6078 289.958 81.4088 286.875 82.2099 283.906C82.8704 281.389 83.559 278.886 84.4584 276.581C84.5989 276.213 84.7535 275.846 84.9081 275.478C84.9643 275.28 85.1329 275.026 85.1891 274.814C85.5545 273.965 85.9199 273.173 86.2994 272.424C86.4539 272.212 86.6226 271.985 86.7491 271.745C86.8615 271.505 86.988 271.293 87.1566 271.081C87.4377 270.628 87.6906 270.218 88.0138 269.765C88.2387 269.44 88.4635 269.129 88.7587 268.832C89.0678 268.479 89.3629 268.125 89.63 267.772C89.9251 267.447 90.2342 267.107 90.5856 266.81C90.6418 266.725 90.7261 266.655 90.7964 266.584C91.3585 266.117 91.9206 265.665 92.5249 265.255C93.087 264.831 93.7335 264.449 94.3378 264.081C94.9702 263.714 95.6026 263.346 96.235 263.035C96.8673 262.681 97.5419 262.37 98.1743 262.031C98.3992 261.96 98.6381 261.819 98.877 261.72C100.071 261.154 101.28 260.574 102.461 259.966C102.98 259.712 103.529 259.429 104.02 259.132C104.779 258.722 105.51 258.27 106.213 257.789C106.325 257.718 106.424 257.647 106.522 257.591C106.845 257.407 107.154 257.181 107.449 256.94C108.11 256.474 108.756 255.993 109.389 255.484C109.473 255.427 109.543 255.343 109.6 255.328C110.401 254.664 111.174 254.013 111.904 253.306C111.932 253.25 111.989 253.207 112.045 253.151C112.804 252.416 113.549 251.68 114.279 250.888C116.598 248.386 118.636 245.572 120.477 242.602C120.631 242.348 120.8 242.093 120.955 241.825C120.983 241.825 120.983 241.796 120.997 241.782C121.32 241.245 121.657 240.693 121.966 240.114C122.43 239.265 122.936 238.431 123.372 237.554C123.709 236.89 124.06 236.169 124.412 235.504C124.496 235.32 124.566 235.15 124.665 234.981C124.918 234.443 125.17 233.906 125.423 233.411C125.705 232.761 126 232.139 126.281 231.474C126.688 230.597 127.054 229.678 127.447 228.802C127.686 228.236 127.897 227.684 128.079 227.147C128.726 225.309 129.119 223.626 129.569 221.717C129.696 221.265 129.808 220.812 129.92 220.317C130.314 218.762 130.792 216.995 131.494 214.902C158.631 217.009 193.483 213.587 213.649 193.72C214.394 193.041 213.186 191.33 212.806 190.722C212.413 190.114 212.005 189.548 211.598 188.969C211.176 188.417 210.768 187.852 210.333 187.258V187.23C209.897 186.622 209.518 185.957 209.195 185.25C208.942 184.727 208.731 184.218 208.534 183.68C208.084 182.408 207.831 181.064 207.803 179.749C207.719 177.869 208.056 175.946 207.859 174.065C209.49 178.434 211.584 182.719 214.76 186.169L214.844 186.268C217.331 188.955 221.013 191.189 224.625 191.641C228.124 192.009 231.539 190.963 234.856 189.902C239.128 188.559 243.4 187.215 247.672 185.886C248.572 185.575 249.485 185.278 250.427 185.01C251.185 184.755 251.958 184.515 252.717 184.288C254.038 183.836 255.303 183.44 256.61 183.03C256.821 182.973 257.06 182.903 257.271 182.832C258.339 182.493 259.407 182.167 260.475 181.828H260.517C260.854 181.729 261.177 181.602 261.515 181.489C261.739 181.432 261.95 181.376 262.161 181.291C263.341 180.923 264.55 180.541 265.745 180.145C266.391 179.962 267.052 179.778 267.726 179.537C267.276 182.761 266.574 185.971 265.632 189.11C265.576 189.28 265.534 189.478 265.478 189.662C265.449 189.69 265.449 189.732 265.435 189.789C265.295 190.256 265.154 190.736 265 191.203C264.677 192.136 264.367 193.041 264.016 193.918C263.763 194.653 263.468 195.388 263.159 196.095C262.836 196.901 262.498 197.665 262.105 198.457C261.725 199.305 261.318 200.168 260.854 200.988C260.418 201.822 259.983 202.656 259.491 203.477C257.847 206.333 256.006 209.09 253.94 211.65C253.504 212.215 253.012 212.795 252.506 213.36L252.478 213.403C251.776 214.237 251.073 215.043 250.314 215.807C249.33 216.853 248.276 217.871 247.194 218.875C247.11 217.504 247.012 216.075 246.927 214.704C246.857 213.827 246.787 212.95 246.731 212.088C246.267 212.201 245.817 212.342 245.367 212.47C244.51 212.738 243.667 213.035 242.852 213.403V213.431H242.81C242.81 213.431 242.754 213.474 242.711 213.474C242.009 213.799 241.376 214.124 240.716 214.506C240.055 214.888 239.353 215.326 238.734 215.793C238.58 215.892 238.439 215.991 238.285 216.104C238.13 216.217 237.99 216.316 237.835 216.443C237.708 216.514 237.568 216.613 237.427 216.726C237.371 216.754 237.329 216.797 237.273 216.839L237.189 216.924C237.09 216.994 237.006 217.079 236.907 217.136C236.865 217.178 236.851 217.192 236.809 217.221C236.697 217.306 236.584 217.405 236.472 217.504C236.331 217.631 236.177 217.758 236.036 217.885C235.615 218.239 235.207 218.621 234.842 219.073C234.406 219.483 234.041 219.893 233.675 220.346C233.015 221.138 232.396 221.972 231.806 222.849C231.525 223.301 231.258 223.739 231.019 224.178C230.865 224.432 230.71 224.701 230.569 224.955C230.373 225.337 230.204 225.719 230.007 226.101C229.15 228.01 228.518 230.018 228.166 232.096H229.122C229.319 232.096 229.487 232.096 229.67 232.068C230.415 232.068 231.146 232.04 231.919 231.969C232.846 231.941 233.76 231.842 234.687 231.743V231.7H234.729C234.996 231.7 235.263 231.672 235.544 231.601C236.064 231.573 236.57 231.474 237.034 231.432C237.835 231.333 238.594 231.191 239.381 231.036C239.774 230.979 240.126 230.908 240.505 230.809C241.981 230.527 243.484 230.145 244.946 229.749C245.522 229.593 246.098 229.452 246.618 229.282C247.883 228.915 249.162 228.547 250.413 228.137C250.413 228.165 250.37 228.179 250.37 228.208C250.525 228.165 250.736 228.137 250.89 228.066C251.452 227.84 251.958 227.684 252.408 227.458C252.928 227.274 253.434 227.076 253.94 226.878C255.106 226.426 256.287 226.002 257.467 225.549C258.718 225.026 259.941 224.475 261.177 223.951C261.627 223.711 262.063 223.57 262.526 223.343L262.583 223.287C267.628 220.996 272.574 218.522 277.493 215.892C279.952 214.69 282.398 213.375 284.323 211.423C286.824 208.864 288.23 205.442 289.565 202.105C292.895 193.607 296.24 185.165 299.655 176.667C301.426 172.184 302.845 166.274 299.121 163.149C297.055 161.509 294.23 161.452 291.56 161.452H286.824C285.04 161.452 283.269 161.452 281.484 161.509H277.971C276.439 161.509 274.907 161.537 273.39 161.537H267.319C265.731 161.565 264.128 161.565 262.54 161.579C256.652 161.579 250.75 161.636 244.833 161.636C250.764 161.636 255.219 154.99 254.867 148.966C254.811 148.203 254.713 147.439 254.586 146.704C254.432 145.969 254.221 145.233 253.982 144.526C253.757 143.819 253.476 143.112 253.153 142.405C252.197 140.341 250.975 138.361 249.569 136.481C248.628 135.208 247.63 133.992 246.59 132.818C255.219 138.432 260.924 148.288 261.529 158.596C262.217 158.299 262.892 158.016 263.496 157.663C263.847 157.45 264.199 157.238 264.522 156.998H264.55C264.789 156.8 265.014 156.63 265.253 156.432C270.523 152.077 272.364 143.763 272.364 136.608V136.141C272.392 134.784 272.364 133.455 272.307 132.097C272.307 131.065 272.251 130.061 272.237 129.043C272.195 127.374 272.181 125.734 272.237 124.108C272.195 123.641 272.237 123.161 272.279 122.694C272.279 122.411 272.321 122.114 272.336 121.817C272.336 121.52 272.392 121.223 272.42 120.955C272.504 119.795 272.673 118.692 272.94 117.575C272.968 117.278 273.038 116.981 273.094 116.713C273.137 116.515 273.179 116.317 273.249 116.119C273.249 116.048 273.305 115.963 273.305 115.878C273.671 114.761 274.078 113.729 274.472 112.654C274.612 112.428 274.711 112.174 274.823 111.933C274.879 111.792 274.921 111.679 274.978 111.566C275.034 111.438 275.132 111.325 275.216 111.226C275.554 110.873 275.779 110.915 276.144 111.014C276.144 111.014 276.2 111.014 276.2 111.057C276.341 111.113 276.453 111.127 276.636 111.17C277.057 111.283 277.479 111.396 277.901 111.495C278.322 111.608 278.744 111.707 279.151 111.792C279.362 111.848 279.559 111.891 279.77 111.947C280.613 112.145 281.428 112.343 282.257 112.485C282.412 112.527 282.552 112.584 282.707 112.584C282.707 112.584 282.735 112.626 282.763 112.584C282.805 112.626 282.861 112.626 282.918 112.626C283.072 112.669 283.241 112.683 283.409 112.725C284.098 112.881 284.787 113.022 285.489 113.135C285.953 113.234 286.445 113.333 286.923 113.39C286.979 113.39 287.049 113.432 287.12 113.432C287.274 113.46 287.443 113.489 287.625 113.503C288.202 113.602 288.792 113.701 289.396 113.757C290.239 113.899 291.054 113.998 291.912 114.125C292.952 114.266 294.02 114.365 295.088 114.479C295.284 114.521 295.453 114.535 295.65 114.535C296.549 114.634 297.477 114.705 298.348 114.775C299.093 114.832 299.852 114.874 300.582 114.903C303.056 115.044 305.529 115.087 308.017 115.044C311.347 115.044 314.594 114.705 317.938 114.266C318.472 115.723 319.076 117.292 319.737 118.805C320.397 120.318 321.17 121.803 322.028 123.132C322.477 123.797 322.941 124.447 323.405 125.055C323.897 125.663 324.403 126.201 324.979 126.724C325.344 127.021 325.696 127.289 326.061 127.544C326.159 127.629 326.286 127.7 326.384 127.756C326.595 127.898 326.82 128.053 327.045 128.166C327.284 128.308 327.522 128.435 327.789 128.548C328 128.647 328.197 128.746 328.436 128.802C328.562 128.859 328.703 128.901 328.843 128.958C328.9 128.958 328.942 128.986 328.998 129C329.04 129 329.11 129.029 329.153 129.057C329.321 129.099 329.518 129.156 329.715 129.184C329.855 129.241 330.01 129.269 330.164 129.283C330.474 129.34 330.797 129.382 331.134 129.396C331.584 129.396 331.963 129.326 332.385 129.326C332.792 129.269 333.144 129.269 333.537 129.184C333.636 129.184 333.748 129.156 333.889 129.085C333.987 129.029 334.071 128.958 334.212 128.916C334.394 128.859 334.577 128.788 334.774 128.689C335.027 128.633 335.322 128.506 335.575 128.378C336.418 127.926 337.247 127.374 337.978 126.71C338.259 126.455 338.54 126.187 338.779 125.918C339.341 125.324 339.847 124.659 340.297 123.967C340.437 123.74 340.564 123.514 340.718 123.288C340.718 123.288 340.761 123.245 340.761 123.217C340.873 123.019 340.985 122.821 341.084 122.609C341.196 122.411 341.295 122.213 341.379 122.029C341.646 121.435 341.857 120.827 342.053 120.205C342.503 118.89 342.869 117.448 342.869 116.105C342.869 114.761 342.812 113.489 342.658 112.301M179.725 62.9943C175.523 69.7109 172.755 77.2617 168.651 84.0065C168.117 84.8691 165.77 82.8471 164.815 82.0835L163.817 81.2916C164.154 80.9381 164.463 80.6271 164.758 80.3725C165.025 80.0332 165.32 79.8069 165.587 79.5665C165.826 79.2696 166.093 79.0292 166.304 78.8313C167.639 77.5162 168.468 76.7385 169.241 75.975C169.396 75.8618 169.508 75.7204 169.649 75.5649C170.408 74.7589 171.209 73.8822 172.474 72.3692C174.666 69.7109 177.617 65.3698 179.599 62.9519C179.655 62.8529 179.795 62.9519 179.739 62.9943M136.568 171.223C136.329 171.364 136.104 171.477 135.907 171.591C135.668 171.704 135.471 171.831 135.289 171.944C135.05 172.071 134.783 172.199 134.502 172.312C132.661 173.174 130.623 173.796 128.628 173.796C127.517 173.754 126.449 173.542 125.409 173.203C125.17 173.132 124.96 173.047 124.735 172.962C124.679 172.92 124.608 172.906 124.552 172.877C124.271 172.764 123.99 172.637 123.709 172.51C123.498 172.382 123.273 172.269 123.063 172.142C122.655 171.916 122.261 171.675 121.882 171.421C121.615 171.223 121.348 171.025 121.095 170.827C119.043 169.088 117.006 167.023 115.671 164.676C115.305 164.011 114.94 163.389 114.602 162.725C114.335 162.244 114.068 161.749 113.83 161.24C113.534 160.688 113.267 160.151 113.014 159.586C112.832 159.204 112.663 158.836 112.509 158.468C112.256 157.86 112.003 157.252 111.778 156.63C111.778 156.63 111.768 156.621 111.75 156.602C111.595 156.15 111.426 155.711 111.286 155.273C111.033 154.509 110.808 153.732 110.597 152.94C110.499 152.629 110.401 152.275 110.33 151.922C110.302 151.766 110.26 151.596 110.218 151.441C110.19 151.342 110.176 151.229 110.148 151.13L110.176 151.158L111.679 154.622C111.96 155.188 112.284 155.739 112.607 156.291C113.563 158.002 114.631 159.741 115.783 161.381C115.895 161.551 116.036 161.749 116.162 161.933C116.823 162.88 117.526 163.771 118.256 164.634C118.411 164.86 118.594 165.086 118.79 165.27C118.987 165.468 119.17 165.666 119.367 165.878C119.437 165.949 119.507 166.033 119.577 166.132L119.802 166.359C119.957 166.528 120.097 166.684 120.266 166.825C120.561 167.122 120.87 167.405 121.193 167.688C121.503 167.942 121.84 168.197 122.149 168.423C122.486 168.664 122.81 168.876 123.161 169.116C123.161 169.116 123.175 169.116 123.203 169.116C123.54 169.314 123.878 169.498 124.243 169.667C124.538 169.823 124.833 169.964 125.142 170.078C125.409 170.191 125.705 170.318 125.986 170.403C126.084 170.445 126.182 170.459 126.295 170.488C126.534 170.544 126.758 170.629 126.997 170.671C127.307 170.742 127.644 170.799 127.953 170.841C131.888 171.393 135.738 169.752 139.294 167.928L140.179 168.833C139.406 169.625 137.945 170.516 136.596 171.251M214.141 133.242C214.099 133.582 214.099 133.893 214.043 134.147C213.846 135.321 213.509 136.452 213.087 137.541C212.708 138.616 212.202 139.69 211.584 140.666C208.098 146.676 201.845 151.215 196.125 155.075C190.701 158.751 184.939 161.933 179.275 165.199C177.35 166.288 175.411 167.405 173.499 168.565C173.134 168.791 172.811 169.074 172.53 169.399C172.375 169.554 172.249 169.71 172.122 169.908C172.024 170.106 171.925 170.304 171.841 170.473C170.998 172.679 173.865 176.356 175.116 177.798C175.551 178.307 175.65 179.014 175.411 179.368C175.368 179.424 175.312 179.481 175.242 179.523C174.989 179.679 174.511 179.551 173.851 178.915V178.873C173.612 178.703 173.401 178.463 173.204 178.236C172.839 177.883 172.544 177.487 172.249 177.077C171.096 175.635 170.07 173.952 169.607 172.637C169.326 171.732 169.565 170.671 169.86 169.823C170.155 169.074 170.689 168.324 171.321 167.9C176.746 164.323 182.142 160.773 187.553 157.196C192.668 153.845 197.924 150.621 202.632 146.746C202.73 146.69 202.828 146.591 202.927 146.52C207.115 143.027 211.162 139.591 212.047 133.879C213.706 123.316 203.306 114.606 196.125 108.568C193.848 106.659 191.445 104.821 189.07 102.983C187.51 101.781 185.965 100.565 184.461 99.292C183.772 98.7264 183.084 98.1467 182.395 97.5387C182.156 97.369 180.554 96.0539 181.496 95.8277C183.084 95.4742 184.194 95.9125 185.473 96.0539C187.946 96.3085 189.492 96.4074 190.658 96.4074C191.361 96.4074 191.909 96.4074 192.429 96.3509C192.752 96.3085 193.061 96.266 193.385 96.2378C195.76 95.9974 201.76 95.2762 204.754 94.2864C202.688 95.658 200.285 96.5064 197.938 97.0296C196.786 97.2841 195.661 97.4679 194.565 97.5811C194.382 97.5811 194.2 97.6094 194.017 97.6376C193.567 97.6801 193.16 97.6942 192.752 97.7083C192.218 97.7649 191.684 97.7649 191.178 97.7649C190.377 97.7932 189.647 97.7649 188.986 97.7366C188.831 97.7366 188.691 97.7366 188.564 97.7083C188.213 97.7083 187.862 97.6801 187.553 97.6518C186.541 97.5952 185.81 97.4962 185.487 97.4397H185.234C185.135 97.4397 185.079 97.5245 185.065 97.6094C185.065 97.7083 185.121 97.8073 185.178 97.9063C185.22 97.9487 185.262 98.0053 185.304 98.0477C185.346 98.1043 185.417 98.1325 185.459 98.175V98.2032C185.459 98.2032 185.468 98.2032 185.487 98.2032C185.571 98.2881 185.669 98.3446 185.768 98.4153C185.796 98.4153 185.81 98.4719 185.838 98.4719C186.035 98.6133 186.232 98.7264 186.428 98.8537C186.948 99.1789 187.454 99.49 187.96 99.8435L190.405 101.724L196.673 106.461C199.779 109.303 203.208 111.962 206.131 114.959C209.363 118.268 211.935 122.34 213.439 126.837C213.593 127.388 213.748 127.997 213.888 128.661C213.987 129.142 214.043 129.594 214.085 130.061C214.197 131.164 214.226 132.267 214.183 133.186M272.813 204.551C273.052 203.986 273.347 203.434 273.614 202.84C274.148 201.766 274.654 200.663 275.16 199.546C275.793 198.188 276.425 196.817 277.029 195.431C277.226 194.964 277.409 194.498 277.591 194.059C277.746 193.692 277.915 193.324 278.055 192.942C278.449 192.051 278.842 191.132 279.208 190.227C279.966 188.417 280.753 186.579 281.512 184.755C282.173 183.2 282.819 181.63 283.424 180.06C283.578 179.679 283.705 179.297 283.873 178.901C283.929 178.774 283.972 178.533 284.042 178.236C284.098 177.982 284.182 177.77 284.295 177.671C284.702 177.36 285.279 178.236 285.447 178.604C285.574 178.816 285.644 179.085 285.7 179.353C285.728 179.424 285.756 179.566 285.756 179.665C285.813 180.018 285.855 180.4 285.855 180.767V181.135C285.756 183.412 285.222 185.646 284.463 187.823C284.267 188.375 284.07 188.898 283.859 189.407C283.606 190.072 283.311 190.68 283.044 191.316C282.749 191.966 282.44 192.589 282.131 193.197C281.99 193.508 281.836 193.805 281.681 194.102C281.372 194.667 281.077 195.247 280.753 195.813C280.444 196.392 280.107 196.93 279.798 197.524C279.545 197.934 279.278 198.358 279.011 198.768C278.758 199.164 278.505 199.546 278.224 199.941C278.055 200.196 277.858 200.479 277.676 200.747C277.395 201.143 277.057 201.525 276.734 201.907C276.636 202.034 276.523 202.147 276.425 202.275C276.017 202.77 275.568 203.236 275.09 203.689C274.992 203.788 274.893 203.887 274.781 204.014C274.05 204.735 272.954 205.796 272.04 206.05C272.139 205.541 272.504 204.99 272.743 204.565M327.382 109.628C326.721 109.812 326.033 109.996 325.4 110.194C325.091 110.293 324.768 110.392 324.487 110.477C322.421 111.212 320.805 111.947 317.812 112.343C313.02 113.065 307.721 112.626 302.901 112.343C302.339 112.287 301.735 112.244 301.159 112.188C300.653 112.131 300.091 112.089 299.599 112.032C298.489 111.933 297.421 111.792 296.324 111.651C296.156 111.651 295.959 111.608 295.762 111.594C295.13 111.495 294.469 111.396 293.809 111.297C293.598 111.297 293.401 111.269 293.176 111.198C292.952 111.198 292.769 111.17 292.53 111.141C291.827 111.028 291.097 110.929 290.394 110.788C289.733 110.675 289.045 110.562 288.384 110.42C288.103 110.378 287.836 110.335 287.541 110.279C287.415 110.279 287.288 110.236 287.162 110.208C287.077 110.18 286.979 110.152 286.909 110.152C286.81 110.152 286.712 110.109 286.656 110.095C286.487 110.095 286.347 110.024 286.15 109.996C285.461 109.855 284.787 109.713 284.112 109.544C283.915 109.515 283.719 109.473 283.508 109.416C282.735 109.247 281.934 109.063 281.147 108.865C280.711 108.766 280.29 108.667 279.882 108.526C279.446 108.427 279.039 108.313 278.617 108.2C278.561 108.2 278.505 108.158 278.435 108.144C277.676 107.946 276.903 107.748 276.172 107.522C275.357 107.281 274.556 107.027 273.755 106.772C273.572 106.73 273.39 106.659 273.193 106.617C273.094 106.588 273.01 106.56 272.912 106.546C272.813 106.504 272.729 106.489 272.631 106.475C272.054 106.291 271.464 106.093 270.86 105.895C270.27 105.712 269.665 105.528 269.061 105.33C267.895 104.948 266.714 104.538 265.506 104.17C265.154 104.043 264.789 103.93 264.424 103.803C263.96 103.647 263.468 103.492 262.962 103.336C261.416 102.869 259.884 102.417 258.465 101.851C255.275 100.847 241.657 96.4781 236.921 94.8944C237.146 94.9369 237.385 95.0217 237.68 95.0924C238.116 95.2055 238.608 95.3469 239.17 95.5025C239.353 95.5449 239.549 95.6015 239.76 95.658C244.974 97.1286 254.727 99.999 264.93 102.728C266.911 103.251 268.864 103.76 270.846 104.269C272.687 104.722 274.444 105.174 276.032 105.584C276.537 105.712 277.071 105.839 277.549 105.952L277.732 105.485C277.873 105.231 278.027 104.976 278.182 104.708C279.432 102.516 281.034 99.49 282.131 97.3407C282.257 97.1003 282.384 96.8599 282.496 96.6195C282.496 96.464 282.552 96.3226 282.608 96.2378C282.847 95.7853 283.002 95.2479 283.171 94.8237C283.227 94.6682 283.227 94.5692 283.227 94.4561C283.353 94.1026 283.48 93.7067 283.578 93.3956C283.578 93.339 283.62 93.2966 283.62 93.2683C283.845 92.5048 283.915 91.7553 283.915 91.0908C283.915 90.9352 283.958 90.7797 283.915 90.6524V87.4285C283.915 86.9477 283.958 86.4528 284.028 85.972C284.126 85.6327 284.478 83.2854 284.73 81.7017C284.787 81.2068 284.885 80.7967 284.913 80.5281C284.941 80.4856 284.941 80.4715 284.941 80.4291C284.941 80.3725 284.969 80.316 284.997 80.2735C284.997 80.217 285.026 80.1321 285.026 80.118C285.068 80.019 285.096 79.92 285.096 79.8352C285.222 79.3544 285.335 78.8454 285.503 78.3363C285.531 78.2374 285.56 78.1384 285.602 78.0394C285.855 77.3748 286.066 76.8516 286.262 76.2436C286.29 76.187 286.361 76.0881 286.389 76.0174C286.431 75.9608 286.487 75.8618 286.501 75.8053C286.571 75.6356 286.642 75.5083 286.698 75.3528C286.74 75.2679 286.796 75.1831 286.838 75.0983C286.867 75.0134 286.895 74.9427 286.951 74.8579C286.951 74.8579 286.951 74.8579 286.951 74.8296C287.049 74.6458 287.12 74.4761 287.204 74.3205C287.302 74.1791 287.387 74.0236 287.485 73.8822C287.583 73.7408 287.654 73.6135 287.752 73.4721V73.5428C287.668 74.066 287.583 74.5609 287.457 75.0417V75.0841C287.358 75.579 287.246 76.0456 287.162 76.5123C287.134 76.6113 287.105 76.682 287.105 76.7668C287.049 77.0496 286.965 77.3324 286.909 77.6293C286.853 77.898 286.782 78.1949 286.754 78.4636C286.698 78.6757 286.656 78.8737 286.6 79.0999C286.557 79.3262 286.515 79.51 286.473 79.7504C286.445 79.92 286.417 80.1039 286.389 80.2594C286.361 80.4149 286.347 80.5705 286.333 80.6978C286.333 80.7402 286.333 80.825 286.304 80.8674C286.248 81.2775 286.206 81.6593 286.178 82.0693V82.4229L286.304 87.075C286.347 87.3153 286.347 87.5274 286.375 87.7254C286.459 88.0506 286.515 88.3617 286.614 88.6586C286.81 89.4222 287.049 90.1575 287.316 90.9211C287.372 91.0766 287.457 91.2746 287.513 91.4443C287.569 91.5857 287.597 91.6988 287.611 91.826C287.808 92.1513 287.822 92.3634 287.921 92.5896C288.075 92.929 288.272 93.1552 288.441 93.4804C288.651 93.8622 288.848 94.2723 289.101 94.6399C289.185 94.7955 289.284 94.951 289.41 95.1065C289.551 95.3611 289.705 95.5732 289.888 95.8136C290.071 96.0681 290.31 96.3085 290.52 96.6054C290.633 96.7185 290.759 96.8458 290.872 96.9872C290.984 97.1144 291.097 97.2417 291.195 97.369C291.307 97.5104 291.434 97.6518 291.56 97.779C292.038 98.2315 292.446 98.6274 292.994 98.9951C293.443 99.3627 293.949 99.7021 294.469 100.112C294.54 100.14 294.568 100.169 294.638 100.211C294.947 100.367 295.27 100.565 295.565 100.777C295.832 100.932 296.099 101.074 296.338 101.201C296.591 101.3 296.83 101.413 297.083 101.512C297.336 101.611 297.547 101.71 297.828 101.809C297.898 101.809 297.969 101.851 298.053 101.866C298.109 101.866 298.179 101.95 298.179 101.95C298.179 101.95 298.236 101.95 298.264 101.979C298.615 102.177 299.023 102.247 299.346 102.318C299.655 102.516 299.894 102.629 300.203 102.686C300.99 102.841 301.735 103.082 302.564 103.294C302.662 103.336 302.747 103.35 302.873 103.393C303.52 103.591 304.208 103.789 304.841 103.958C305.234 104.114 305.501 104.199 305.909 104.312C306.78 104.694 307.75 105.019 308.565 105.372L308.621 105.471C310.701 106.504 312.626 107.776 314.495 109.685C319.681 108.78 324.445 108.441 328 108.214C330.502 108.087 332.413 107.988 333.27 107.776C331.331 108.37 329.335 109.02 327.396 109.586" fill="#F2EBD9"/>
</svg>
