<svg width="383" height="145" viewBox="0 0 383 145" fill="none" xmlns="http://www.w3.org/2000/svg">
<path d="M10.3206 68.8592C14.0995 62.7886 17.9523 56.4112 21.8975 49.7456C25.8427 43.08 29.7601 36.3307 33.6591 29.4885C37.5581 22.6556 41.2262 16.0737 44.6632 9.74274L44.5339 9.49173C37.9924 9.49173 31.3678 9.53821 24.66 9.62188C17.9523 9.70555 11.4477 10.0495 5.16499 10.6352C5.3313 9.70555 5.47914 8.82238 5.60849 7.9764C5.73784 7.13042 5.79328 6.24725 5.79328 5.3176C5.79328 4.38795 5.7286 3.50478 5.60849 2.6588C5.47914 1.81282 5.3313 0.929651 5.16499 0C9.0178 0 12.4364 0.046482 15.4207 0.130151C18.3957 0.213819 21.2045 0.278895 23.847 0.316081C26.4894 0.362564 29.0857 0.418344 31.645 0.502012C34.2043 0.585681 36.9484 0.632163 39.8865 0.632163C42.4827 0.632163 44.8942 0.61357 47.1209 0.567087C49.3383 0.520605 51.6297 0.483419 53.9765 0.436937C56.3233 0.390454 58.8364 0.334675 61.525 0.251006C64.2137 0.167338 67.3089 0.0836686 70.8383 0V2.27764C62.9571 14.9395 55.4086 27.4712 48.1926 39.8727C40.9767 52.2743 33.807 64.8524 26.6834 77.5886V77.8397C33.2249 77.8397 38.7593 77.8211 43.2865 77.7746C47.8138 77.7374 51.759 77.6723 55.1129 77.5886C58.4668 77.505 61.3402 77.4027 63.7332 77.2726C66.1262 77.1424 68.4545 77.003 70.7182 76.8263C70.635 77.756 70.5057 78.6392 70.3394 79.4851C70.173 80.3311 70.0899 81.2143 70.0899 82.1439C70.0899 83.0736 70.173 83.9382 70.3394 84.7377C70.5057 85.5372 70.635 86.2809 70.7182 86.9502C65.4333 86.7829 60.3424 86.6992 55.4363 86.6992H39.2674C29.1226 86.6992 20.6501 86.7178 13.8592 86.7643C7.0683 86.8015 2.44864 86.8666 0.018692 86.9502V85.1746C3.12311 80.3683 6.56013 74.9205 10.3298 68.8406" fill="#F2EBD9"/>
<path d="M99.3877 16.3897C99.2214 10.942 98.9627 5.48494 98.63 0C100.053 0.167337 101.605 0.316081 103.287 0.446232C104.959 0.576383 106.853 0.632163 108.95 0.632163C111.048 0.632163 112.933 0.567086 114.614 0.446232C116.296 0.316081 117.839 0.176634 119.271 0C118.938 5.48494 118.679 10.9513 118.513 16.3897C118.347 21.8375 118.264 28.0569 118.264 35.0571V52.2743C118.264 59.2838 118.347 65.5032 118.513 70.9416C118.679 76.3894 118.929 81.7256 119.271 86.9502C117.848 86.7829 116.296 86.6992 114.614 86.6992H103.296C101.614 86.6992 100.062 86.7829 98.6393 86.9502C98.9719 81.7163 99.2306 76.3801 99.3969 70.9416C99.5632 65.5032 99.6464 59.2745 99.6464 52.2743V35.0571C99.6464 28.0569 99.5632 21.8282 99.3969 16.3897" fill="#F2EBD9"/>
<path d="M152.468 35.0664C152.468 28.0661 152.385 21.8375 152.218 16.399C152.052 10.9513 151.793 5.49422 151.461 0.00927734C152.883 0.176614 154.436 0.325358 156.117 0.455509C157.799 0.58566 159.684 0.64144 161.781 0.64144C164.719 0.64144 167.759 0.539178 170.9 0.325359C174.042 0.111539 177.128 0.00927734 180.149 0.00927734C186.099 0.00927734 190.756 0.45551 194.109 1.33868C197.463 2.22185 200.106 3.51406 202.037 5.19673C204.716 7.39071 206.693 9.83568 207.95 12.541C209.207 15.2463 209.835 18.4907 209.835 22.2837C209.835 27.09 209.04 31.2269 207.442 34.6852C205.843 38.1436 203.608 40.9511 200.716 43.0986C197.824 45.2554 194.405 46.8358 190.46 47.8491C186.515 48.8624 182.2 49.3644 177.506 49.3644H171.094C171.094 55.6954 171.159 61.9984 171.288 68.2921C171.418 74.5766 171.686 80.8052 172.101 86.9595C170.679 86.7922 169.126 86.7085 167.445 86.7085H156.127C154.445 86.7085 152.893 86.7922 151.47 86.9595C151.802 81.7256 152.052 76.3894 152.228 70.9416C152.394 65.5032 152.477 59.2745 152.477 52.2742V35.0571L152.468 35.0664ZM189.952 24.3104C189.952 21.1031 189.591 18.4071 188.88 16.2131C188.169 14.0191 187.198 12.2714 185.988 10.9606C184.768 9.64976 183.346 8.70151 181.71 8.11583C180.075 7.53015 178.375 7.23266 176.619 7.23266H172.471C172.046 7.23266 171.676 7.27915 171.334 7.36281C171.251 13.4427 171.187 19.4111 171.15 25.2772C171.103 31.1433 171.085 37.028 171.085 42.9313C173.182 42.9313 175.344 42.7174 177.562 42.2991C179.779 41.8807 181.821 41.0162 183.66 39.7054C185.498 38.3946 187.014 36.526 188.187 34.0717C189.36 31.6267 189.952 28.3729 189.952 24.3289" fill="#F2EBD9"/>
<path d="M234.994 35.0664C234.994 28.0661 234.91 21.8375 234.744 16.399C234.578 10.9513 234.319 5.49422 233.987 0.00927734C235.409 0.176614 236.962 0.325358 238.643 0.455509C240.325 0.58566 242.21 0.64144 244.307 0.64144C247.245 0.64144 250.285 0.539178 253.426 0.325359C256.567 0.111539 259.653 0.00927734 262.675 0.00927734C268.625 0.00927734 273.281 0.45551 276.635 1.33868C279.989 2.22185 282.632 3.51406 284.563 5.19673C287.242 7.39071 289.219 9.83568 290.476 12.541C291.732 15.2463 292.361 18.4907 292.361 22.2837C292.361 27.09 291.566 31.2269 289.968 34.6852C288.369 38.1436 286.133 40.9511 283.232 43.0986C280.34 45.2554 276.922 46.8358 272.977 47.8491C269.031 48.8624 264.717 49.3644 260.014 49.3644H253.602C253.602 55.6954 253.666 61.9984 253.786 68.2921C253.916 74.5766 254.184 80.8052 254.599 86.9595C253.177 86.7922 251.624 86.7085 249.943 86.7085H238.625C236.943 86.7085 235.391 86.7922 233.968 86.9595C234.301 81.7256 234.55 76.3894 234.726 70.9416C234.892 65.5032 234.975 59.2745 234.975 52.2742V35.0571L234.994 35.0664ZM272.478 24.3104C272.478 21.1031 272.117 18.4071 271.406 16.2131C270.694 14.0191 269.724 12.2714 268.514 10.9606C267.294 9.64976 265.871 8.70151 264.236 8.11583C262.601 7.53015 260.901 7.23266 259.136 7.23266H254.988C254.563 7.23266 254.193 7.27915 253.851 7.36281C253.768 13.4427 253.703 19.4111 253.666 25.2772C253.62 31.1433 253.602 37.028 253.602 42.9313C255.699 42.9313 257.861 42.7174 260.078 42.2991C262.305 41.8807 264.338 41.0162 266.176 39.7054C268.015 38.3946 269.53 36.526 270.704 34.0717C271.877 31.6267 272.468 28.3729 272.468 24.3289" fill="#F2EBD9"/>
<path d="M356.898 29.6837C358.57 26.6066 360.205 23.3714 361.804 19.9968C363.393 16.6222 364.945 13.2289 366.46 9.80781C367.976 6.3867 369.435 3.12363 370.867 0C371.791 0.167337 372.734 0.316081 373.695 0.446232C374.656 0.576383 375.644 0.632163 376.651 0.632163C377.658 0.632163 378.647 0.567086 379.608 0.446232C380.569 0.316081 381.594 0.176634 382.694 0C381.262 2.36131 379.488 5.46634 377.344 9.3058C375.21 13.1453 372.919 17.3008 370.489 21.7724C368.059 26.244 365.601 30.8272 363.134 35.5034C360.658 40.1888 358.413 44.5117 356.399 48.472C356.399 50.4986 356.352 52.5439 356.269 54.617C356.186 56.6808 356.14 58.7725 356.14 60.8828C356.14 65.1871 356.205 69.4449 356.325 73.6655C356.454 77.8861 356.805 82.3206 357.397 86.9595C355.632 86.7922 353.849 86.7085 352.047 86.7085H341.357C339.555 86.7085 337.772 86.7922 336.007 86.9595C336.174 83.0829 336.469 79.1133 336.885 75.06C337.301 71.0067 337.513 66.9627 337.513 62.9095C337.513 60.9665 337.495 59.0049 337.449 57.0248C337.403 55.0446 337.347 53.0831 337.264 51.1401C335.167 46.9195 332.755 42.2154 330.03 37.028C327.304 31.8405 324.661 26.7925 322.102 21.9026C319.543 17.0126 317.196 12.5782 315.062 8.60856C312.918 4.63896 311.348 1.77563 310.341 0C312.272 0.167337 314.156 0.316081 316.004 0.446232C317.843 0.576383 319.737 0.632163 321.668 0.632163C323.599 0.632163 325.465 0.567086 327.267 0.446232C329.069 0.316081 330.935 0.176634 332.866 0C334.289 3.12363 335.906 6.58192 337.707 10.3842C339.509 14.1772 341.292 17.8958 343.057 21.5214C344.822 25.1471 346.457 28.438 347.963 31.3943C349.478 34.3506 350.689 36.5446 351.613 37.9762H351.862C353.534 35.5312 355.216 32.7702 356.898 29.6837Z" fill="#F2EBD9"/>
<path d="M0 135.385V117.991V115.519H13.7943V118.568H9.84915H3.34464V124.713H8.66651H12.0112V127.762H8.66651H3.34464V134.911H9.36871H13.7943V137.951H0V135.385Z" fill="#F2EBD9"/>
<path d="M42.8059 126.739C42.8059 133.247 38.3156 137.793 32.2638 137.885C32.0051 137.885 31.7834 137.848 31.5616 137.848C35.7932 140.349 39.9417 141.595 44.8755 141.595C47.5827 141.595 49.7816 140.888 50.8349 139.996C50.1327 142.143 46.8897 144.198 43.157 144.198C36.246 144.198 30.2311 141.409 24.0777 136.249C21.0842 133.749 19.6521 130.578 19.6521 126.73C19.6521 119.906 24.4566 115.035 31.2105 115.035C37.9645 115.035 42.8059 119.906 42.8059 126.73M31.2105 135.255C36.0242 135.255 39.3042 131.796 39.3042 126.73C39.3042 121.663 36.0242 118.205 31.2105 118.205C26.3968 118.205 23.1538 121.663 23.1538 126.73C23.1538 131.796 26.4338 135.255 31.2105 135.255Z" fill="#F2EBD9"/>
<path d="M50.7702 129.333V115.519H54.1149V129.333C54.1149 133.015 56.0551 135.227 59.5291 135.227C63.0031 135.227 64.9434 133.015 64.9434 129.333V115.519H68.288V129.333C68.288 135.106 65.1004 138.434 59.5291 138.434C53.9578 138.434 50.7702 135.097 50.7702 129.333Z" fill="#F2EBD9"/>
<path d="M77.398 135.385V117.991V115.519H91.1924V118.568H87.2379H80.7427V124.713H86.0645H89.4092V127.762H86.0645H80.7427V134.911H86.7575H91.1924V137.951H77.398V135.385Z" fill="#F2EBD9"/>
<path d="M97.7154 135.255V131.248C99.6279 133.879 102.178 135.282 105.172 135.282C107.722 135.282 109.348 133.972 109.348 132.01C109.348 130.532 108.488 129.444 106.613 128.673L102.603 126.971C99.6094 125.726 98.3344 123.801 98.3344 121.235C98.3344 117.517 101.291 115.016 105.375 115.016C108.174 115.016 110.373 115.853 112.064 117.322V121.105C110.503 119.218 107.925 118.093 105.439 118.093C103.277 118.093 101.845 119.246 101.845 121.012C101.845 122.258 102.548 123.225 104.46 124.024L108.47 125.661C111.399 126.841 112.868 128.933 112.868 131.722C112.868 135.794 109.745 138.415 105.033 138.415C101.91 138.415 99.4893 137.356 97.7431 135.245" fill="#F2EBD9"/>
<path d="M118.522 115.519H136.484V118.661H132.566H129.157V135.487V137.951H125.84V135.264V118.661H122.403H118.522V115.519Z" fill="#F2EBD9"/>
<path d="M143.487 135.385V115.519H151.451C155.942 115.519 158.778 118.019 158.778 121.896C158.778 125.103 156.838 127.344 153.65 128.05L159.222 134.976L161.578 137.96H157.503L149.89 128.283H146.832V137.96H143.487V135.394V135.385ZM151.008 125.419C153.909 125.419 155.341 124.109 155.341 121.896C155.341 119.683 153.909 118.373 151.008 118.373H146.832V125.419H151.008Z" fill="#F2EBD9"/>
<path d="M168.359 135.385V117.991V115.519H171.704V118.084V135.487V137.951H168.359V135.385Z" fill="#F2EBD9"/>
<path d="M179.798 134.623L187.346 115.519H190.719L198.295 134.716C198.72 135.738 199.145 136.817 199.57 137.951H195.939C195.495 136.711 195.123 135.707 194.821 134.939L193.703 131.955H184.279L183.133 135.032C182.813 135.887 182.462 136.86 182.08 137.951H178.477L179.779 134.623H179.798ZM192.631 128.952L189 119.144L185.397 128.952H192.631Z" fill="#F2EBD9"/>
<path d="M206.268 135.385V115.519H209.484L221.301 132.308V117.991V115.519H224.544V118.084V137.951H221.301L209.484 121.124V135.487V137.951H206.268V135.385Z" fill="#F2EBD9"/>
<path d="M243.688 126.962C243.688 119.683 248.271 115.044 255.219 115.044C258.304 115.044 260.855 115.881 262.675 117.48V121.672C261.335 119.562 258.6 118.214 255.505 118.214C250.377 118.214 247.227 121.449 247.227 126.674C247.227 131.899 250.571 135.106 255.671 135.106C259.016 135.106 261.723 133.665 263.063 130.839C263.063 135.84 260.097 138.434 254.59 138.434C248.058 138.434 243.697 133.758 243.697 126.962" fill="#F2EBD9"/>
<path d="M270.731 135.385V117.991V115.519H284.516V118.568H280.571H274.076V124.713H279.389H282.733V127.762H279.389H274.076V134.911H280.091H284.516V137.951H270.731V135.385Z" fill="#F2EBD9"/>
<path d="M292.545 135.385V115.519H295.761L307.578 132.308V117.991V115.519H310.83V118.084V137.951H307.578L295.761 121.124V135.487V137.951H292.545V135.385Z" fill="#F2EBD9"/>
<path d="M317.834 115.519H335.804V118.661H331.877H328.477V135.487V137.951H325.16V135.264V118.661H321.723H317.834V115.519Z" fill="#F2EBD9"/>
<path d="M342.808 135.385V117.991V115.519H356.602V118.568H352.647H346.152V124.713H351.465H354.809V127.762H351.465H346.152V134.911H352.167H356.602V137.951H342.808V135.385Z" fill="#F2EBD9"/>
<path d="M364.594 135.385V115.519H372.558C377.049 115.519 379.885 118.019 379.885 121.896C379.885 125.103 377.945 127.344 374.757 128.05L380.329 134.976L382.685 137.96H378.61L370.997 128.283H367.939V137.96H364.594V135.394V135.385ZM372.115 125.419C375.016 125.419 376.448 124.109 376.448 121.896C376.448 119.683 375.016 118.373 372.115 118.373H367.939V125.419H372.115Z" fill="#F2EBD9"/>
</svg>
