<svg width="242" height="78" viewBox="0 0 242 78" fill="none" xmlns="http://www.w3.org/2000/svg">
<g clip-path="url(#clip0_60_5)">
<path d="M107.902 37.8456C109.263 35.6825 110.65 33.4101 112.071 31.035C113.492 28.66 114.903 26.2551 116.307 23.817C117.711 21.3823 119.032 19.0371 120.27 16.7812L120.223 16.6918C117.867 16.6918 115.482 16.7084 113.066 16.7382C110.65 16.768 108.308 16.8906 106.045 17.0992C106.105 16.768 106.158 16.4533 106.205 16.1519C106.252 15.8504 106.272 15.5357 106.272 15.2045C106.272 14.8732 106.248 14.5585 106.205 14.2571C106.158 13.9557 106.105 13.641 106.045 13.3097C107.433 13.3097 108.664 13.3263 109.739 13.3561C110.81 13.3859 111.822 13.4091 112.773 13.4223C113.725 13.4389 114.66 13.4588 115.581 13.4886C116.503 13.5184 117.491 13.535 118.549 13.535C119.484 13.535 120.353 13.5283 121.155 13.5118C121.953 13.4952 122.778 13.482 123.624 13.4654C124.469 13.4488 125.374 13.429 126.342 13.3992C127.31 13.3693 128.425 13.3395 129.696 13.3097V14.1213C126.858 18.6329 124.139 23.0982 121.541 27.5171C118.942 31.936 116.36 36.4179 113.795 40.956V41.0455C116.15 41.0455 118.144 41.0389 119.774 41.0223C121.404 41.009 122.825 40.9859 124.033 40.956C125.241 40.9262 126.275 40.8898 127.137 40.8434C127.999 40.797 128.838 40.7474 129.653 40.6844C129.623 41.0157 129.576 41.3304 129.516 41.6318C129.456 41.9332 129.426 42.2479 129.426 42.5792C129.426 42.9104 129.456 43.2185 129.516 43.5034C129.576 43.7883 129.623 44.0533 129.653 44.2918C127.75 44.2321 125.916 44.2023 124.149 44.2023H118.327C114.673 44.2023 111.622 44.2089 109.176 44.2255C106.731 44.2388 105.067 44.2619 104.192 44.2918V43.6591C105.31 41.9465 106.548 40.0054 107.905 37.839" fill="#F2EBD9"/>
<path d="M139.977 19.1497C139.918 17.2086 139.824 15.2641 139.705 13.3097C140.217 13.3693 140.776 13.4223 141.382 13.4687C141.984 13.5151 142.666 13.535 143.421 13.535C144.177 13.535 144.855 13.5118 145.461 13.4687C146.066 13.4223 146.622 13.3727 147.138 13.3097C147.018 15.2641 146.925 17.2119 146.865 19.1497C146.805 21.0908 146.775 23.3069 146.775 25.8012V31.936C146.775 34.4337 146.805 36.6498 146.865 38.5876C146.925 40.5287 147.015 42.4301 147.138 44.2918C146.625 44.2321 146.066 44.2023 145.461 44.2023H141.385C140.779 44.2023 140.22 44.2321 139.708 44.2918C139.828 42.4268 139.921 40.5254 139.981 38.5876C140.041 36.6498 140.071 34.4304 140.071 31.936V25.8012C140.071 23.3069 140.041 21.0875 139.981 19.1497" fill="#F2EBD9"/>
<path d="M159.093 25.8046C159.093 23.3102 159.063 21.0908 159.003 19.153C158.943 17.2119 158.85 15.2674 158.73 13.313C159.243 13.3727 159.802 13.4257 160.407 13.472C161.013 13.5184 161.692 13.5383 162.447 13.5383C163.505 13.5383 164.6 13.5018 165.731 13.4257C166.862 13.3495 167.974 13.313 169.062 13.313C171.204 13.313 172.881 13.472 174.089 13.7867C175.297 14.1014 176.249 14.5619 176.944 15.1614C177.909 15.9432 178.621 16.8144 179.074 17.7783C179.526 18.7423 179.752 19.8983 179.752 21.2498C179.752 22.9624 179.466 24.4365 178.891 25.6687C178.315 26.901 177.51 27.9014 176.468 28.6666C175.427 29.4351 174.196 29.9982 172.775 30.3593C171.354 30.7203 169.8 30.8992 168.11 30.8992H165.801C165.801 33.1551 165.824 35.4009 165.871 37.6435C165.917 39.8828 166.014 42.1022 166.163 44.2951C165.651 44.2354 165.092 44.2056 164.487 44.2056H160.411C159.805 44.2056 159.246 44.2354 158.734 44.2951C158.853 42.4301 158.943 40.5287 159.006 38.5876C159.066 36.6498 159.096 34.4304 159.096 31.936V25.8012L159.093 25.8046ZM172.592 21.972C172.592 20.8292 172.462 19.8685 172.206 19.0868C171.95 18.305 171.6 17.6823 171.164 17.2152C170.725 16.7481 170.213 16.4102 169.624 16.2016C169.035 15.9929 168.423 15.8869 167.791 15.8869H166.297C166.144 15.8869 166.01 15.9034 165.887 15.9332C165.857 18.0996 165.834 20.2263 165.821 22.3165C165.804 24.4067 165.797 26.5035 165.797 28.607C166.553 28.607 167.331 28.5308 168.13 28.3817C168.928 28.2326 169.664 27.9246 170.326 27.4575C170.988 26.9904 171.534 26.3246 171.956 25.4501C172.379 24.5789 172.592 23.4195 172.592 21.9786" fill="#F2EBD9"/>
<path d="M188.813 25.8046C188.813 23.3102 188.783 21.0908 188.723 19.153C188.663 17.2119 188.57 15.2674 188.45 13.313C188.962 13.3727 189.521 13.4257 190.127 13.472C190.733 13.5184 191.411 13.5383 192.167 13.5383C193.225 13.5383 194.319 13.5018 195.451 13.4257C196.582 13.3495 197.693 13.313 198.781 13.313C200.924 13.313 202.601 13.472 203.809 13.7867C205.017 14.1014 205.968 14.5619 206.664 15.1614C207.629 15.9432 208.341 16.8144 208.793 17.7783C209.246 18.7423 209.472 19.8983 209.472 21.2498C209.472 22.9624 209.186 24.4365 208.61 25.6687C208.035 26.901 207.229 27.9014 206.185 28.6666C205.143 29.4351 203.912 29.9982 202.491 30.3593C201.071 30.7203 199.517 30.8992 197.823 30.8992H195.514C195.514 33.1551 195.537 35.4009 195.58 37.6435C195.627 39.8828 195.724 42.1022 195.873 44.2951C195.361 44.2354 194.802 44.2056 194.196 44.2056H190.12C189.515 44.2056 188.956 44.2354 188.443 44.2951C188.563 42.4301 188.653 40.5287 188.716 38.5876C188.776 36.6498 188.806 34.4304 188.806 31.936V25.8012L188.813 25.8046ZM202.312 21.972C202.312 20.8292 202.182 19.8685 201.926 19.0868C201.669 18.305 201.32 17.6823 200.884 17.2152C200.445 16.7481 199.933 16.4102 199.344 16.2016C198.755 15.9929 198.142 15.8869 197.507 15.8869H196.013C195.86 15.8869 195.727 15.9034 195.604 15.9332C195.574 18.0996 195.55 20.2263 195.537 22.3165C195.521 24.4067 195.514 26.5035 195.514 28.607C196.269 28.607 197.048 28.5308 197.846 28.3817C198.648 28.2326 199.38 27.9246 200.042 27.4575C200.705 26.9904 201.25 26.3246 201.673 25.4501C202.095 24.5789 202.308 23.4195 202.308 21.9786" fill="#F2EBD9"/>
<path d="M232.713 23.8866C233.316 22.7902 233.905 21.6374 234.48 20.435C235.053 19.2325 235.612 18.0234 236.157 16.8044C236.703 15.5854 237.229 14.4227 237.744 13.3097C238.077 13.3693 238.416 13.4223 238.763 13.4687C239.109 13.5151 239.465 13.535 239.827 13.535C240.19 13.535 240.546 13.5118 240.892 13.4687C241.238 13.4223 241.607 13.3727 242.003 13.3097C241.488 14.1511 240.849 15.2575 240.077 16.6256C239.308 17.9936 238.483 19.4743 237.608 21.0677C236.733 22.661 235.848 24.2941 234.959 25.9603C234.068 27.6298 233.259 29.1701 232.534 30.5812C232.534 31.3034 232.517 32.0321 232.487 32.7708C232.457 33.5062 232.441 34.2515 232.441 35.0034C232.441 36.5371 232.464 38.0543 232.507 39.5582C232.554 41.062 232.68 42.6421 232.893 44.2951C232.258 44.2354 231.615 44.2056 230.967 44.2056H227.117C226.468 44.2056 225.826 44.2354 225.19 44.2951C225.25 42.9137 225.357 41.4993 225.506 40.055C225.656 38.6108 225.733 37.1698 225.733 35.7256C225.733 35.0333 225.726 34.3343 225.709 33.6287C225.693 32.9232 225.673 32.2242 225.643 31.5319C224.888 30.028 224.019 28.3519 223.038 26.5035C222.056 24.6551 221.104 22.8564 220.183 21.114C219.261 19.3716 218.416 17.7916 217.647 16.3771C216.875 14.9627 216.31 13.9424 215.947 13.3097C216.642 13.3693 217.321 13.4223 217.987 13.4687C218.649 13.5151 219.331 13.535 220.026 13.535C220.722 13.535 221.394 13.5118 222.043 13.4687C222.692 13.4223 223.364 13.3727 224.059 13.3097C224.571 14.4227 225.154 15.655 225.803 17.0098C226.451 18.3613 227.094 19.6863 227.729 20.9782C228.365 22.2701 228.954 23.4427 229.496 24.4961C230.042 25.5495 230.477 26.3313 230.81 26.8414H230.9C231.502 25.9702 232.108 24.9864 232.713 23.8866Z" fill="#F2EBD9"/>
<path d="M104.185 61.55V55.3523V54.4711H109.153V55.5577H107.732H105.39V57.7472H107.306H108.511V58.8337H107.306H105.39V61.3811H107.559H109.153V62.4643H104.185V61.55Z" fill="#F2EBD9"/>
<path d="M119.601 58.4694C119.601 60.7881 117.984 62.4079 115.804 62.4411C115.711 62.4411 115.631 62.4278 115.551 62.4278C117.075 63.3189 118.569 63.7628 120.346 63.7628C121.321 63.7628 122.113 63.511 122.492 63.193C122.239 63.9582 121.072 64.6903 119.727 64.6903C117.238 64.6903 115.072 63.6965 112.856 61.8581C111.778 60.967 111.263 59.8374 111.263 58.466C111.263 56.0347 112.993 54.2989 115.425 54.2989C117.857 54.2989 119.601 56.0347 119.601 58.466M115.425 61.5036C117.159 61.5036 118.34 60.2714 118.34 58.466C118.34 56.6607 117.159 55.4285 115.425 55.4285C113.692 55.4285 112.524 56.6607 112.524 58.466C112.524 60.2714 113.705 61.5036 115.425 61.5036Z" fill="#F2EBD9"/>
<path d="M122.469 59.3936V54.4711H123.674V59.3936C123.674 60.7053 124.372 61.4937 125.623 61.4937C126.874 61.4937 127.573 60.7053 127.573 59.3936V54.4711H128.778V59.3936C128.778 61.4506 127.63 62.6365 125.623 62.6365C123.617 62.6365 122.469 61.4473 122.469 59.3936Z" fill="#F2EBD9"/>
<path d="M132.058 61.55V55.3523V54.4711H137.026V55.5577H135.602H133.263V57.7472H135.179H136.384V58.8337H135.179H133.263V61.3811H135.429H137.026V62.4643H132.058V61.55Z" fill="#F2EBD9"/>
<path d="M139.375 61.5036V60.0759C140.064 61.0134 140.982 61.5136 142.06 61.5136C142.979 61.5136 143.564 61.0465 143.564 60.3476C143.564 59.8209 143.255 59.4333 142.579 59.1584L141.135 58.5522C140.057 58.1083 139.598 57.4226 139.598 56.5083C139.598 55.1833 140.663 54.2923 142.134 54.2923C143.142 54.2923 143.934 54.5904 144.543 55.1138V56.462C143.98 55.7895 143.052 55.3887 142.157 55.3887C141.378 55.3887 140.862 55.7995 140.862 56.4288C140.862 56.8727 141.115 57.2172 141.804 57.5021L143.248 58.0851C144.303 58.5058 144.832 59.2511 144.832 60.2449C144.832 61.6958 143.707 62.6299 142.01 62.6299C140.886 62.6299 140.014 62.2523 139.385 61.5003" fill="#F2EBD9"/>
<path d="M146.868 54.4711H153.337V55.5908H151.926H150.698V61.5864V62.4643H149.504V61.5069V55.5908H148.266H146.868V54.4711Z" fill="#F2EBD9"/>
<path d="M155.859 61.55V54.4711H158.727C160.344 54.4711 161.365 55.3622 161.365 56.7435C161.365 57.8864 160.667 58.6847 159.519 58.9364L161.525 61.4043L162.374 62.4676H160.906L158.165 59.0192H157.063V62.4676H155.859V61.5533V61.55ZM158.567 57.999C159.612 57.999 160.128 57.5319 160.128 56.7435C160.128 55.9552 159.612 55.4881 158.567 55.4881H157.063V57.999H158.567Z" fill="#F2EBD9"/>
<path d="M164.816 61.55V55.3523V54.4711H166.02V55.3854V61.5864V62.4643H164.816V61.55Z" fill="#F2EBD9"/>
<path d="M168.935 61.2784L171.654 54.4711H172.868L175.596 61.3115C175.75 61.6759 175.903 62.0601 176.056 62.4643H174.748C174.588 62.0226 174.454 61.6648 174.345 61.391L173.943 60.3277H170.549L170.136 61.4241C170.021 61.7289 169.895 62.0756 169.757 62.4643H168.459L168.929 61.2784H168.935ZM173.557 59.2577L172.249 55.763L170.952 59.2577H173.557Z" fill="#F2EBD9"/>
<path d="M178.468 61.55V54.4711H179.626L183.882 60.4536V55.3523V54.4711H185.049V55.3854V62.4643H183.882L179.626 56.4686V61.5864V62.4643H178.468V61.55Z" fill="#F2EBD9"/>
<path d="M191.944 58.5489C191.944 55.9552 193.594 54.3022 196.096 54.3022C197.207 54.3022 198.126 54.6003 198.781 55.1701V56.664C198.299 55.9121 197.314 55.4318 196.199 55.4318C194.353 55.4318 193.218 56.5845 193.218 58.4462C193.218 60.3078 194.423 61.4506 196.259 61.4506C197.464 61.4506 198.439 60.9372 198.921 59.9302C198.921 61.7123 197.853 62.6365 195.87 62.6365C193.517 62.6365 191.947 60.9703 191.947 58.5489" fill="#F2EBD9"/>
<path d="M201.683 61.55V55.3523V54.4711H206.647V55.5577H205.226H202.887V57.7472H204.8H206.005V58.8337H204.8H202.887V61.3811H205.053H206.647V62.4643H201.683V61.55Z" fill="#F2EBD9"/>
<path d="M209.539 61.55V54.4711H210.696L214.952 60.4536V55.3523V54.4711H216.123V55.3854V62.4643H214.952L210.696 56.4686V61.5864V62.4643H209.539V61.55Z" fill="#F2EBD9"/>
<path d="M218.645 54.4711H225.117V55.5908H223.703H222.479V61.5864V62.4643H221.284V61.5069V55.5908H220.046H218.645V54.4711Z" fill="#F2EBD9"/>
<path d="M227.639 61.55V55.3523V54.4711H232.607V55.5577H231.183H228.844V57.7472H230.757H231.961V58.8337H230.757H228.844V61.3811H231.01H232.607V62.4643H227.639V61.55Z" fill="#F2EBD9"/>
<path d="M235.485 61.55V54.4711H238.353C239.97 54.4711 240.992 55.3622 240.992 56.7435C240.992 57.8864 240.293 58.6847 239.145 58.9364L241.152 61.4043L242 62.4676H240.533L237.791 59.0192H236.69V62.4676H235.485V61.5533V61.55ZM238.194 57.999C239.238 57.999 239.754 57.5319 239.754 56.7435C239.754 55.9552 239.238 55.4881 238.194 55.4881H236.69V57.999H238.194Z" fill="#F2EBD9"/>
<path d="M56.4981 50.5723C56.4382 50.6121 56.3816 50.6551 56.325 50.6982C56.325 50.6982 56.3151 50.7114 56.3117 50.7147C56.3051 50.7214 56.3017 50.7247 56.2984 50.728V50.7346C56.335 50.7048 56.3683 50.6816 56.4049 50.6551C56.4415 50.6286 56.4748 50.6054 56.5114 50.5822C56.6611 50.4729 56.8241 50.3736 56.9805 50.2841C56.8175 50.3669 56.6578 50.4696 56.5014 50.5756M56.5014 50.5756C56.4415 50.6154 56.3849 50.6584 56.3284 50.7015C56.3284 50.7015 56.3184 50.7147 56.3151 50.7181C56.3084 50.7247 56.3051 50.728 56.3017 50.7313V50.7379C56.3383 50.7081 56.3716 50.6849 56.4082 50.6584C56.4448 50.6319 56.4781 50.6087 56.5147 50.5856C56.6644 50.4762 56.8275 50.3769 56.9838 50.2874C56.8208 50.3702 56.6611 50.4729 56.5047 50.5789M52.8646 54.395C49.2977 57.7969 45.265 60.5165 40.8197 62.5173C37.0332 60.8113 33.5495 58.5919 30.4018 55.879L30.2255 56.2202C30.1123 56.4355 29.9925 56.6508 29.8694 56.8628C29.763 57.0582 29.6399 57.2603 29.5134 57.4557C32.8208 60.2747 36.4875 62.5703 40.4736 64.3226L40.8197 64.4783L41.1657 64.3226C46.007 62.1926 50.3824 59.2577 54.2188 55.5643L52.8646 54.395ZM56.5047 50.5789C56.4448 50.6187 56.3883 50.6617 56.3317 50.7048C56.3317 50.7048 56.3217 50.7181 56.3184 50.7214C56.3117 50.728 56.3084 50.7313 56.3051 50.7346V50.7412C56.3417 50.7114 56.3749 50.6882 56.4115 50.6617C56.4481 50.6352 56.4814 50.6121 56.518 50.5889C56.6678 50.4796 56.8308 50.3802 56.9872 50.2907C56.8241 50.3736 56.6644 50.4762 56.508 50.5822M56.508 50.5822C56.4481 50.622 56.3916 50.6651 56.335 50.7081C56.335 50.7081 56.325 50.7214 56.3217 50.7247C56.3151 50.7313 56.3117 50.7346 56.3084 50.7379V50.7446C56.345 50.7147 56.3783 50.6916 56.4149 50.6651C56.4515 50.6386 56.4847 50.6154 56.5213 50.5922C56.6711 50.4829 56.8341 50.3835 56.9905 50.2941C56.8275 50.3769 56.6678 50.4796 56.5114 50.5856" fill="#F2EBD9"/>
<path d="M60.055 8.96368C59.9984 8.95375 59.9352 8.9405 59.8786 8.92725C59.9352 8.95043 59.9951 8.96368 60.055 8.97362C60.0683 8.97362 60.0816 8.97362 60.0916 8.98025C60.0783 8.98025 60.065 8.97031 60.055 8.967M58.5444 3.32577L58.5078 2.83883H51.1677C51.1677 2.83883 51.1677 2.84876 51.1777 2.84876C51.191 2.86533 51.2043 2.8852 51.2176 2.90176C51.2276 2.91502 51.2375 2.92164 51.2442 2.93489C51.2675 2.95477 51.2875 2.97795 51.3041 3.00114C51.3174 3.01108 51.3241 3.0177 51.3274 3.03095C51.344 3.0442 51.3507 3.06077 51.364 3.0707L51.4239 3.14689C51.4738 3.20983 51.5237 3.27939 51.5736 3.35227C51.6901 3.51458 51.7999 3.69677 51.9063 3.8889H57.6726C57.7425 4.4454 58.0918 6.06522 58.4512 7.37036L59.323 6.76417C58.8505 5.06153 58.5444 3.33902 58.5444 3.32246M55.8392 49.6282C55.5964 49.7905 55.3501 49.9893 55.1072 50.2145C55.3401 50.0025 55.5963 49.8005 55.8625 49.6249C56.0256 49.5156 56.2186 49.393 56.4049 49.2837C56.2019 49.393 56.0189 49.509 55.8392 49.6282ZM23.0617 2.8322L23.0318 3.31914C23.0251 3.34233 22.7989 5.92279 21.5278 8.98025C20.3666 11.7793 18.0208 15.5523 13.4524 17.6822L13.123 17.8313L13.1496 18.1957C13.1496 18.2752 13.6853 26.2186 17.3287 35.4738C17.5683 36.08 17.8178 36.6895 18.0774 37.2858C18.3103 36.9876 18.5632 36.6994 18.8327 36.4245C18.6464 35.9906 18.4634 35.55 18.2903 35.1028C15.136 27.0832 14.3441 19.9911 14.2044 18.4806C18.8826 16.1817 21.2883 12.2563 22.4861 9.3645C23.5043 6.90329 23.847 4.7634 23.9568 3.87896H42.5166C42.5166 3.87896 42.5266 3.86571 42.5299 3.85577C42.5898 3.72658 42.6763 3.57752 42.7695 3.41852C42.8028 3.36221 42.8527 3.28602 42.9226 3.19327C42.9824 3.10052 43.049 3.02102 43.1056 2.94814C43.1056 2.9382 43.1422 2.90177 43.1555 2.88851C43.1754 2.86864 43.1921 2.84545 43.212 2.82558H23.0684L23.0617 2.8322Z" fill="#F2EBD9"/>
<path d="M59.1034 44.4243L58.4246 44.6363C57.463 46.117 56.3517 47.7533 55.2669 49.0684C51.2542 53.9312 46.393 57.6744 40.8164 60.1852C37.3293 58.6151 34.1218 56.5647 31.227 54.0637C31.227 54.067 31.227 54.0736 31.2237 54.0803L31.1338 54.279C31.0174 54.5407 30.9076 54.7991 30.7878 55.0541C33.7558 57.5882 37.0432 59.6619 40.6134 61.2419L40.8164 61.3347L41.0193 61.2419C45.6011 59.2081 49.7103 56.3758 53.2905 52.7818C53.783 52.2948 54.2654 51.788 54.7312 51.2646C55.1871 50.7711 55.6263 50.2609 56.0588 49.7375C56.1886 49.5785 56.3184 49.4229 56.4415 49.2605H56.4448C57.6626 47.7368 58.8904 45.8785 59.9452 44.1593C59.6557 44.2487 59.3795 44.3348 59.1 44.4243M55.8592 49.6216C55.593 49.7972 55.3401 49.9992 55.1039 50.2112C55.3468 49.986 55.593 49.7905 55.8359 49.6249C56.0156 49.5057 56.1986 49.3864 56.4016 49.2804C56.2119 49.3864 56.0189 49.5123 55.8592 49.6216Z" fill="#F2EBD9"/>
<path d="M60.1814 6.27723C59.506 4.35597 59.2065 2.72621 59.0801 1.7987H22.5493C22.3896 2.93158 21.977 5.10791 20.9455 7.58568C19.6246 10.7525 16.9827 15.0289 11.8852 17.5928C12.0948 19.6764 13.0198 27.0534 16.3339 35.391C16.6999 36.3152 17.0858 37.2228 17.4918 38.1073C17.4352 38.1934 17.3753 38.2762 17.3221 38.3657C17.2921 38.4087 17.169 38.5975 17.159 38.6042C16.9827 38.8857 16.7864 39.1706 16.5701 39.4223C16.4803 39.5184 16.3904 39.6112 16.3039 39.6807C16.2973 39.684 16.2873 39.6907 16.2806 39.7006C15.7183 38.5147 15.1926 37.299 14.6968 36.0469C10.6741 25.9205 10.0818 17.1887 10.0785 17.1059L10.0386 16.4831L10.5975 16.2281C15.5286 13.9557 18.0607 9.90776 19.3185 6.90992C20.6827 3.64709 20.8823 0.871192 20.889 0.844692L20.9389 0.00331116H60.6938L60.7437 0.844692C60.7737 1.24551 61.0066 3.5179 62.0514 6.25404L60.1847 6.28054L60.1814 6.27723Z" fill="#F2EBD9"/>
<path d="M78.129 7.52275L76.9012 10.3086L76.6617 10.8551L76.3389 11.6038L74.6852 10.3086L75.6468 9.47051L76.4221 8.78813L77.9926 7.41674C78.0525 7.36374 78.1656 7.43993 78.129 7.52275Z" fill="#F2EBD9"/>
<path d="M79.1305 30.2334C79.0973 30.2433 79.0773 30.2566 79.054 30.2698C79.0773 30.2632 79.0973 30.2467 79.1305 30.24C79.1738 30.2268 79.217 30.2069 79.2636 30.1804C79.217 30.2036 79.1738 30.2168 79.1305 30.2334ZM4.89117 51.8377H4.90115C4.95439 51.7714 5.01428 51.7085 5.07085 51.6456C5.01096 51.7085 4.95439 51.7714 4.89117 51.8377ZM5.29711 57.2835C5.29711 57.2835 5.2838 57.2934 5.27382 57.2934C5.31042 57.2934 5.34369 57.2934 5.38362 57.2934C5.35034 57.2934 5.32705 57.2934 5.30043 57.2835M9.12686 55.816L9.05033 55.8922C9.07695 55.869 9.10024 55.8458 9.12686 55.826C9.14017 55.8094 9.15348 55.7962 9.16679 55.7862C9.15348 55.7962 9.13684 55.8061 9.12686 55.8193M12.6805 48.3397C12.6572 48.4092 12.6372 48.4722 12.6206 48.5417C12.6472 48.4589 12.6705 48.386 12.6971 48.3132C12.6871 48.3132 12.6838 48.3297 12.6838 48.3397M13.103 47.1803C13.093 47.2035 13.0864 47.2233 13.0797 47.2465C13.1163 47.1438 13.1596 47.0445 13.2028 46.9484C13.1662 47.0246 13.133 47.1041 13.103 47.1803ZM16.4803 40.9229V40.9295C16.5834 40.8832 16.6832 40.8269 16.7731 40.7672C16.6866 40.8269 16.5834 40.8765 16.4803 40.9229ZM14.8565 50.0589C14.8499 50.0092 14.8432 49.9562 14.8332 49.9065C14.8465 50.0158 14.8565 50.1317 14.8698 50.2377C14.8998 50.4564 14.9264 50.675 14.9597 50.8903C14.9231 50.6121 14.8865 50.3338 14.8532 50.0589M10.3546 60.9538C10.3081 61.02 10.2715 61.0896 10.2349 61.1558C10.2715 61.0929 10.318 61.0233 10.3646 60.9538C10.3779 60.9239 10.4012 60.8941 10.4245 60.8643C10.4012 60.8875 10.3779 60.9173 10.3546 60.9538ZM3.31402 78.0066V78.0132C3.42049 78.0132 3.52031 78 3.62346 77.9834C3.51699 77.9967 3.42049 78.0066 3.31402 78.0066ZM26.0763 35.4473L26.0696 35.4407C26.0763 35.4639 26.0796 35.4904 26.0863 35.5136C26.0863 35.4937 26.0796 35.4705 26.073 35.4473M28.249 38.8923C28.2024 38.8427 28.1592 38.7963 28.1126 38.7499C28.1525 38.7963 28.1925 38.8427 28.2424 38.8923C28.259 38.9122 28.279 38.9321 28.2989 38.952C28.2823 38.9321 28.2657 38.9122 28.249 38.8923ZM32.0189 40.3101C31.959 40.3432 31.8958 40.3697 31.8392 40.4062C31.9058 40.3797 31.969 40.3465 32.0255 40.32C32.0688 40.2969 32.1154 40.2637 32.1719 40.2372C32.1154 40.2637 32.0621 40.2869 32.0189 40.3101ZM35.1998 27.0203C35.1998 27.0203 35.1898 27.0103 35.1865 27.0203C35.1932 27.0203 35.1998 27.0269 35.1998 27.0302C35.3063 27.0733 35.4061 27.1163 35.5093 27.166C35.4028 27.1163 35.303 27.0666 35.1998 27.0203ZM35.5825 41.7709L35.5725 41.7776L37.2727 43.1489L35.5825 41.7742V41.7709ZM38.4406 38.9089C38.3941 38.9188 38.3574 38.9255 38.3175 38.9321C38.3541 38.9255 38.4007 38.9255 38.4406 38.9188C38.4772 38.9089 38.5039 38.9089 38.5371 38.9056C38.5039 38.9056 38.4772 38.9122 38.4406 38.9122M37.7785 43.1953L39.0795 44.4243V44.4143L37.7785 43.192V43.1953ZM39.2492 44.792L40.6799 45.471V45.4611L39.2492 44.7886V44.792ZM43.2752 7.54925C43.2586 7.44656 43.2353 7.34387 43.222 7.24118C43.2386 7.34387 43.2553 7.44656 43.2752 7.54925ZM43.4782 8.37075C43.4216 8.19188 43.3684 8.00306 43.3351 7.81425C43.3118 7.72812 43.2952 7.63868 43.2752 7.54593C43.3251 7.8275 43.385 8.10575 43.4682 8.36744H43.4782V8.37075ZM43.8808 23.0419C43.8808 23.0419 43.8542 23.0254 43.8442 23.0121C43.8542 23.022 43.8675 23.0353 43.8808 23.0452C43.8808 23.0452 43.8808 23.0452 43.8808 23.0386M43.9573 23.0949C43.9341 23.0817 43.9108 23.0651 43.8908 23.0452C43.9108 23.0684 43.9341 23.0817 43.9573 23.0982C43.964 23.1049 43.9707 23.1082 43.974 23.1082C43.9673 23.1082 43.964 23.0982 43.9573 23.0949ZM44.1603 31.4988C43.9773 31.6644 43.8143 31.8201 43.6546 31.9692C43.8109 31.83 43.9773 31.671 44.1603 31.5054L46.6192 30.1837L44.1603 31.4955V31.4988ZM46.7057 11.3421C46.6492 11.1864 46.5893 11.0208 46.5294 10.8618C46.5893 11.0175 46.6392 11.1831 46.6957 11.3421C46.7323 11.4613 46.7789 11.5839 46.8155 11.7098C46.7789 11.5839 46.7357 11.4613 46.7057 11.3421ZM49.7569 10.9148C49.8068 10.9015 49.8434 10.8916 49.8434 10.8916V10.885C49.8434 10.885 49.8068 10.8916 49.7569 10.9148ZM50.3026 3.61397H50.2959C50.3325 3.66034 50.3724 3.70009 50.4124 3.74647C50.3791 3.70009 50.3392 3.66034 50.3026 3.61397ZM50.8083 7.44656C50.7784 7.43993 50.7617 7.43993 50.7617 7.43993V7.44656C50.7617 7.44656 50.785 7.44656 50.8316 7.4565C50.8416 7.4565 50.8516 7.4565 50.8649 7.4565C50.8449 7.4565 50.8249 7.44987 50.8083 7.44656ZM50.8516 18.941C50.8516 18.941 50.7318 18.8748 50.5554 18.7986C50.7318 18.8814 50.8416 18.9476 50.8516 18.9476C51.1976 18.941 51.364 18.9344 51.4738 18.898C51.364 18.9278 51.1976 18.9344 50.8516 18.941ZM51.1244 14.4658C51.1244 14.4658 51.1178 14.4757 51.1111 14.479C51.2309 14.4426 51.3507 14.4128 51.4705 14.3697C51.3573 14.3929 51.2442 14.4294 51.1244 14.4625M52.2191 7.53931C52.1359 7.54925 52.0394 7.54925 51.9329 7.54925C52.0361 7.55918 52.1326 7.55918 52.2158 7.54925C52.2657 7.53931 52.3123 7.536 52.3588 7.51943C52.3123 7.53268 52.2657 7.53931 52.2191 7.53931ZM55.8259 12.3955C55.7694 12.4087 55.7161 12.422 55.6562 12.4319C55.5963 12.4452 55.5364 12.4584 55.4766 12.465C55.5697 12.4518 55.6562 12.4319 55.7494 12.4153C55.8093 12.4021 55.8659 12.3855 55.9224 12.369C55.8925 12.3789 55.8625 12.3855 55.8293 12.3922M58.4545 8.14219C58.4146 8.10575 58.3846 8.07925 58.3447 8.03619C58.3081 7.99312 58.2782 7.97656 58.2349 7.93681C58.3347 8.13888 58.4545 8.3045 58.5643 8.47013C58.5277 8.36081 58.4811 8.2515 58.4545 8.14219ZM60.045 8.96038C59.9851 8.95044 59.9252 8.93719 59.8686 8.92394C59.9252 8.94713 59.9851 8.96038 60.045 8.97032C60.0583 8.97032 60.0716 8.97032 60.0816 8.97694C60.0683 8.97694 60.055 8.96369 60.045 8.96369M60.4077 8.55625H60.3977L60.4309 8.59269C60.4309 8.59269 60.4143 8.5695 60.4043 8.55625M64.4537 28.7792C64.4437 28.8885 64.437 29.0012 64.4437 29.1105C64.4437 29.0012 64.4537 28.8885 64.457 28.7792C64.4637 28.713 64.4637 28.6434 64.467 28.5771C64.467 28.6434 64.4537 28.713 64.4537 28.7792ZM64.5402 24.9764C64.4038 24.9334 64.264 24.8903 64.121 24.8439C64.2607 24.8903 64.4005 24.9367 64.5402 24.9797C64.5635 24.9797 64.5835 24.9897 64.6067 24.9963C64.5835 24.9864 64.5635 24.9797 64.5402 24.9731M67.8709 17.6856C67.8575 17.722 67.8409 17.7518 67.8243 17.7949C67.8409 17.7551 67.8642 17.7253 67.8808 17.6856C67.8908 17.6657 67.8941 17.6458 67.9041 17.6259C67.8941 17.6425 67.8842 17.6624 67.8709 17.6856ZM68.0572 17.3444C68.0805 17.3179 68.0971 17.2914 68.1204 17.2649V17.2483C68.0971 17.2814 68.0805 17.3113 68.0572 17.3444ZM65.7214 47.071C65.6549 47.1637 65.5817 47.2565 65.5085 47.3426C65.585 47.2565 65.6615 47.1637 65.7314 47.071C65.7746 47.008 65.8179 46.9418 65.8611 46.8821C65.8179 46.9418 65.7713 47.008 65.7247 47.071M65.1158 47.7567C65.0925 47.7798 65.0759 47.803 65.0526 47.8328C65.0792 47.803 65.1025 47.7798 65.1258 47.7567C65.2356 47.6507 65.3454 47.5413 65.4419 47.4254C65.3388 47.5413 65.2323 47.6507 65.1192 47.7567M56.4947 50.5723C56.4348 50.6121 56.3783 50.6551 56.3217 50.6982C56.3217 50.6982 56.3084 50.7114 56.3051 50.7114C56.2685 50.7412 56.2319 50.7711 56.1953 50.8009C56.2285 50.7744 56.2618 50.7512 56.2917 50.7346V50.728C56.2917 50.728 56.3017 50.7214 56.3051 50.7181C56.335 50.6982 56.365 50.6783 56.3949 50.6584C56.4282 50.6319 56.4648 50.6087 56.5014 50.5856C56.6511 50.4762 56.8141 50.3769 56.9705 50.2874C56.8075 50.3702 56.6478 50.4729 56.4914 50.5789M56.1387 50.8539L56.1587 50.834C56.1287 50.8572 56.0988 50.8804 56.0721 50.9036C56.0954 50.8903 56.1154 50.8704 56.1387 50.8539ZM70.5028 10.9976C70.5028 10.9976 70.4895 10.9744 70.4795 10.9611C70.4795 10.9744 70.4895 10.9876 70.4928 10.9976C70.5028 11.0075 70.5094 11.0208 70.5161 11.034C70.5161 11.0208 70.5028 11.0108 70.5028 10.9976ZM67.252 7.09874V7.10868C67.2852 7.12193 67.3152 7.13849 67.3451 7.14512C67.3152 7.13187 67.2819 7.11199 67.252 7.09874ZM66.2438 8.33763C66.2571 8.38069 66.2804 8.42044 66.2937 8.4635H66.3037C66.2837 8.42375 66.2638 8.38069 66.2438 8.33763ZM61.7952 7.42006C61.7153 7.42006 61.6388 7.43 61.5589 7.43331C61.682 7.55256 61.8018 7.64862 61.9316 7.73143L61.7985 7.41674L61.7952 7.42006Z" fill="#F2EBD9"/>
<path d="M56.3118 50.7147C56.3118 50.7147 56.3018 50.7247 56.2984 50.7247V50.7313C56.3352 50.7015 56.3686 50.6783 56.4053 50.6518C56.3753 50.6717 56.3452 50.6916 56.3151 50.7114" fill="#F2EBD9"/>
<path d="M81.1304 26.3412C81.1171 26.1524 81.0605 25.9569 81.0206 25.7416C80.7943 24.7313 80.3884 23.7342 80.0357 22.7372C79.8793 22.237 79.7362 21.7335 79.5998 21.2233C79.4667 20.7132 79.3436 20.2064 79.2305 19.6863C78.931 18.4143 78.6349 17.1556 78.209 15.91C77.9894 15.231 77.67 14.5585 77.3272 13.9126C77.3073 13.8662 77.2773 13.8165 77.2441 13.7602C77.1609 13.6112 77.071 13.4621 76.9812 13.3196C76.8914 13.1673 76.7949 13.0248 76.6884 12.8791C76.6518 12.8228 76.6119 12.7731 76.5719 12.7234C76.542 12.6803 76.5121 12.6406 76.4754 12.5942C76.3324 12.3988 76.1826 12.21 76.0163 12.0377C75.9298 11.9416 75.8366 11.8456 75.7468 11.7462C75.6902 11.6932 75.637 11.6336 75.5737 11.5872C75.4939 11.5143 75.4207 11.4381 75.3375 11.3752C75.2177 11.2692 75.0913 11.1698 74.9648 11.0771C74.8584 10.9943 74.7519 10.9181 74.6421 10.8518C74.4391 10.7193 74.2229 10.5901 73.9933 10.4808C74.1463 9.98394 74.2927 9.48375 74.4358 8.98687C74.4591 8.90737 74.4824 8.83118 74.5057 8.75168C74.6022 8.42043 74.702 8.09249 74.7985 7.75792C74.9282 7.31736 75.0613 6.88673 75.1911 6.44285C75.2044 6.35673 75.1013 6.2706 75.0181 6.34016C74.6421 6.68467 74.2794 7.03579 73.9034 7.38692C73.7836 7.49623 73.6506 7.62542 73.5341 7.76124C73.4077 7.89042 73.2812 8.03286 73.1548 8.17861C73.025 8.32105 72.8952 8.47012 72.7688 8.62912C72.5791 8.85768 72.3862 9.10943 72.1899 9.34462C72.0002 9.59637 71.8105 9.8415 71.6275 10.0866C71.5743 10.1595 71.5177 10.2324 71.4612 10.3053C71.2748 10.557 71.0885 10.8054 70.9122 11.0373C70.799 11.1499 70.636 11.1499 70.5428 11.0473C70.5362 11.0373 70.5295 11.0274 70.5195 11.0208C70.5129 11.0075 70.5062 10.9976 70.4962 10.9876C70.4962 10.9744 70.4829 10.9644 70.4829 10.9512C70.4829 10.9379 70.4696 10.9181 70.4696 10.9015C70.4563 10.8684 70.4463 10.8386 70.4363 10.8121C70.3864 10.6166 70.3565 10.3914 70.2933 10.2059C70.2533 10.0734 70.1968 9.93425 70.1369 9.79844C70.1302 9.77525 70.1236 9.75538 70.1103 9.73219C70.0404 9.5765 69.9605 9.42744 69.8674 9.27506C69.8042 9.14918 69.7243 9.02 69.6411 8.90074C69.3916 8.53968 69.0921 8.22168 68.7461 7.94011C68.623 7.84736 68.4998 7.76124 68.3734 7.66517C68.2636 7.5923 68.1438 7.51942 68.024 7.45648C67.9641 7.42005 67.8976 7.38692 67.8344 7.3538C67.6747 7.29086 67.5083 7.21467 67.3486 7.13186C67.3186 7.12192 67.2887 7.10867 67.2554 7.09542C67.4052 7.46642 67.5349 7.85067 67.6614 8.23824C67.7911 8.62581 67.9142 9.01006 68.0473 9.391C67.9142 9.12931 67.7712 8.89412 67.6015 8.67218C67.5549 8.61256 67.505 8.54962 67.4551 8.48999C67.3652 8.38399 67.2754 8.28462 67.1789 8.18855C67.1689 8.1753 67.1589 8.16868 67.1523 8.16205C67.0624 8.07924 66.9726 7.99643 66.8794 7.91361C66.7563 7.80761 66.6266 7.71155 66.4868 7.62211C66.377 7.54261 66.2639 7.47636 66.1541 7.41011C66.1541 7.41011 66.1541 7.41011 66.1441 7.41011C66.0775 7.36705 66.0077 7.33061 65.9278 7.29086C65.8713 7.25773 65.8147 7.23123 65.7515 7.19811C65.5019 7.07886 65.2424 6.97286 64.9695 6.87679C64.9196 6.86354 64.8398 6.8271 64.7932 6.81385C65.4021 7.15836 65.8846 7.63536 66.1873 8.20843C66.2073 8.24486 66.2239 8.29124 66.2439 8.33099C66.2606 8.37405 66.2805 8.41712 66.3038 8.45687V8.46349C66.3038 8.46349 66.2938 8.46349 66.2938 8.45687C66.194 8.40055 66.0909 8.34755 65.9944 8.29786C65.7714 8.18524 65.5518 8.07924 65.3289 7.99311C65.2557 7.95999 65.1825 7.93349 65.1026 7.90699C64.9396 7.84074 64.7699 7.78111 64.5969 7.73142C64.517 7.70492 64.4372 7.68174 64.3507 7.66186C64.1477 7.60555 63.9414 7.55917 63.7318 7.52605C63.6519 7.5128 63.5787 7.49955 63.5055 7.48961C63.4589 7.47967 63.409 7.47305 63.3591 7.46973C63.2526 7.45648 63.1495 7.44323 63.0463 7.4333C62.9399 7.42336 62.8301 7.42005 62.7136 7.41011C62.6504 7.41011 62.5805 7.41011 62.5173 7.41011C62.2811 7.40017 62.0382 7.41011 61.792 7.42005L61.925 7.73474C61.925 7.73474 61.9616 7.76786 61.9849 7.77117C61.9949 7.78111 61.9982 7.78774 62.0116 7.79105C62.0215 7.80099 62.0282 7.80099 62.0448 7.8043C62.0914 7.84074 62.1446 7.87386 62.1946 7.90699C62.2511 7.9368 62.301 7.95668 62.3509 7.97986C62.4674 8.03286 62.5739 8.07924 62.6837 8.10574C62.7535 8.13224 62.8168 8.16205 62.88 8.18855C62.9465 8.21505 63.0131 8.23824 63.073 8.26143C63.0996 8.27137 63.1295 8.2813 63.1595 8.28793C63.2526 8.32105 63.3491 8.34424 63.4589 8.35418C63.4889 8.35418 63.5188 8.3608 63.5521 8.3608C63.5821 8.36743 63.6153 8.36743 63.6519 8.36743C63.449 8.45355 63.256 8.51649 63.053 8.55955C62.9998 8.5728 62.9432 8.58605 62.8966 8.59268C62.8334 8.60262 62.7635 8.61256 62.697 8.62249C62.6204 8.62912 62.5373 8.63574 62.4641 8.63574C62.4341 8.64568 62.4108 8.64568 62.3809 8.64568C62.1946 8.64568 62.0082 8.63574 61.8252 8.60593C61.7587 8.59599 61.6888 8.58274 61.6189 8.56949C61.5823 8.56287 61.5357 8.55293 61.4991 8.53968C61.4492 8.52643 61.3993 8.50987 61.3494 8.49662C61.1398 8.43699 60.9335 8.35087 60.7405 8.24486C60.6973 8.21836 60.644 8.19186 60.6008 8.16536C60.5808 8.15543 60.5608 8.14218 60.5409 8.13224C60.461 8.08586 60.3878 8.03618 60.3213 7.98649C60.2281 7.92024 60.1416 7.85067 60.0584 7.77449C59.9786 7.71155 59.9053 7.64199 59.8388 7.56911C59.749 7.47967 59.6625 7.38361 59.5859 7.28423C59.6092 7.36705 59.6625 7.41673 59.6791 7.50948C59.6924 7.54923 59.7124 7.58898 59.7357 7.63205C59.7723 7.70824 59.8055 7.78774 59.8488 7.86061C59.8854 7.93349 59.9353 8.00636 59.9785 8.07924C60.0917 8.23493 60.2115 8.37737 60.3479 8.50655C60.3545 8.5198 60.3612 8.52974 60.3778 8.54299C60.3878 8.55293 60.3945 8.55624 60.4011 8.56949H60.4111C60.4111 8.56949 60.4311 8.59268 60.4377 8.60262L60.4743 8.63906L60.5375 8.70862C60.6806 8.83449 60.847 8.95374 61.02 9.04318H60.8237C60.6673 9.04318 60.4943 9.06306 60.3146 9.02662H60.2913C60.2547 9.02662 60.2048 9.02 60.1715 9.01337C60.1482 9.01337 60.125 9.00343 60.0983 9.00012C60.0983 9.00012 60.095 8.99791 60.0884 8.99349C60.0884 8.99349 60.0651 8.99349 60.0518 8.98687C59.9952 8.97693 59.932 8.96368 59.8754 8.94049C59.8188 8.92724 59.7656 8.90406 59.6991 8.88418C59.556 8.85106 59.4029 8.78812 59.2465 8.71193C59.1367 8.66224 59.0369 8.60593 58.9304 8.54299L58.9072 8.5198C58.8705 8.49993 58.834 8.47343 58.7974 8.44693C58.7574 8.4138 58.7142 8.38399 58.6709 8.34755C58.5977 8.29124 58.5278 8.2283 58.4546 8.15874C58.4846 8.26805 58.5278 8.37737 58.5644 8.48668C58.5877 8.50987 58.601 8.54299 58.6243 8.56949C58.7275 8.70199 58.8373 8.83118 58.9604 8.95374C59.017 9.01006 59.0702 9.06306 59.1301 9.11937C59.2266 9.2055 59.3264 9.29825 59.4295 9.38106C59.4761 9.39431 59.5061 9.42744 59.5427 9.44731C59.5626 9.46719 59.5926 9.48375 59.6325 9.50031C59.7423 9.58975 59.8688 9.67919 59.9952 9.72556C60.0085 9.74875 60.0285 9.74875 60.0285 9.76531C60.1383 9.815 60.2381 9.85144 60.3446 9.90444C60.4078 9.921 60.4577 9.96738 60.5276 9.98394H60.5375C60.5375 9.98394 60.5342 9.98615 60.5276 9.99056C60.4045 10.027 60.2847 10.0767 60.1715 10.1131C60.1216 10.1264 60.075 10.1429 60.0251 10.1595C59.9719 10.1728 59.922 10.1893 59.8721 10.2026C59.7623 10.239 59.6525 10.2754 59.536 10.3119C59.5061 10.3218 59.4761 10.3318 59.4462 10.3417C59.4063 10.3549 59.363 10.3715 59.3264 10.3814C59.2066 10.4179 59.0968 10.4609 58.9804 10.4974C58.8273 10.5471 58.6809 10.5934 58.5312 10.6398C58.4912 10.6531 58.4413 10.6763 58.3947 10.6895C58.3881 10.6895 58.3814 10.6961 58.3648 10.6961C58.3149 10.7193 58.255 10.7425 58.1984 10.7558C57.7792 10.8916 57.35 11.0307 56.9307 11.1599C56.8342 11.193 56.7411 11.2195 56.6446 11.2526C55.9092 11.4945 55.1706 11.7363 54.4352 11.9748C54.1225 12.0741 53.8097 12.1801 53.4969 12.2762C53.7598 12.3756 54.0359 12.4451 54.3188 12.4816C54.3886 12.4915 54.4618 12.5015 54.5317 12.5048C54.5816 12.5114 54.6282 12.5147 54.6748 12.518C54.9443 12.528 55.2138 12.518 55.4767 12.4816C55.5366 12.4716 55.5965 12.4617 55.6564 12.4485C55.7162 12.4352 55.7695 12.4253 55.826 12.412C55.8593 12.4054 55.8893 12.3988 55.9192 12.3888C55.9492 12.3789 55.9758 12.3723 56.0057 12.3656C56.0689 12.3491 56.1255 12.3325 56.1854 12.3126C56.4715 12.2166 56.7477 12.0775 57.0039 11.9118C56.984 11.9781 56.9607 12.041 56.9374 12.0973C56.8841 12.2232 56.8242 12.3391 56.7544 12.4385C56.7178 12.4882 56.6845 12.5412 56.6446 12.581C56.6113 12.6273 56.5714 12.6671 56.5314 12.7101C56.4948 12.7433 56.4616 12.7731 56.425 12.7996C56.3983 12.8228 56.3684 12.8426 56.3418 12.8592C56.2686 12.9155 56.1854 12.9652 56.1022 13.0149C56.0057 13.0646 55.9059 13.1076 55.7994 13.1474C55.7462 13.1673 55.6896 13.1838 55.6331 13.2037C55.5798 13.217 55.5266 13.2335 55.4734 13.2435C55.2371 13.2998 54.9809 13.3362 54.7247 13.3594C54.6049 13.3693 54.4818 13.376 54.362 13.3859C54.1957 13.3925 54.0293 13.3992 53.8696 13.4091C53.4836 13.4323 53.1109 13.4886 52.7483 13.6012C52.156 13.7801 51.6037 14.0815 51.1245 14.479C51.2443 14.4459 51.3541 14.4095 51.4706 14.3863C52.2991 14.1809 53.0278 14.1643 53.8496 14.5618C52.8115 15.4364 51.3508 15.804 50.0232 15.5225C50.6154 16.5328 51.8333 17.1688 53.0311 17.0794C53.0211 17.0893 52.9812 17.0992 52.9013 17.1224C52.8048 17.1456 52.6717 17.1821 52.5253 17.2152C52.1993 17.2881 51.8199 17.3709 51.78 17.3941C51.6802 17.5365 51.6669 17.6624 51.6835 17.7816C51.6835 17.7949 51.6902 17.8048 51.6935 17.8181C51.6935 17.8346 51.7035 17.8545 51.7068 17.8777C51.7434 18.0102 51.8166 18.1327 51.8399 18.2686C51.8499 18.2818 51.8532 18.2984 51.8532 18.3182C51.8765 18.4408 51.8532 18.57 51.7401 18.7091C51.6403 18.8218 51.597 18.8847 51.4806 18.9112C51.3708 18.9443 51.2044 18.9543 50.8583 18.9609C50.8484 18.9609 50.7386 18.8979 50.5622 18.8118C50.5123 18.7886 50.4424 18.7621 50.3792 18.729C50.3459 18.7158 50.3093 18.6992 50.2727 18.6826C50.2095 18.6528 50.1297 18.623 50.0565 18.6031C49.96 18.57 49.8601 18.5435 49.757 18.5236C49.6538 18.5004 49.5507 18.4938 49.4542 18.4938C49.4442 18.4938 49.4376 18.4938 49.4243 18.4938C49.391 18.4938 49.3644 18.4938 49.3344 18.5037C49.2945 18.5037 49.2579 18.517 49.2213 18.5269C49.1481 18.5435 49.0816 18.5799 49.0217 18.6263C48.8653 18.7588 48.6656 19.0238 48.4893 19.0569C48.3994 19.0934 45.8008 18.9476 45.4381 18.9476C45.2485 18.9476 44.8958 18.9609 44.7161 18.8748C44.41 18.7224 44.766 18.3348 44.8692 18.1526C45.3549 17.2549 45.8441 16.3539 46.3332 15.4562C46.4164 15.2972 46.5095 15.1415 46.5727 14.9859C46.8156 14.4194 46.9587 13.7801 46.982 13.164V13.0381C46.982 12.9785 46.982 12.9122 46.972 12.8526C46.9654 12.6439 46.9354 12.4352 46.9188 12.2199C46.9088 12.147 46.9055 12.0675 46.8855 11.9946C46.8689 11.8986 46.8456 11.7992 46.8223 11.7098C46.7857 11.5839 46.7358 11.4613 46.7025 11.3421C46.6459 11.1831 46.5927 11.0174 46.5361 10.8618C46.4663 10.7061 46.403 10.5537 46.3265 10.398C46.3099 10.3715 46.2899 10.3351 46.2633 10.292C46.2267 10.2357 46.1768 10.1628 46.1236 10.0866C46.087 10.0369 46.0537 9.98725 46.0171 9.93756C46.0038 9.90775 45.9838 9.88125 45.9672 9.85806C45.9106 9.762 45.8574 9.67588 45.8374 9.603C45.8307 9.57981 45.8241 9.55662 45.8241 9.53675V9.5235C45.884 9.54337 45.9406 9.56987 46.0004 9.60631C46.0237 9.61956 46.047 9.63281 46.0736 9.65269C46.1202 9.6825 46.1635 9.71894 46.2101 9.75869C46.2433 9.7885 46.27 9.81831 46.2999 9.84813C46.3165 9.868 46.3365 9.88788 46.3531 9.90444C46.5661 10.1429 46.7258 10.4411 46.8489 10.6796C46.962 10.9114 47.1783 11.2824 47.1783 11.5508C47.2682 11.5673 47.3347 11.5673 47.4112 11.5673H47.6375C47.734 11.5673 47.8538 11.6203 47.9769 11.6833C48.0767 11.7363 48.1765 11.7893 48.2697 11.8257C48.283 11.8257 48.303 11.8489 48.3462 11.8489C48.5359 11.882 48.7289 11.7959 48.8619 11.6402C48.9551 11.5342 49.0616 11.4514 49.1614 11.3785C49.2679 11.3023 49.361 11.2228 49.4442 11.1433C49.4575 11.1301 49.4842 11.1168 49.5074 11.0936C49.5307 11.0804 49.5607 11.0473 49.584 11.0241C49.6439 10.9678 49.7137 10.928 49.7603 10.9148C49.8102 10.8916 49.8468 10.8849 49.8468 10.8849L49.9034 10.5669C49.9034 10.5669 50.1097 10.5537 50.1629 10.5173C50.1962 10.4709 50.1962 9.87463 50.1962 9.87463C50.1962 9.87463 50.306 9.90113 50.4225 9.88788C50.4458 9.88788 50.469 9.88125 50.4923 9.87463C50.6421 9.85806 50.7785 9.75538 50.6188 9.38769C50.5955 9.33137 50.5822 9.26844 50.5655 9.2055C50.5655 9.19556 50.5556 9.17568 50.5556 9.16243C50.5422 9.11275 50.5323 9.05643 50.5256 9.00675C50.5023 8.86099 50.499 8.72187 50.499 8.60262C50.4923 8.4933 50.499 8.40718 50.5056 8.35749C50.5289 8.18524 50.7352 7.97324 50.7352 7.97324L50.7585 7.44986V7.44323C50.7585 7.44323 50.7752 7.44323 50.8051 7.44986C50.8184 7.45648 50.8384 7.4598 50.8617 7.46311C50.8816 7.46973 50.9116 7.47305 50.9415 7.47305C50.9981 7.48298 51.0846 7.4863 51.1711 7.50286H51.2177C51.2776 7.51611 51.3375 7.51611 51.4074 7.52605C51.5804 7.5393 51.7567 7.55586 51.9297 7.55586C52.0395 7.55586 52.1327 7.55586 52.2159 7.54592C52.2625 7.54592 52.3091 7.5393 52.3556 7.52605C52.4422 7.50948 52.5154 7.46642 52.5919 7.41342C52.6318 7.38361 52.6618 7.3538 52.6884 7.31736C52.8048 7.17492 52.9146 6.91986 52.8314 6.73767C52.8048 6.68798 52.7582 6.6416 52.7117 6.60517C52.6218 6.52566 52.5187 6.47266 52.4189 6.42629C52.3856 6.40641 52.3556 6.39316 52.319 6.37991C52.3091 6.37991 52.3057 6.36998 52.2991 6.36666C51.4939 6.0056 50.5522 5.90954 49.6805 5.88635C48.852 5.8731 47.8937 5.99566 47.8937 5.99566C47.8937 5.99566 46.7325 6.36335 47.7173 5.85322C48.7155 5.34641 51.1545 5.52528 51.1545 5.52528V5.25697C51.1545 5.24041 51.1478 5.22384 51.1478 5.20066C51.1478 5.18741 51.1412 5.16753 51.1345 5.14434C51.1245 5.1079 51.1179 5.06815 51.1112 5.03503C51.0879 4.95884 51.0646 4.88597 51.0314 4.80978C51.0247 4.78659 51.0181 4.7634 51.0081 4.74021C50.9914 4.69053 50.9715 4.64415 50.9449 4.59115C50.845 4.38909 50.7319 4.19696 50.6055 4.01477C50.5722 3.97171 50.5456 3.93527 50.5156 3.89552C50.479 3.84583 50.4424 3.79946 50.4092 3.75308C50.3692 3.70671 50.3293 3.66696 50.2927 3.62058C50.2461 3.56096 50.2029 3.51458 50.1496 3.47152C50.103 3.4152 50.0531 3.36883 49.9966 3.31914C49.8934 3.21977 49.7869 3.13033 49.6805 3.05083C49.6272 3.00776 49.5707 2.96801 49.5208 2.93158C49.4875 2.90508 49.4509 2.88189 49.4143 2.86533C49.4043 2.85539 49.391 2.84876 49.381 2.84214C49.2346 2.7527 49.0816 2.68314 48.9119 2.63014C48.4194 2.4877 47.8904 2.42145 47.378 2.40489C47.1517 2.39495 46.9354 2.40489 46.7158 2.41814C46.6093 2.42807 46.5129 2.4347 46.4164 2.45126C46.2733 2.4612 46.1302 2.48439 45.9871 2.5142C45.8807 2.53739 45.7709 2.57051 45.6644 2.59701C45.6145 2.61357 45.5612 2.63014 45.508 2.6467C45.4581 2.66326 45.4115 2.67982 45.3683 2.6997C45.3516 2.6997 45.3383 2.70964 45.325 2.71626C45.2318 2.7527 45.1453 2.79576 45.0555 2.83883C45.0056 2.86864 44.949 2.89514 44.8991 2.92495C44.8292 2.96139 44.766 3.00445 44.7028 3.05083C44.6396 3.08727 44.5763 3.13033 44.5231 3.1767C44.4399 3.23302 44.3634 3.30589 44.2869 3.36883C44.2004 3.46158 44.1072 3.55102 44.024 3.65039C44.0174 3.66364 44.0007 3.67689 43.9941 3.68352C43.9375 3.75971 43.8843 3.82265 43.8377 3.89552C43.8377 3.89552 43.8377 3.89552 43.8377 3.90546C43.8011 3.9419 43.7811 3.98165 43.7545 4.01477C43.678 4.14396 43.6114 4.26652 43.5515 4.38909C43.5049 4.47853 43.4683 4.5779 43.4317 4.66403C43.3785 4.80647 43.3353 4.95884 43.2987 5.11453C43.2621 5.24041 43.2388 5.37291 43.2121 5.50872C43.1888 5.64453 43.1789 5.78035 43.1689 5.91616C43.1689 5.97247 43.1622 6.02879 43.1556 6.09172C43.1556 6.1646 43.1556 6.2441 43.1556 6.31698C43.1556 6.49254 43.1656 6.67142 43.1789 6.85029C43.1889 6.97617 43.1988 7.10867 43.2221 7.23786C43.2521 7.4333 43.2887 7.62874 43.3353 7.81424C43.3685 8.00305 43.4218 8.18855 43.4783 8.37074C43.5515 8.3343 43.9874 8.14549 44.4033 8.00305C44.4333 7.99311 44.4632 7.98318 44.4898 7.97324C44.5165 7.96661 44.5397 7.95999 44.563 7.95668C44.8359 7.8838 44.756 8.00305 44.756 8.00305C44.7061 8.0428 44.6595 8.08918 44.6096 8.12893C44.4799 8.23824 44.3567 8.34424 44.2303 8.45024C43.9874 8.64568 43.6946 8.78812 43.4051 8.89412C43.1489 8.98356 42.8927 9.073 42.6398 9.16906C40.6734 9.87131 38.6936 10.5868 36.7039 11.2824C35.5826 11.6766 34.4646 12.0642 33.3333 12.4485C32.212 12.8294 31.094 13.2037 29.9727 13.5747C29.4437 13.7437 28.8081 14.0318 28.5553 14.5618C28.4355 14.8136 28.4222 15.1051 28.4588 15.3867C28.5652 16.0724 28.8714 16.7912 29.2041 17.3974C29.2407 17.4769 29.2873 17.5497 29.3305 17.6326C29.4204 17.7816 29.5202 17.9307 29.6167 18.0797C29.7165 18.2321 29.8196 18.3779 29.9328 18.5137C30.0991 18.7257 30.2888 18.9178 30.4851 19.0834C29.4237 18.7356 28.1526 16.2545 28.0894 15.549C28.0695 15.6914 28.0395 15.8239 28.0262 15.9664C28.0129 16.0326 28.0029 16.1022 27.9963 16.175C27.9863 16.2413 27.9863 16.3109 27.9863 16.3837V16.4732C27.9963 16.5626 27.9996 16.652 28.0096 16.7514C28.0428 17.0197 28.1194 17.2881 28.2159 17.5431C28.3723 17.9572 28.5852 18.3447 28.8181 18.7124C29.051 19.0801 29.3771 19.4081 29.6633 19.7393C29.7365 19.8188 29.8063 19.9116 29.8762 19.9911C30.0359 20.1998 30.169 20.4217 30.2023 20.69C30.2256 20.753 30.2256 20.8391 30.2256 20.9186C30.2156 20.9418 30.2156 20.9749 30.2156 20.9981C30.2156 21.018 30.2156 21.0478 30.2056 21.061C30.199 21.1074 30.1823 21.1372 30.179 21.177C30.169 21.1935 30.1657 21.2266 30.1557 21.2498C30.1424 21.2929 30.1258 21.336 30.1025 21.3823C30.0858 21.4353 30.0692 21.4916 30.0559 21.5678C29.9594 22.1442 30.006 22.7206 30.1557 23.2605C30.2222 23.4858 30.3121 23.711 30.4186 23.9264C30.5284 24.145 30.6481 24.357 30.7912 24.5557C30.8678 24.6584 30.941 24.7545 31.0241 24.8505C31.094 24.9334 31.1672 25.0062 31.2471 25.0924C31.3103 25.1652 31.3968 25.2414 31.47 25.3077C31.7096 25.5164 31.9758 25.7052 32.2519 25.8708C32.5281 26.0265 32.8309 26.1524 33.1303 26.2584C33.2002 26.2816 33.2734 26.3047 33.3433 26.318C33.3799 26.3279 33.4198 26.3379 33.4564 26.3445C33.5995 26.3776 33.7426 26.4041 33.889 26.4273C33.9622 26.4406 34.0354 26.4472 34.1086 26.4604C34.1219 26.4604 34.1319 26.4604 34.1452 26.4604C34.6875 26.5333 35.2332 26.5797 35.7423 26.7884C35.8754 26.8447 35.9918 26.8944 36.105 26.9341C36.1615 26.9573 36.2148 26.9805 36.268 27.0004C36.431 27.0633 36.5741 27.1229 36.7139 27.1793C36.7837 27.2091 36.8536 27.2356 36.9235 27.2621C37 27.2985 37.0799 27.325 37.1664 27.3648C37.1797 27.3747 37.203 27.3813 37.2196 27.3879C37.2562 27.4012 37.3028 27.4244 37.3461 27.4443C37.376 27.4575 37.406 27.4708 37.4426 27.484C37.4725 27.4973 37.5058 27.5105 37.5424 27.5271C37.6122 27.5569 37.6788 27.59 37.762 27.6264C37.8718 27.6761 38.0015 27.7358 38.1446 27.802C38.1912 27.8252 38.2411 27.8418 38.291 27.8683C38.5905 28.0074 38.9498 28.1796 39.399 28.3949C39.6153 28.5009 39.8382 28.6202 40.0745 28.7527C40.3074 28.8819 40.547 29.0276 40.7932 29.1833C40.8996 29.2463 41.0094 29.3158 41.1226 29.3854C41.3422 29.5278 41.5618 29.6736 41.7847 29.8226C42.2772 30.1473 42.7663 30.4885 43.2188 30.7899C43.3519 30.8793 43.485 30.9688 43.6081 31.0483C43.7312 31.1311 43.8543 31.2106 43.9708 31.2868C43.9708 31.2868 45.1154 30.3957 46.6193 30.1771L44.1604 31.4988C43.9774 31.6611 43.8144 31.8234 43.6547 31.9625C43.5815 32.0354 43.5016 32.1149 43.4284 32.1778C43.3519 32.2474 43.2853 32.3104 43.2188 32.3799C43.0824 32.5124 42.9559 32.6317 42.8428 32.7476C42.8428 32.7476 42.8328 32.7609 42.8295 32.7609C42.7763 32.8105 42.7264 32.8602 42.6798 32.9165L42.5234 33.0722C41.838 33.7944 41.5185 34.2117 41.1692 34.6457C41.0693 34.7749 40.9662 34.8941 40.8497 35.0299C40.6701 35.232 40.4538 35.4572 40.1876 35.7156C40.0978 35.8051 40.0079 35.8945 39.9148 35.9806C39.5488 36.3384 39.1861 36.7094 38.8434 37.0903C38.7635 37.1798 38.6836 37.2725 38.6038 37.3653C38.5306 37.4514 38.4574 37.5408 38.3842 37.6303C38.3709 37.6468 38.3542 37.67 38.3343 37.6899C38.321 37.7131 38.2977 37.7363 38.2844 37.7561C38.2311 37.8224 38.1879 37.8853 38.1346 37.9549L37.5524 38.7035L39.5854 38.6406C39.1794 38.7731 38.9831 38.8261 38.8034 38.8559C38.7202 38.8691 38.6371 38.8791 38.5406 38.8923C38.5073 38.899 38.4807 38.899 38.4441 38.9056C38.4075 38.9155 38.3576 38.9155 38.321 38.9188C38.2378 38.9354 38.1546 38.9586 38.0714 38.9785C37.9516 39.0083 37.8319 39.0546 37.7187 39.1076C37.6389 39.1441 37.5623 39.1905 37.4825 39.2368C37.4093 39.2766 37.3427 39.323 37.2762 39.3727C37.2762 39.3727 37.2662 39.3826 37.2629 39.3826L37.2529 39.3958C37.2163 39.4223 37.1764 39.4521 37.1431 39.4853C37.01 39.6012 36.8802 39.737 36.7738 39.8795L36.2048 40.7805L35.5892 41.7577L37.2795 43.1324L37.752 42.6255H37.762L39.2959 44.0036L39.8016 43.4901L40.3107 42.9701L39.9347 43.6193L39.2593 44.7754L40.69 45.4478L41.3954 44.5799C41.3954 44.5799 41.4254 44.5899 41.4686 44.5998C41.4986 44.5998 41.5252 44.6098 41.5651 44.6164C41.5851 44.623 41.605 44.6263 41.625 44.6263C41.6949 44.6396 41.7814 44.6528 41.8746 44.6727C41.9078 44.6727 41.9478 44.6826 41.9844 44.6859C42.021 44.6959 42.0609 44.6992 42.0975 44.7025C42.1308 44.7091 42.1607 44.7158 42.1907 44.7158C42.2406 44.7158 42.2971 44.729 42.347 44.729C42.4103 44.7389 42.4801 44.7422 42.5467 44.7489C42.5633 44.7489 42.5833 44.7489 42.6032 44.7489C42.6465 44.7489 42.6931 44.7489 42.7363 44.7489C42.8894 44.7588 43.0358 44.7555 43.1722 44.7389C43.2687 44.729 43.3619 44.7091 43.4451 44.6859C43.485 44.676 43.5249 44.6594 43.5582 44.6429C43.6281 44.6098 43.6913 44.5667 43.7345 44.517C43.7578 44.4905 43.7711 44.4607 43.7878 44.4309C43.9308 44.1228 43.821 43.8313 43.6314 43.5829C43.6081 43.5597 43.5848 43.5332 43.5615 43.5034C43.5382 43.4835 43.5183 43.4504 43.4983 43.4272C43.262 43.1887 42.9792 42.9932 42.6764 42.8607C42.6199 42.8376 42.5666 42.8044 42.5467 42.7547C42.5234 42.7017 42.5567 42.6355 42.5933 42.5891C42.6299 42.5427 42.6764 42.503 42.7264 42.493C42.8228 42.4566 42.936 42.493 43.0258 42.5527C43.1556 42.6355 43.2654 42.7415 43.3852 42.8276C43.5282 42.9502 43.678 43.0794 43.8077 43.2119C43.9375 43.3543 44.0473 43.5034 44.1305 43.6756C44.2436 43.9042 44.2869 44.1725 44.2303 44.4375C44.1704 44.6992 44.034 44.8748 43.861 44.9741C43.7745 45.0304 43.678 45.0768 43.5781 45.0934C43.4817 45.1265 43.3785 45.1497 43.2787 45.1629C43.0391 45.1961 42.7962 45.2126 42.5467 45.1994C42.5067 45.1994 42.4602 45.1894 42.4202 45.1861C42.4103 45.1861 42.4036 45.1861 42.3969 45.1861C42.3404 45.1795 42.2871 45.1762 42.2406 45.1663C42.1707 45.153 42.1008 45.1431 42.0376 45.1265C42.0143 45.1166 41.9943 45.1166 41.9777 45.1066C41.9178 45.0934 41.8646 45.0768 41.8113 45.0536C41.8014 45.047 41.7914 45.047 41.7847 45.0437C41.7548 45.0304 41.7315 45.0205 41.7049 45.0072C41.6583 44.9874 41.6184 44.9675 41.5718 44.9443L40.8364 45.9049L38.7302 44.9278L39.0996 44.3911L37.7986 43.1622L37.4891 43.4702C37.4592 43.5001 37.406 43.5796 37.356 43.5796C37.2729 43.5796 37.0033 43.3344 36.9368 43.2748C36.6074 42.9966 36.268 42.7216 35.9353 42.4533C35.7722 42.3208 35.6059 42.185 35.4395 42.0558C35.3896 42.0194 35.333 41.973 35.2964 41.9266C35.2332 41.8471 35.1999 41.7643 35.2665 41.645C35.4462 41.3005 35.6591 40.956 35.8621 40.6182H35.8687C35.882 40.5917 35.8987 40.5685 35.912 40.542C36.1482 40.1842 36.3778 39.8331 36.6074 39.472C37.0433 38.793 37.4259 38.1006 37.945 37.4779C38.3409 37.0009 38.7668 36.5438 39.2027 36.0999C39.5687 35.7289 39.9148 35.3281 40.2641 34.9339C40.5503 34.6026 40.8298 34.2681 41.1159 33.9401C41.3987 33.6089 41.6882 33.2842 41.9877 32.9596C42.1907 32.7509 42.3936 32.5389 42.5999 32.3302C42.8162 32.1182 43.0358 31.9095 43.2621 31.7042C43.4284 31.5617 43.3885 31.4657 43.2521 31.3232C43.1556 31.2272 43.0524 31.1377 42.946 31.0483C42.8827 30.9986 42.8162 30.9489 42.753 30.9025C42.6864 30.8562 42.6199 30.8098 42.5533 30.77C41.5019 30.091 40.4172 29.4483 39.3059 28.872C39.0962 28.7626 38.8866 28.6599 38.6803 28.5606C38.5339 28.4877 38.3809 28.4181 38.2311 28.3453C37.8718 28.1763 37.5091 28.0107 37.1464 27.855C36.7971 27.6927 36.441 27.5403 36.0917 27.3813C35.9186 27.3051 35.7489 27.2323 35.5759 27.1561C35.5593 27.1461 35.5426 27.1395 35.5293 27.1362C35.4262 27.0865 35.323 27.0434 35.2199 27.0004C35.2199 26.9937 35.2099 26.9904 35.2066 26.9904C35.2066 26.9904 35.1966 26.9904 35.1933 26.9838C35.1833 26.9772 35.1766 26.9838 35.1766 26.9838C35.1301 26.9706 35.0901 26.9772 35.0502 26.9838C35.0269 27.0004 35.0036 27.007 34.9803 27.0203C34.8339 27.1329 34.5078 27.3184 34.1618 27.5072C33.9355 27.6364 33.6993 27.7589 33.503 27.855C33.4631 27.8782 33.4265 27.8981 33.3932 27.9146C33.2268 28.0008 33.1037 28.0571 33.0671 28.0703C32.8708 28.1167 28.2192 28.014 27.75 28.014C27.2809 28.014 26.4091 28.2658 26.2295 29.074C26.0731 29.8525 28.7083 31.7572 28.9878 31.9824C29.0111 31.9957 29.0244 31.9957 29.0244 31.9957C29.0244 31.9957 30.2089 32.9099 30.8178 33.1749C31.4334 33.4333 29.3937 33.2114 28.4222 32.3965H28.4122C26.9581 33.2114 23.684 34.6788 23.5643 34.7285C23.3679 34.808 23.1716 34.8676 22.9853 34.9537C22.3465 35.2221 21.7376 35.5632 21.1653 35.9475C20.7893 36.2125 20.4266 36.504 20.0905 36.8121C19.8343 37.0439 19.5848 37.299 19.3552 37.5607C19.1289 37.8191 18.916 38.0907 18.7163 38.3723C18.6897 38.4054 18.6598 38.4451 18.6398 38.4816C18.52 38.6406 18.4069 38.8095 18.2971 38.9851C18.2472 39.058 18.2006 39.1341 18.1474 39.207C18.1241 39.2435 18.1041 39.2766 18.0775 39.313C17.9411 39.5317 17.788 39.747 17.6316 39.949C17.5717 40.0252 17.5085 40.1047 17.442 40.1743C17.3255 40.3002 17.1958 40.436 17.0494 40.5453C16.9695 40.6082 16.8963 40.6645 16.7998 40.7208C16.7998 40.7208 16.7865 40.7275 16.7865 40.7308C16.7 40.7937 16.5968 40.8467 16.4937 40.8931L16.4837 40.903C16.1909 41.0455 15.8748 41.1283 15.5521 41.1945C15.4955 41.2045 15.4423 41.2177 15.3857 41.2277C15.2692 41.2509 15.1528 41.274 15.0363 41.2873C14.9165 41.3072 14.8001 41.3237 14.6803 41.3469C14.4773 41.3767 14.2677 41.4065 14.0714 41.4496C14.0148 41.4662 13.9616 41.4827 13.8984 41.496C13.732 41.5324 13.5723 41.5788 13.4226 41.6285C13.3194 41.6616 13.2196 41.6914 13.1298 41.7345C13.0432 41.7676 12.9501 41.804 12.8669 41.8438C12.797 41.8769 12.7338 41.9034 12.6639 41.9399C12.5774 41.9763 12.4809 42.026 12.4044 42.0724C12.3179 42.1187 12.238 42.1717 12.1548 42.2148C12.0251 42.291 11.902 42.3705 11.7822 42.4665C11.5093 42.6587 11.2531 42.8674 11.0036 43.1026C10.8772 43.2119 10.7574 43.3311 10.6409 43.4603C10.5311 43.5796 10.418 43.7021 10.3148 43.8214L10.2915 43.8446C9.85899 44.3282 9.46969 44.8681 9.10036 45.4279C9.0438 45.5174 8.9839 45.6002 8.93067 45.6929C8.8009 45.8917 8.67446 46.0938 8.55468 46.2991C8.46817 46.4515 8.375 46.5939 8.29182 46.743C8.27851 46.7695 8.26187 46.7993 8.23858 46.8291C8.2286 46.8623 8.20531 46.8888 8.192 46.9186C8.15873 46.9782 8.12878 47.0411 8.09551 47.0908C8.0822 47.1273 8.05891 47.1471 8.03561 47.1836C7.95243 47.3393 7.80936 47.5943 7.70954 47.76C7.58643 47.9819 7.44335 48.2303 7.32357 48.4556C7.13391 48.7835 6.90432 49.1214 6.68805 49.4527C6.65145 49.509 6.61485 49.5785 6.57824 49.6382C6.46844 49.8237 6.3653 50.0191 6.2322 50.1847C6.15235 50.2974 6.07249 50.4133 5.98598 50.5226C5.95271 50.5624 5.91943 50.6087 5.88949 50.6551C5.79299 50.7777 5.6965 50.9035 5.60001 51.0261C5.49021 51.1586 5.38373 51.2944 5.26728 51.4269C5.21071 51.4965 5.15747 51.5594 5.09426 51.6257C5.03769 51.6886 4.9778 51.7515 4.92456 51.8178H4.91458C4.75487 51.9768 4.5885 52.1358 4.41548 52.2849C4.30901 52.3842 4.19255 52.477 4.08275 52.5664C4.07609 52.5764 4.06944 52.583 4.05946 52.5863C3.83985 52.7652 3.61359 52.9308 3.37403 53.0898C3.15442 53.2223 2.93149 53.3283 2.72852 53.4575C2.59876 53.5072 2.49561 53.5602 2.3725 53.6132C2.12628 53.7159 1.88006 53.7954 1.63716 53.8716C1.32106 53.9544 1.00497 54.014 0.705508 54.0273C0.519178 54.0438 0.312883 54.0074 0.133208 54.0703C-0.119669 54.1697 0.14319 54.3254 0.262973 54.3916C0.286265 54.4049 0.322865 54.4281 0.356139 54.4513C0.382757 54.4744 0.419358 54.4877 0.442649 54.4976C0.562433 54.5804 0.705508 54.6533 0.838601 54.7196C1.11477 54.8488 1.40425 54.9548 1.6904 55.0376C1.91333 55.1138 2.12628 55.1634 2.35254 55.1933C2.50892 55.2297 2.66531 55.2694 2.82834 55.2827C3.04795 55.2926 3.27088 55.3357 3.47717 55.3489C4.09273 55.3721 4.70496 55.2926 5.29722 55.1734C5.51683 55.1237 5.72312 55.0574 5.92276 54.9779C6.30873 54.8719 6.67474 54.7328 7.02743 54.544C7.3036 54.3883 7.56646 54.2194 7.83265 54.0372C8.05891 53.8616 8.29182 53.6695 8.47815 53.4741C8.63453 53.2985 8.79425 53.1494 8.93732 52.9672C8.93732 53.0401 8.93067 53.113 8.92734 53.1792C8.92734 53.2223 8.92068 53.2587 8.91403 53.2985C8.91403 53.3548 8.90405 53.4111 8.89407 53.4641C8.88741 53.5237 8.88076 53.5867 8.86412 53.643C8.85081 53.7026 8.84083 53.7622 8.82419 53.8219C8.81088 53.8914 8.79425 53.9544 8.77428 54.0239C8.75765 54.0968 8.73435 54.1664 8.70774 54.2326C8.66115 54.3718 8.60459 54.5076 8.5447 54.6368C8.5081 54.7229 8.46817 54.8024 8.42491 54.8819C8.39497 54.9415 8.36502 54.9978 8.33507 55.0541C8.3018 55.1071 8.26853 55.1601 8.23193 55.2131C8.19533 55.2761 8.15207 55.339 8.10549 55.402C8.06556 55.4583 8.02563 55.5146 7.97905 55.5709C7.94245 55.6206 7.90252 55.6703 7.86259 55.72C7.75945 55.8392 7.6563 55.9551 7.54982 56.0645C7.46664 56.1406 7.38679 56.2135 7.30028 56.2831C7.21376 56.356 7.13058 56.4255 7.04407 56.4851C6.96421 56.5448 6.88103 56.6044 6.79452 56.6574C6.78121 56.6574 6.77788 56.6673 6.7679 56.6706C6.67141 56.7303 6.57492 56.7866 6.47842 56.8363C6.4019 56.8793 6.32204 56.9191 6.24551 56.9555C6.13904 57.0019 6.03589 57.0416 5.92609 57.0847C5.8296 57.1178 5.72312 57.1476 5.61997 57.1808C5.52348 57.2106 5.42033 57.2338 5.31719 57.247C5.34713 57.257 5.37042 57.257 5.4037 57.257C5.66656 57.2802 5.92609 57.2802 6.17896 57.2669C6.20558 57.2669 6.23886 57.257 6.26548 57.257C6.33202 57.247 6.40855 57.2437 6.47842 57.2238C6.50172 57.2172 6.52833 57.2139 6.55495 57.2073C6.56161 57.2073 6.56494 57.2073 6.56826 57.2073C6.80783 57.151 7.08067 57.1013 7.32357 57.0085C7.44335 56.9588 7.54982 56.9058 7.67626 56.8528C7.74281 56.8164 7.80936 56.78 7.87923 56.7435C7.94245 56.7071 8.01232 56.664 8.0822 56.6243C8.09551 56.6243 8.10549 56.6143 8.1188 56.6044C8.16205 56.5812 8.20864 56.5547 8.25522 56.5249C8.35171 56.452 8.45153 56.3825 8.53139 56.3096C8.64119 56.2235 8.75099 56.1539 8.84748 56.0578C8.90405 56.0148 8.95396 55.9717 9.00054 55.9253C9.02716 55.9021 9.05045 55.8823 9.07374 55.8591L9.15027 55.7829C9.15027 55.7829 9.17689 55.7597 9.1902 55.7498C9.20351 55.7365 9.22014 55.7266 9.23345 55.7166C9.2634 55.6935 9.29335 55.6703 9.32329 55.6305C9.43309 55.5212 9.54289 55.402 9.64271 55.2827C9.66933 55.2562 9.69263 55.2297 9.71592 55.1966C9.80908 55.0939 9.89559 54.9813 9.97878 54.8719C9.98876 54.8653 9.99208 54.8587 9.99208 54.8554C10.0021 54.8488 10.0021 54.8454 10.0021 54.8388C10.1119 54.6964 10.215 54.5506 10.3148 54.4016C10.3248 54.3916 10.3281 54.3883 10.3348 54.3751C10.4313 54.226 10.5278 54.0803 10.6143 53.9279C10.6942 53.802 10.7674 53.6728 10.8339 53.5403C10.8738 53.4774 10.9071 53.4144 10.9404 53.3482C11.0136 53.2157 11.0834 53.0766 11.1467 52.9374C11.17 52.8844 11.1833 52.8314 11.2265 52.7652C11.2332 52.7089 11.2764 52.6526 11.2831 52.6095C11.3629 52.4339 11.4428 52.2418 11.5293 52.0629C11.5692 51.9304 11.6258 51.7714 11.689 51.629C11.729 51.4567 11.7988 51.2613 11.8487 51.089C11.862 51.0294 11.882 50.9698 11.9053 50.9102C11.9286 50.824 11.9652 50.7214 11.9951 50.612C12.075 50.3503 12.1515 50.0986 12.2314 49.8402C12.2447 49.7839 12.2613 49.7276 12.2813 49.6746C12.3678 49.3599 12.4643 49.0452 12.5674 48.7372C12.5907 48.6543 12.6107 48.5815 12.6406 48.5086C12.6573 48.439 12.6772 48.3761 12.7005 48.3065C12.7005 48.2966 12.7072 48.2833 12.7138 48.28C12.7638 48.121 12.8103 47.962 12.8702 47.8163C12.8802 47.7831 12.8935 47.7566 12.9035 47.7235C12.9334 47.6374 12.9634 47.5546 12.9933 47.4718C13.0266 47.3989 13.0532 47.326 13.0798 47.2531C13.0865 47.2399 13.0898 47.2266 13.0965 47.2167C13.1031 47.1935 13.1098 47.1736 13.1198 47.1505C13.1497 47.0743 13.1797 46.9948 13.2196 46.9186C13.2795 46.7662 13.3494 46.6238 13.4126 46.478C13.4725 46.3356 13.5457 46.1931 13.6155 46.0507C13.6455 45.9944 13.6754 45.9381 13.712 45.8784C13.752 45.7956 13.7952 45.7194 13.8385 45.6399C13.9183 45.5074 13.9982 45.3716 14.0847 45.2424C14.1646 45.1099 14.2577 44.9807 14.3442 44.8615C14.6171 44.4872 14.9232 44.146 15.2792 43.828C15.399 43.7187 15.5254 43.6094 15.6652 43.5067C15.5554 43.6723 15.4589 43.8379 15.3757 44.0102C14.7735 45.1928 14.6304 46.5244 14.677 47.8958C14.6836 48.0746 14.6903 48.2436 14.7069 48.4125V48.4258C14.7169 48.5616 14.7235 48.6875 14.7402 48.8167C14.7502 48.9028 14.7535 48.9955 14.7601 49.075C14.7601 49.1148 14.7668 49.1545 14.7668 49.181C14.7801 49.2771 14.7901 49.3732 14.8034 49.4659C14.8034 49.499 14.8134 49.5222 14.8134 49.552C14.8234 49.6448 14.8333 49.7375 14.8467 49.827C14.8467 49.8435 14.8533 49.8601 14.8533 49.8733C14.8633 49.923 14.8699 49.976 14.8766 50.0257C14.9099 50.3007 14.9432 50.5789 14.9831 50.8572C15.0197 51.1255 15.053 51.3938 15.0862 51.6621C15.0995 51.7714 15.1162 51.8874 15.1262 51.9967C15.1262 51.9967 15.1262 52.0066 15.1262 52.0099C15.1262 52.043 15.1361 52.0795 15.1361 52.1159C15.1494 52.318 15.1727 52.53 15.1827 52.7287C15.1894 52.8712 15.196 53.0103 15.206 53.1594C15.2193 53.3912 15.2193 53.6264 15.2127 53.8616C15.2127 54.0637 15.1994 54.2591 15.1894 54.4612C15.1661 54.8057 15.1295 55.1469 15.0762 55.4848C15.0663 55.5079 15.0663 55.5311 15.0629 55.5543C15.0563 55.5676 15.0563 55.5875 15.053 55.6007C15.053 55.6106 15.053 55.614 15.053 55.6206C15.0297 55.7597 14.9997 55.8988 14.9698 56.0413C14.9698 56.0413 14.9698 56.0479 14.9598 56.0545C14.9465 56.1274 14.9265 56.197 14.9099 56.2698C14.8633 56.4421 14.8167 56.6077 14.7568 56.7733C14.7369 56.8462 14.7302 56.939 14.6836 57.0019C14.6271 57.1344 14.5505 57.2768 14.4873 57.4226C14.4707 57.4491 14.454 57.4822 14.4441 57.512C14.3975 57.6048 14.3509 57.7141 14.2877 57.8035C13.9483 58.4163 13.4725 58.9066 12.8569 59.2942C12.4942 59.5194 12.0983 59.7082 11.7123 59.9004C11.5892 59.9666 11.4661 60.0295 11.3463 60.1024C11.2698 60.1488 11.1899 60.1952 11.1167 60.2449C11.0435 60.2945 10.9703 60.3442 10.9004 60.4005C10.8173 60.4602 10.7441 60.5297 10.6675 60.6026C10.6442 60.6291 10.6243 60.6523 10.5943 60.6755C10.5477 60.7219 10.4912 60.7682 10.4513 60.8279C10.428 60.8577 10.4047 60.8875 10.3914 60.9173C10.3448 60.9836 10.3015 61.0531 10.2616 61.1194C10.1851 61.2618 10.1285 61.4109 10.0819 61.5599C10.0353 61.7156 9.99874 61.8746 9.97212 62.0303C9.96214 62.0966 9.94883 62.1595 9.93885 62.2224C9.92554 62.2887 9.91223 62.3516 9.90557 62.4146C9.88894 62.5305 9.86897 62.6398 9.86232 62.7524C9.60279 64.6439 9.10701 66.5055 8.43822 68.2844C8.34506 68.546 8.24856 68.7945 8.14209 69.0495C7.91583 69.5895 7.67626 70.1195 7.42671 70.6462C7.17716 71.1596 6.91098 71.6797 6.60819 72.1832C6.55495 72.2627 6.49839 72.3654 6.43517 72.4581C6.342 72.5211 6.27546 72.5973 6.17231 72.6304C5.66656 72.8225 5.17078 72.0904 4.62178 72.16C4.18589 72.2461 4.02951 72.7894 3.95298 73.2432C3.85649 74.0316 3.75001 74.8233 3.64354 75.6083C3.5903 76.0058 3.53707 76.4034 3.48716 76.7909C3.48716 76.7909 3.48716 76.8008 3.48716 76.8042C3.46719 76.9731 3.41728 77.1752 3.37735 77.3805C3.36737 77.4137 3.36072 77.4501 3.35739 77.4832C3.34408 77.576 3.3341 77.6621 3.33077 77.7515C3.33077 77.7946 3.33077 77.841 3.34075 77.884C3.33077 77.9139 3.34075 77.9337 3.34741 77.9635V77.9702C3.45388 77.9702 3.55037 77.9602 3.65685 77.947C3.76 77.9337 3.86647 77.9006 3.97295 77.8774C4.08275 77.8509 4.19255 77.8178 4.29902 77.7814C4.36557 77.7615 4.43212 77.7416 4.49201 77.7184C4.57519 77.6853 4.65838 77.6588 4.74156 77.6257C4.74821 77.6257 4.75487 77.6157 4.76152 77.6157C4.83805 77.5859 4.91125 77.5561 4.9778 77.5296C5.01773 77.5164 5.03436 77.5164 5.07096 77.4965C5.07096 77.4965 5.08095 77.4899 5.08427 77.4832C5.09426 77.4766 5.10091 77.4766 5.10757 77.4766C6.66143 76.7942 8.00234 75.499 8.96394 74.0448C9.00054 73.9786 9.05711 73.9256 9.08705 73.8593C10.3049 71.9878 11.0269 69.8512 11.8088 67.7577C11.882 67.5854 11.9519 67.39 12.0151 67.2078C12.0251 67.1846 12.0384 67.168 12.0484 67.1349C12.0617 67.1051 12.0717 67.0753 12.095 67.0521C12.4743 66.0418 12.9334 65.0248 13.6588 64.2232C14.1978 63.6336 14.87 63.1996 15.5521 62.769C15.7983 62.6365 16.0412 62.4775 16.3074 62.3351C16.4138 62.2854 16.5037 62.2158 16.6068 62.1562C16.7931 62.0502 16.9762 61.9508 17.1658 61.8448C17.2623 61.7918 17.3555 61.7355 17.442 61.6891C17.5318 61.6361 17.6316 61.5798 17.7281 61.5334C17.7747 61.497 17.818 61.4639 17.8712 61.4407C17.9244 61.4109 17.9777 61.391 18.0276 61.3612C18.2239 61.2519 18.3803 61.1492 18.5699 61.0432C18.6731 60.9769 18.7862 60.9239 18.886 60.8477C18.9592 60.8146 19.0158 60.7848 19.079 60.7517C19.2021 60.6821 19.3219 60.6192 19.4417 60.5397C20.0539 60.1952 20.6595 59.8474 21.2751 59.4995C21.5745 59.324 21.884 59.155 22.1867 58.9828C22.3198 58.9099 22.4563 58.8271 22.5894 58.7509C22.4929 58.8635 22.3964 58.9828 22.2899 59.0921C22.25 59.1418 22.2034 59.1948 22.1402 59.2478C22.057 59.3339 21.9671 59.4234 21.8773 59.5161C21.7808 59.6122 21.681 59.7049 21.5778 59.801C21.5479 59.8242 21.5246 59.8474 21.498 59.8639C21.0089 60.3045 20.4698 60.6821 19.9075 61.0134C19.8709 61.0366 19.821 61.0664 19.7778 61.0862C19.6347 61.1724 19.4949 61.2519 19.3419 61.3281C19.2886 61.3612 19.2354 61.3811 19.1855 61.4109C19.0624 61.4639 18.9426 61.5202 18.8328 61.5732C18.6298 61.6593 18.4136 61.762 18.2006 61.8316C18.0675 61.8912 17.9377 61.9177 17.8047 61.974V62.0601C17.7814 62.3351 17.7148 62.6133 17.6749 62.8916C17.625 63.3189 17.5717 63.7363 17.4919 64.1569C17.3987 64.4948 17.2723 64.8393 17.1758 65.1673C17.0826 65.482 16.9994 65.8 16.8663 66.1113C16.7066 66.5287 16.5037 66.9163 16.2974 67.3237C16.1909 67.5225 16.1011 67.7577 15.9813 67.963C15.6253 68.5527 15.2393 69.1357 14.82 69.6789C14.7402 69.7849 14.6404 69.8677 14.5605 69.9704C14.4673 70.04 14.3842 70.1294 14.2976 70.1924C14.118 70.3017 13.945 70.3746 13.732 70.3746C13.5756 70.3547 13.4325 70.3249 13.2961 70.2686C13.0466 70.1659 12.8004 70.0632 12.5608 70.1294C12.4809 70.1592 12.4077 70.2056 12.3478 70.2553L12.2613 70.3481C12.238 70.3845 12.2147 70.4209 12.1915 70.4574C12.1715 70.4806 12.1715 70.517 12.1582 70.5302C12.0816 70.676 12.0484 70.8085 12.0151 70.9509C11.7888 71.8818 11.6624 72.8358 11.6058 73.7964C11.5692 74.4523 11.5493 75.0949 11.5925 75.7375C12.0018 75.6249 12.4077 75.4427 12.787 75.2705C15.562 73.9918 17.7913 71.5936 18.8128 68.7282C18.8461 68.6785 18.8661 68.6454 18.8827 68.5957C19.1123 67.9299 19.302 67.2078 19.4916 66.5122C19.648 65.9225 19.811 65.3362 20.024 64.7963C20.0573 64.7101 20.0939 64.624 20.1305 64.5379C20.1438 64.4915 20.1837 64.4319 20.197 64.3822C20.2835 64.1834 20.37 63.9979 20.4599 63.8224C20.4965 63.7727 20.5364 63.7197 20.5663 63.6634C20.593 63.6071 20.6229 63.5574 20.6628 63.5077C20.7294 63.4017 20.7893 63.3056 20.8658 63.1996C20.919 63.1234 20.9723 63.0506 21.0421 62.981C21.1153 62.8982 21.1852 62.8154 21.2484 62.7326C21.3183 62.6564 21.3915 62.5769 21.4747 62.5073C21.488 62.4874 21.508 62.4709 21.5246 62.4543C21.6577 62.345 21.7908 62.239 21.9339 62.1429C22.067 62.0436 22.22 61.9541 22.3631 61.868C22.5128 61.7819 22.6626 61.6957 22.8123 61.6229C22.962 61.5401 23.1217 61.4672 23.2715 61.3877C23.3247 61.3711 23.3813 61.338 23.4378 61.3148C23.7206 61.1823 24.0068 61.0465 24.2863 60.9041C24.4094 60.8444 24.5392 60.7782 24.6556 60.7086C24.8353 60.6126 25.0083 60.5065 25.1747 60.3939C25.2013 60.3774 25.2246 60.3608 25.2479 60.3475C25.3244 60.3045 25.3976 60.2515 25.4675 60.1952C25.6239 60.0859 25.7769 59.9732 25.9267 59.854C25.9466 59.8407 25.9633 59.8209 25.9766 59.8175C26.1662 59.6619 26.3492 59.5095 26.5223 59.3438C26.5289 59.3306 26.5422 59.3207 26.5555 59.3074C26.7352 59.1352 26.9116 58.9629 27.0846 58.7774C27.6336 58.1911 28.116 57.5319 28.5519 56.8363C28.5885 56.7766 28.6285 56.717 28.6651 56.6541C28.6717 56.6541 28.6717 56.6475 28.675 56.6441C28.7516 56.5183 28.8314 56.3891 28.9046 56.2533C29.0144 56.0545 29.1342 55.8591 29.2374 55.6537C29.3172 55.498 29.4004 55.3291 29.4836 55.1734C29.5035 55.1303 29.5202 55.0906 29.5435 55.0508C29.6034 54.9249 29.6633 54.7991 29.7232 54.6831C29.7897 54.5308 29.8596 54.385 29.9261 54.2293C30.0226 54.0239 30.1091 53.8086 30.2023 53.6033C30.2588 53.4708 30.3088 53.3416 30.352 53.2157C30.5051 52.7851 30.5982 52.3909 30.7047 51.9437C30.7347 51.8377 30.7613 51.7317 30.7879 51.6157C30.8811 51.2514 30.9942 50.8373 31.1606 50.347C37.5856 50.8406 45.8374 50.039 50.6121 45.3849C50.7885 45.2259 50.5023 44.8251 50.4125 44.6826C50.3193 44.5402 50.2228 44.4077 50.1263 44.2719C50.0265 44.1427 49.93 44.0102 49.8269 43.8711V43.8644C49.7237 43.722 49.6339 43.5663 49.5574 43.4007C49.4975 43.2781 49.4476 43.1589 49.401 43.033C49.2945 42.7349 49.2346 42.4202 49.228 42.1121C49.208 41.6715 49.2878 41.221 49.2413 40.7805C49.6272 41.804 50.123 42.8077 50.875 43.616L50.8949 43.6392C51.4839 44.2686 52.3556 44.7919 53.2108 44.8979C54.0393 44.9841 54.8478 44.7389 55.6331 44.4905C56.6446 44.1758 57.6561 43.8611 58.6676 43.5497C58.8805 43.4769 59.0968 43.4073 59.3197 43.3444C59.4994 43.2847 59.6824 43.2284 59.8621 43.1754C60.1749 43.0694 60.4743 42.9767 60.7838 42.8806C60.8337 42.8674 60.8902 42.8508 60.9401 42.8342C61.193 42.7547 61.4459 42.6786 61.6988 42.599H61.7088C61.7886 42.5759 61.8651 42.546 61.945 42.5195C61.9982 42.5063 62.0482 42.493 62.0981 42.4732C62.3776 42.387 62.6637 42.2976 62.9465 42.2049C63.0996 42.1618 63.256 42.1187 63.4157 42.0624C63.3092 42.8177 63.1428 43.5696 62.9199 44.305C62.9066 44.3447 62.8966 44.3911 62.8833 44.4342C62.8767 44.4408 62.8767 44.4507 62.8733 44.464C62.8401 44.5733 62.8068 44.6859 62.7702 44.7952C62.6937 45.0139 62.6205 45.2259 62.5373 45.4313C62.4774 45.6035 62.4075 45.7758 62.3343 45.9414C62.2578 46.1302 62.1779 46.3091 62.0848 46.4946C61.9949 46.6933 61.8984 46.8954 61.7886 47.0875C61.6855 47.283 61.5823 47.4784 61.4659 47.6705C61.0766 48.3396 60.6407 48.9856 60.1516 49.5852C60.0484 49.7177 59.932 49.8535 59.8122 49.986L59.8055 49.9959C59.6392 50.1913 59.4728 50.3802 59.2931 50.559C59.0602 50.8042 58.8107 51.0427 58.5545 51.2779C58.5345 50.9565 58.5112 50.622 58.4912 50.3007C58.4746 50.0953 58.458 49.8899 58.4447 49.6878C58.3349 49.7143 58.2284 49.7475 58.1219 49.7773C57.9189 49.8402 57.7193 49.9098 57.5263 49.9959V50.0025H57.5163C57.5163 50.0025 57.503 50.0125 57.493 50.0125C57.3267 50.0887 57.1769 50.1649 57.0206 50.2543C56.8642 50.3437 56.6978 50.4464 56.5514 50.5557C56.5148 50.5789 56.4815 50.6021 56.4449 50.6286C56.4083 50.6551 56.3751 50.6783 56.3385 50.7081C56.3085 50.7247 56.2752 50.7479 56.242 50.7744C56.2287 50.781 56.2187 50.7909 56.2054 50.8009L56.1854 50.8207C56.1621 50.8373 56.1421 50.8572 56.1189 50.8704C56.1089 50.8804 56.1055 50.8837 56.0956 50.8903C56.0689 50.9102 56.0423 50.9334 56.0157 50.9565C55.9824 50.9864 55.9458 51.0162 55.9126 51.046C55.8127 51.1288 55.7162 51.2182 55.6297 51.3242C55.5266 51.4203 55.4401 51.5164 55.3536 51.6224C55.1972 51.8079 55.0508 52.0033 54.911 52.2087C54.8445 52.3147 54.7813 52.4174 54.7247 52.5201C54.6881 52.5797 54.6515 52.6426 54.6182 52.7022C54.5716 52.7917 54.5317 52.8811 54.4851 52.9706C54.2822 53.4177 54.1324 53.8881 54.0493 54.3751H54.2755C54.3221 54.3751 54.362 54.3751 54.4053 54.3684C54.5816 54.3684 54.7546 54.3618 54.9376 54.3453C55.1573 54.3386 55.3735 54.3154 55.5931 54.2923V54.2823H55.6031C55.6663 54.2823 55.7296 54.2757 55.7961 54.2591C55.9192 54.2525 56.039 54.2293 56.1488 54.2194C56.3385 54.1962 56.5181 54.1631 56.7045 54.1266C56.7976 54.1134 56.8808 54.0968 56.9706 54.0736C57.32 54.0074 57.676 53.9179 58.0221 53.8252C58.1585 53.7888 58.2949 53.7556 58.418 53.7159C58.7175 53.6297 59.0203 53.5436 59.3164 53.4476C59.3164 53.4542 59.3064 53.4575 59.3064 53.4641C59.343 53.4542 59.3929 53.4476 59.4295 53.431C59.5626 53.378 59.6824 53.3416 59.7889 53.2886C59.912 53.2455 60.0318 53.1991 60.1516 53.1527C60.4277 53.0467 60.7072 52.9474 60.9867 52.8414C61.2829 52.7188 61.5723 52.5896 61.8651 52.4671C61.9716 52.4107 62.0748 52.3776 62.1846 52.3246L62.1979 52.3114C63.3924 51.7747 64.5636 51.195 65.7282 50.5789C66.3105 50.2974 66.8894 49.9893 67.3453 49.5322C67.9375 48.9326 68.2703 48.131 68.5864 47.3492C69.3749 45.3584 70.1668 43.3808 70.9754 41.39C71.3946 40.3399 71.7307 38.9553 70.8489 38.2232C70.3598 37.839 69.691 37.8257 69.0588 37.8257H67.9375C67.515 37.8257 67.0957 37.8257 66.6731 37.839H65.8413C65.4786 37.839 65.116 37.8456 64.7566 37.8456H63.3192C62.9432 37.8522 62.5639 37.8522 62.1879 37.8555C60.7937 37.8555 59.3963 37.8688 57.9955 37.8688C59.3996 37.8688 60.4544 36.3119 60.3712 34.9007C60.3579 34.7219 60.3346 34.543 60.3046 34.3707C60.268 34.1985 60.2181 34.0262 60.1616 33.8606C60.1083 33.695 60.0418 33.5294 59.9652 33.3637C59.739 32.8801 59.4495 32.4163 59.1168 31.9758C58.8938 31.6777 58.6576 31.3928 58.4114 31.1178C60.4544 32.4329 61.8053 34.7417 61.9483 37.1566C62.1114 37.087 62.2711 37.0208 62.4142 36.9379C62.4973 36.8883 62.5805 36.8386 62.6571 36.7823H62.6637C62.7203 36.7359 62.7735 36.6961 62.8301 36.6498C64.0778 35.6295 64.5137 33.6817 64.5137 32.0056V31.8963C64.5204 31.5783 64.5137 31.2669 64.5004 30.9489C64.5004 30.7071 64.4871 30.4719 64.4838 30.2334C64.4738 29.8425 64.4705 29.4583 64.4838 29.0773C64.4738 28.968 64.4838 28.8554 64.4937 28.7461C64.4937 28.6798 64.5037 28.6103 64.507 28.5407C64.507 28.4711 64.5204 28.4016 64.527 28.3386C64.547 28.067 64.5869 27.8086 64.6501 27.5469C64.6568 27.4774 64.6734 27.4078 64.6867 27.3449C64.6967 27.2985 64.7067 27.2521 64.7233 27.2057C64.7233 27.1892 64.7366 27.1693 64.7366 27.1494C64.8231 26.8877 64.9196 26.6459 65.0128 26.3942C65.0461 26.3412 65.0694 26.2816 65.096 26.2252C65.1093 26.1921 65.1193 26.1656 65.1326 26.1391C65.1459 26.1093 65.1692 26.0828 65.1891 26.0596C65.269 25.9768 65.3222 25.9867 65.4088 26.0099C65.4088 26.0099 65.4221 26.0099 65.4221 26.0199C65.4553 26.0331 65.482 26.0364 65.5252 26.0464C65.625 26.0729 65.7249 26.0994 65.8247 26.1226C65.9245 26.1491 66.0243 26.1722 66.1208 26.1921C66.1707 26.2054 66.2173 26.2153 66.2672 26.2286C66.4669 26.2749 66.6598 26.3213 66.8561 26.3544C66.8927 26.3644 66.926 26.3776 66.9626 26.3776C66.9626 26.3776 66.9693 26.3876 66.9759 26.3776C66.9859 26.3876 66.9992 26.3876 67.0125 26.3876C67.0491 26.3975 67.0891 26.4008 67.129 26.4107C67.292 26.4472 67.4551 26.4803 67.6214 26.5068C67.7312 26.53 67.8477 26.5532 67.9608 26.5664C67.9741 26.5664 67.9908 26.5764 68.0074 26.5764C68.044 26.583 68.0839 26.5896 68.1272 26.5929C68.2636 26.6161 68.4034 26.6393 68.5464 26.6526C68.7461 26.6857 68.939 26.7089 69.142 26.7387C69.3882 26.7718 69.6411 26.795 69.894 26.8215C69.9406 26.8314 69.9805 26.8347 70.0271 26.8347C70.24 26.8579 70.4596 26.8745 70.6659 26.8911C70.8423 26.9043 71.022 26.9142 71.195 26.9209C71.7806 26.954 72.3662 26.9639 72.9551 26.954C73.7437 26.954 74.5123 26.8745 75.3042 26.7718C75.4307 27.113 75.5737 27.4807 75.7301 27.8351C75.8865 28.1896 76.0695 28.5374 76.2725 28.8488C76.379 29.0044 76.4888 29.1568 76.5986 29.2993C76.715 29.4417 76.8348 29.5676 76.9712 29.6901C77.0577 29.7597 77.1409 29.8226 77.2274 29.8823C77.2507 29.9021 77.2807 29.9187 77.304 29.932C77.3539 29.9651 77.4071 30.0015 77.4603 30.028C77.5169 30.0611 77.5735 30.091 77.6367 30.1175C77.6866 30.1406 77.7332 30.1638 77.7897 30.1771C77.8197 30.1903 77.853 30.2003 77.8862 30.2135C77.8996 30.2135 77.9095 30.2201 77.9228 30.2235C77.9328 30.2235 77.9495 30.2301 77.9594 30.2367C77.9994 30.2466 78.046 30.2599 78.0925 30.2665C78.1258 30.2798 78.1624 30.2864 78.199 30.2897C78.2722 30.303 78.3487 30.3129 78.4286 30.3162C78.5351 30.3162 78.6249 30.2996 78.7247 30.2996C78.8212 30.2864 78.9044 30.2864 78.9976 30.2665C79.0209 30.2665 79.0475 30.2599 79.0807 30.2433C79.104 30.2301 79.124 30.2135 79.1573 30.2036C79.2005 30.1903 79.2438 30.1738 79.2904 30.1506C79.3503 30.1373 79.4201 30.1075 79.48 30.0777C79.6797 29.9717 79.876 29.8425 80.049 29.6868C80.1156 29.6272 80.1821 29.5643 80.2387 29.5013C80.3717 29.3622 80.4915 29.2065 80.598 29.0442C80.6313 28.9912 80.6612 28.9382 80.6978 28.8852C80.6978 28.8852 80.7078 28.8753 80.7078 28.8686C80.7344 28.8223 80.761 28.7759 80.7843 28.7262C80.811 28.6798 80.8343 28.6334 80.8542 28.5904C80.9174 28.4513 80.9673 28.3088 81.0139 28.1631C81.1204 27.855 81.2069 27.5171 81.2069 27.2024C81.2069 26.8877 81.1936 26.5896 81.157 26.3114M42.5799 14.7606C41.5851 16.334 40.9296 18.1029 39.958 19.683C39.8316 19.8851 39.2759 19.4114 39.0497 19.2325L38.8134 19.047C38.8933 18.9642 38.9665 18.8913 39.0363 18.8317C39.0996 18.7522 39.1694 18.6992 39.2327 18.6429C39.2892 18.5733 39.3524 18.517 39.4024 18.4706C39.7184 18.1626 39.9148 17.9804 40.0978 17.8015C40.1344 17.775 40.161 17.7419 40.1943 17.7054C40.3739 17.5166 40.5636 17.3112 40.863 16.9568C41.3821 16.334 42.0808 15.3171 42.55 14.7507C42.5633 14.7275 42.5966 14.7507 42.5833 14.7606M32.3617 40.1147C32.3052 40.1478 32.2519 40.1743 32.2053 40.2008C32.1488 40.2273 32.1022 40.2571 32.0589 40.2836C32.0024 40.3134 31.9391 40.3432 31.8726 40.3697C31.4367 40.5718 30.9543 40.7175 30.4818 40.7175C30.2189 40.7076 29.966 40.6579 29.7198 40.5784C29.6633 40.5618 29.6133 40.542 29.5601 40.5221C29.5468 40.5122 29.5302 40.5088 29.5169 40.5022C29.4503 40.4757 29.3838 40.4459 29.3172 40.4161C29.2673 40.3863 29.2141 40.3598 29.1642 40.33C29.0677 40.277 28.9745 40.2207 28.8847 40.161C28.8214 40.1147 28.7582 40.0683 28.6983 40.0219C28.2125 39.6145 27.7301 39.1308 27.414 38.581C27.3275 38.4253 27.241 38.2795 27.1611 38.1238C27.0979 38.0112 27.0347 37.8953 26.9781 37.776C26.9082 37.6468 26.845 37.521 26.7851 37.3885C26.7419 37.299 26.7019 37.2129 26.6653 37.1268C26.6054 36.9843 26.5455 36.8419 26.4923 36.6961C26.4923 36.6961 26.4901 36.6939 26.4857 36.6895C26.4491 36.5835 26.4091 36.4808 26.3759 36.3781C26.316 36.1993 26.2627 36.0171 26.2128 35.8316C26.1895 35.7587 26.1662 35.6759 26.1496 35.5931C26.1429 35.5566 26.133 35.5169 26.123 35.4804C26.1163 35.4572 26.113 35.4307 26.1063 35.4076L26.113 35.4142L26.469 36.2258C26.5356 36.3583 26.6121 36.4874 26.6886 36.6166C26.9149 37.0174 27.1678 37.4249 27.4406 37.8091C27.4672 37.8489 27.5005 37.8953 27.5304 37.9383C27.6868 38.1603 27.8532 38.369 28.0262 38.571C28.0628 38.624 28.1061 38.677 28.1526 38.7201C28.1992 38.7665 28.2425 38.8128 28.2891 38.8625C28.3057 38.8791 28.3223 38.899 28.339 38.9221L28.3922 38.9751C28.4288 39.0149 28.4621 39.0513 28.502 39.0845C28.5719 39.154 28.6451 39.2203 28.7216 39.2865C28.7948 39.3461 28.8747 39.4058 28.9479 39.4588C29.0277 39.5151 29.1043 39.5648 29.1874 39.6211C29.1874 39.6211 29.1908 39.6211 29.1974 39.6211C29.2773 39.6675 29.3571 39.7105 29.4437 39.7503C29.5135 39.7867 29.5834 39.8198 29.6566 39.8463C29.7198 39.8728 29.7897 39.9027 29.8562 39.9225C29.8795 39.9325 29.9028 39.9358 29.9294 39.9424C29.986 39.9557 30.0392 39.9755 30.0958 39.9855C30.169 40.002 30.2489 40.0153 30.3221 40.0252C31.2537 40.1544 32.1654 39.7702 33.0072 39.3428L33.2168 39.5548C33.0338 39.7403 32.6878 39.949 32.3684 40.1213M50.7286 31.2172C50.7186 31.2967 50.7186 31.3696 50.7053 31.4292C50.6587 31.7042 50.5788 31.9692 50.479 32.2242C50.3892 32.476 50.2694 32.7277 50.123 32.9563C49.2978 34.3641 47.8172 35.4274 46.4629 36.3318C45.1786 37.193 43.8144 37.9383 42.4735 38.7035C42.0176 38.9586 41.5585 39.2203 41.1059 39.4919C41.0194 39.5449 40.9429 39.6112 40.8764 39.6873C40.8398 39.7238 40.8098 39.7602 40.7799 39.8066C40.7566 39.853 40.7333 39.8993 40.7133 39.9391C40.5137 40.4558 41.1925 41.3171 41.4886 41.655C41.5917 41.7742 41.615 41.9399 41.5585 42.0227C41.5485 42.0359 41.5352 42.0492 41.5185 42.0591C41.4586 42.0955 41.3455 42.0657 41.1891 41.9167V41.9067C41.1326 41.867 41.0827 41.8107 41.0361 41.7577C40.9496 41.6749 40.8797 41.5821 40.8098 41.486C40.537 41.1482 40.2941 40.754 40.1843 40.4459C40.1177 40.2339 40.1743 39.9855 40.2442 39.7867C40.314 39.6112 40.4405 39.4356 40.5902 39.3362C41.8746 38.4981 43.1522 37.6667 44.4333 36.8286C45.6444 36.0436 46.8888 35.2883 48.0035 34.3807C48.0268 34.3674 48.0501 34.3442 48.0734 34.3277C49.0649 33.5095 50.0232 32.7045 50.2328 31.3663C50.6254 28.8918 48.1632 26.8513 46.4629 25.4369C45.9239 24.9897 45.3549 24.559 44.7926 24.1284C44.4233 23.8469 44.0573 23.562 43.7013 23.2638C43.5382 23.1313 43.3752 22.9955 43.2121 22.8531C43.1556 22.8133 42.7763 22.5053 42.9992 22.4523C43.3752 22.3695 43.638 22.4722 43.9408 22.5053C44.5264 22.5649 44.8924 22.5881 45.1686 22.5881C45.335 22.5881 45.4647 22.5881 45.5879 22.5748C45.6644 22.5649 45.7376 22.555 45.8141 22.5483C46.3764 22.492 47.7972 22.3231 48.5059 22.0912C48.0168 22.4125 47.4478 22.6113 46.8922 22.7338C46.6193 22.7935 46.3531 22.8365 46.0936 22.863C46.0504 22.863 46.0071 22.8697 45.9638 22.8763C45.8574 22.8862 45.7609 22.8895 45.6644 22.8928C45.5379 22.9061 45.4115 22.9061 45.2917 22.9061C45.1021 22.9127 44.929 22.9061 44.7727 22.8995C44.7361 22.8995 44.7028 22.8995 44.6728 22.8928C44.5897 22.8928 44.5065 22.8862 44.4333 22.8796C44.1937 22.8663 44.0207 22.8432 43.9442 22.8299H43.8843C43.861 22.8299 43.8477 22.8498 43.8443 22.8697C43.8443 22.8928 43.8576 22.916 43.871 22.9392C43.8809 22.9492 43.8909 22.9624 43.9009 22.9723C43.9109 22.9856 43.9275 22.9922 43.9375 23.0022V23.0088C43.9375 23.0088 43.9397 23.0088 43.9442 23.0088C43.9641 23.0287 43.9874 23.0419 44.0107 23.0585C44.0174 23.0585 44.0207 23.0717 44.0273 23.0717C44.0739 23.1048 44.1205 23.1313 44.1671 23.1612C44.2902 23.2373 44.41 23.3102 44.5298 23.393L45.1087 23.8336L46.5927 24.9433C47.328 25.6091 48.1399 26.2319 48.832 26.9341C49.5973 27.7093 50.2062 28.6633 50.5622 29.7166C50.5988 29.8458 50.6354 29.9883 50.6687 30.144C50.692 30.2566 50.7053 30.3626 50.7153 30.4719C50.7419 30.7303 50.7485 30.9887 50.7386 31.204M64.6202 47.9223C64.6767 47.7898 64.7466 47.6606 64.8098 47.5215C64.9363 47.2697 65.0561 47.0113 65.1758 46.7496C65.3256 46.4316 65.4753 46.1103 65.6184 45.7857C65.665 45.6764 65.7082 45.5671 65.7515 45.4644C65.7881 45.3783 65.828 45.2921 65.8613 45.2027C65.9544 44.994 66.0476 44.7787 66.1341 44.5667C66.3138 44.1427 66.5001 43.7121 66.6798 43.2847C66.8362 42.9204 66.9892 42.5527 67.1323 42.185C67.1689 42.0955 67.1989 42.0061 67.2388 41.9134C67.2521 41.8835 67.2621 41.8272 67.2787 41.7577C67.292 41.698 67.312 41.6484 67.3386 41.6252C67.4351 41.5523 67.5715 41.7577 67.6114 41.8438C67.6414 41.8935 67.658 41.9564 67.6713 42.0194C67.678 42.0359 67.6846 42.069 67.6846 42.0922C67.698 42.175 67.7079 42.2645 67.7079 42.3506V42.4367C67.6846 42.9701 67.5582 43.4934 67.3785 44.0036C67.3319 44.1327 67.2854 44.2553 67.2355 44.3746C67.1756 44.5303 67.1057 44.6727 67.0425 44.8217C66.9726 44.9741 66.8994 45.1199 66.8262 45.2623C66.7929 45.3352 66.7563 45.4048 66.7197 45.4743C66.6465 45.6068 66.5766 45.7426 66.5001 45.8751C66.4269 46.0109 66.3471 46.1368 66.2739 46.2759C66.214 46.372 66.1507 46.4714 66.0875 46.5675C66.0276 46.6602 65.9677 46.7496 65.9012 46.8424C65.8613 46.902 65.8147 46.9683 65.7714 47.0312C65.7049 47.124 65.625 47.2134 65.5485 47.3028C65.5252 47.3326 65.4986 47.3591 65.4753 47.389C65.3788 47.5049 65.2723 47.6142 65.1592 47.7202C65.1359 47.7434 65.1126 47.7666 65.086 47.7964C64.913 47.9653 64.6535 48.2138 64.4372 48.2734C64.4605 48.1541 64.547 48.025 64.6035 47.9256M77.5402 25.6853C77.3838 25.7284 77.2208 25.7714 77.071 25.8178C76.9978 25.841 76.9213 25.8642 76.8548 25.8841C76.3656 26.0563 75.983 26.2286 75.2743 26.3213C74.1397 26.4902 72.8853 26.3876 71.744 26.3213C71.6109 26.3081 71.4678 26.2981 71.3314 26.2849C71.2116 26.2716 71.0785 26.2617 70.9621 26.2484C70.6992 26.2252 70.4463 26.1921 70.1868 26.159C70.1469 26.159 70.1003 26.1491 70.0537 26.1457C69.904 26.1226 69.7476 26.0994 69.5912 26.0762C69.5413 26.0762 69.4947 26.0696 69.4415 26.053C69.3882 26.053 69.345 26.0464 69.2884 26.0397C69.1221 26.0132 68.949 25.9901 68.7827 25.9569C68.6263 25.9304 68.4632 25.9039 68.3069 25.8708C68.2403 25.8609 68.1771 25.8509 68.1072 25.8377C68.0773 25.8377 68.0473 25.8277 68.0174 25.8211C67.9974 25.8145 67.9741 25.8079 67.9575 25.8079C67.9342 25.8079 67.9109 25.7979 67.8976 25.7946C67.8577 25.7946 67.8244 25.7781 67.7778 25.7714C67.6148 25.7383 67.4551 25.7052 67.2953 25.6654C67.2488 25.6588 67.2022 25.6489 67.1523 25.6356C66.9693 25.5959 66.7796 25.5528 66.5933 25.5064C66.4901 25.4832 66.3903 25.4601 66.2938 25.4269C66.1907 25.4037 66.0942 25.3772 65.9944 25.3507C65.9811 25.3507 65.9678 25.3408 65.9511 25.3375C65.7714 25.2911 65.5884 25.2447 65.4154 25.1917C65.2224 25.1354 65.0328 25.0758 64.8431 25.0162C64.7999 25.0062 64.7566 24.9897 64.71 24.9797C64.6867 24.9731 64.6668 24.9665 64.6435 24.9632C64.6202 24.9532 64.6002 24.9499 64.5769 24.9466C64.4405 24.9035 64.3008 24.8572 64.1577 24.8108C64.0179 24.7677 63.8749 24.7247 63.7318 24.6783C63.4556 24.5889 63.1761 24.4928 62.89 24.4067C62.8068 24.3769 62.7203 24.3504 62.6338 24.3205C62.524 24.2841 62.4075 24.2477 62.2877 24.2112C61.9217 24.1019 61.559 23.9959 61.223 23.8634C60.4677 23.6282 57.2435 22.6047 56.1222 22.2337C56.1754 22.2436 56.232 22.2635 56.3019 22.28C56.405 22.3065 56.5215 22.3397 56.6546 22.3761C56.6978 22.386 56.7444 22.3993 56.7943 22.4125C58.0287 22.757 60.3379 23.4295 62.7535 24.0688C63.2227 24.1914 63.6852 24.3106 64.1544 24.4299C64.5902 24.5359 65.0061 24.6419 65.3821 24.7379C65.5019 24.7677 65.6284 24.7975 65.7415 24.824L65.7847 24.7147C65.818 24.6551 65.8546 24.5955 65.8912 24.5325C66.1873 24.0191 66.5667 23.3102 66.8262 22.8067C66.8561 22.7504 66.8861 22.6941 66.9127 22.6378C66.9127 22.6013 66.926 22.5682 66.9393 22.5483C66.9959 22.4423 67.0325 22.3165 67.0724 22.2171C67.0857 22.1807 67.0857 22.1575 67.0857 22.131C67.1157 22.0481 67.1456 21.9554 67.1689 21.8825C67.1689 21.8693 67.1789 21.8593 67.1789 21.8527C67.2321 21.6738 67.2488 21.4983 67.2488 21.3426C67.2488 21.3061 67.2588 21.2697 67.2488 21.2399V20.4846C67.2488 20.372 67.2588 20.2561 67.2754 20.1434C67.2987 20.0639 67.3819 19.5141 67.4418 19.1431C67.4551 19.0271 67.4784 18.9311 67.485 18.8681C67.4917 18.8582 67.4917 18.8549 67.4917 18.8449C67.4917 18.8317 67.4983 18.8184 67.505 18.8085C67.505 18.7953 67.5116 18.7754 67.5116 18.7721C67.5216 18.7489 67.5283 18.7257 67.5283 18.7058C67.5582 18.5932 67.5848 18.4739 67.6248 18.3547C67.6314 18.3315 67.6381 18.3083 67.648 18.2851C67.7079 18.1294 67.7579 18.0069 67.8044 17.8644C67.8111 17.8512 67.8277 17.828 67.8344 17.8114C67.8444 17.7982 67.8577 17.775 67.861 17.7617C67.8776 17.722 67.8943 17.6922 67.9076 17.6557C67.9176 17.6359 67.9309 17.616 67.9409 17.5961C67.9475 17.5762 67.9542 17.5597 67.9675 17.5398C67.9675 17.5398 67.9675 17.5398 67.9675 17.5332C67.9908 17.4901 68.0074 17.4504 68.0274 17.4139C68.0507 17.3808 68.0706 17.3444 68.0939 17.3112C68.1172 17.2781 68.1338 17.2483 68.1571 17.2152V17.2317C68.1372 17.3543 68.1172 17.4702 68.0873 17.5829V17.5928C68.064 17.7087 68.0373 17.8181 68.0174 17.9274C68.0107 17.9506 68.0041 17.9671 68.0041 17.987C67.9908 18.0532 67.9708 18.1195 67.9575 18.1891C67.9442 18.252 67.9275 18.3216 67.9209 18.3845C67.9076 18.4342 67.8976 18.4806 67.8843 18.5336C67.8743 18.5866 67.8643 18.6296 67.8543 18.6859C67.8477 18.7257 67.841 18.7688 67.8344 18.8052C67.8277 18.8416 67.8244 18.8781 67.8211 18.9079C67.8211 18.9178 67.8211 18.9377 67.8144 18.9476C67.8011 19.0437 67.7911 19.1331 67.7845 19.2292V19.312L67.8144 20.4018C67.8244 20.4581 67.8244 20.5078 67.831 20.5542C67.851 20.6304 67.8643 20.7033 67.8876 20.7728C67.9342 20.9517 67.9908 21.124 68.054 21.3028C68.0673 21.3393 68.0873 21.3856 68.1006 21.4254C68.1139 21.4585 68.1205 21.485 68.1239 21.5148C68.1704 21.591 68.1738 21.6407 68.1971 21.6937C68.2337 21.7732 68.2802 21.8262 68.3202 21.9024C68.3701 21.9918 68.4167 22.0879 68.4766 22.174C68.4965 22.2105 68.5198 22.2469 68.5498 22.2833C68.583 22.343 68.6196 22.3927 68.6629 22.449C68.7061 22.5086 68.7627 22.5649 68.8126 22.6345C68.8392 22.661 68.8692 22.6908 68.8958 22.7239C68.9224 22.7537 68.949 22.7835 68.9723 22.8133C68.9989 22.8465 69.0289 22.8796 69.0588 22.9094C69.172 23.0154 69.2685 23.1082 69.3982 23.1943C69.5047 23.2804 69.6245 23.3599 69.7476 23.456C69.7642 23.4626 69.7709 23.4692 69.7875 23.4792C69.8607 23.5156 69.9372 23.562 70.0071 23.6117C70.0703 23.6481 70.1336 23.6812 70.1901 23.711C70.25 23.7342 70.3066 23.7607 70.3665 23.7839C70.4264 23.8071 70.4763 23.8303 70.5428 23.8535C70.5595 23.8535 70.5761 23.8634 70.5961 23.8667C70.6094 23.8667 70.626 23.8866 70.626 23.8866C70.626 23.8866 70.6393 23.8866 70.646 23.8932C70.7292 23.9396 70.8256 23.9562 70.9022 23.9727C70.9754 24.0191 71.0319 24.0456 71.1051 24.0589C71.2915 24.0953 71.4678 24.1516 71.6641 24.2013C71.6874 24.2112 71.7074 24.2145 71.7373 24.2245C71.8904 24.2709 72.0534 24.3172 72.2032 24.357C72.2963 24.3934 72.3595 24.4133 72.456 24.4398C72.6623 24.5292 72.8919 24.6054 73.0849 24.6882L73.0982 24.7114C73.5907 24.9532 74.0465 25.2514 74.489 25.6986C75.7168 25.4866 76.8448 25.4071 77.6866 25.354C78.2789 25.3242 78.7314 25.3011 78.9343 25.2514C78.4752 25.3905 78.0027 25.5429 77.5435 25.6754" fill="#F2EBD9"/>
</g>
<defs>
<clipPath id="clip0_60_5">
<rect width="242" height="78" fill="white"/>
</clipPath>
</defs>
</svg>
